<?xml version="1.0" encoding="iso-8859-1"?>
<!-- Generator: Adobe Illustrator 19.0.0, SVG Export Plug-In . SVG Version: 6.00 Build 0)  -->
<svg height="32" width="32" version="1.1" id="Capa_1" xmlns="http://www.w3.org/2000/svg" xmlns:xlink="http://www.w3.org/1999/xlink" x="0px" y="0px"
	 viewBox="0 0 511.992 511.992" style="enable-background:new 0 0 511.992 511.992;" xml:space="preserve">
<path id="SVGCleanerId_0" d="M407.095,2.496c-3.328-3.328-8.738-3.328-12.066,0L2.496,395.029c-3.328,3.328-3.328,8.738,0,12.066
	l102.4,102.4c3.337,3.328,8.73,3.328,12.066,0l392.533-392.533c3.328-3.337,3.328-8.73,0-12.066L407.095,2.496z M110.929,491.396
	l-90.334-90.334l22.067-22.067l28.1,28.1l12.066-12.066l-28.1-28.1l13.534-13.534l19.567,19.567l12.066-12.066l-19.567-19.567
	l13.534-13.534l28.1,28.1l12.066-12.066l-28.1-28.1l13.534-13.534l19.567,19.567l12.066-12.066l-19.567-19.567l13.534-13.534
	l28.1,28.1l12.066-12.066l-28.1-28.1l13.534-13.534l19.567,19.567l12.066-12.066l-19.567-19.567l13.534-13.534l28.1,28.1
	l12.066-12.066l-28.1-28.1l13.534-13.534l19.567,19.567l12.066-12.066l-19.567-19.567l13.534-13.534l28.1,28.1l12.066-12.066
	l-28.1-28.1l13.534-13.534l19.567,19.567l12.066-12.066l-19.567-19.567l13.534-13.534l28.1,28.1l12.066-12.066l-28.1-28.1
	l13.534-13.534l19.567,19.567l12.066-12.066l-19.567-19.567l64.734-64.734l90.334,90.334L110.929,491.396z"/>
<path id="SVGCleanerId_1" d="M383.996,102.396c0,14.14,11.46,25.6,25.6,25.6s25.6-11.46,25.6-25.6s-11.46-25.6-25.6-25.6
	S383.996,88.256,383.996,102.396z M409.596,93.862c4.71,0,8.533,3.823,8.533,8.533c0,4.71-3.823,8.533-8.533,8.533
	s-8.533-3.823-8.533-8.533C401.062,97.685,404.885,93.862,409.596,93.862z"/>
<path style="fill:#FDB62F;" d="M401.062,8.529L8.529,401.062l102.4,102.4l392.533-392.533L401.062,8.529z M409.596,119.462
	c-9.429,0-17.067-7.637-17.067-17.067s7.637-17.067,17.067-17.067s17.067,7.637,17.067,17.067S419.017,119.462,409.596,119.462z"/>
<g>

		<rect x="328.533" y="80.039" transform="matrix(-0.7071 0.7071 -0.7071 -0.7071 644.8052 -70.8024)" style="fill:#DE4C3C;" width="17.067" height="36.207"/>

		<rect x="307.195" y="103.855" transform="matrix(-0.7071 0.7071 -0.7071 -0.7071 629.4843 -4.7589)" style="fill:#DE4C3C;" width="17.067" height="48.273"/>

		<rect x="277.324" y="131.232" transform="matrix(-0.7071 0.7071 -0.7071 -0.7071 593.5858 52.7997)" style="fill:#DE4C3C;" width="17.067" height="36.207"/>

		<rect x="255.98" y="155.042" transform="matrix(-0.7071 0.7071 -0.7071 -0.7071 578.2504 118.8372)" style="fill:#DE4C3C;" width="17.067" height="48.273"/>

		<rect x="226.127" y="182.419" transform="matrix(-0.7071 0.7071 -0.7071 -0.7071 542.381 176.3837)" style="fill:#DE4C3C;" width="17.067" height="36.207"/>

		<rect x="204.78" y="206.252" transform="matrix(-0.7071 0.7071 -0.7071 -0.7071 527.0576 242.4624)" style="fill:#DE4C3C;" width="17.067" height="48.273"/>

		<rect x="174.927" y="233.621" transform="matrix(-0.7071 0.7071 -0.7071 -0.7071 491.1822 299.9944)" style="fill:#DE4C3C;" width="17.067" height="36.207"/>

		<rect x="153.58" y="257.445" transform="matrix(-0.7071 0.7071 -0.7071 -0.7071 475.8528 366.0585)" style="fill:#DE4C3C;" width="17.067" height="48.273"/>

		<rect x="123.725" y="284.829" transform="matrix(-0.7071 0.7071 -0.7071 -0.7071 439.9835 423.6171)" style="fill:#DE4C3C;" width="17.067" height="36.207"/>

		<rect x="102.38" y="308.647" transform="matrix(-0.7071 0.7071 -0.7071 -0.7071 424.654 489.6691)" style="fill:#DE4C3C;" width="17.067" height="48.273"/>

		<rect x="72.531" y="336.037" transform="matrix(-0.7071 0.7071 -0.7071 -0.7071 388.7992 547.2338)" style="fill:#DE4C3C;" width="17.067" height="36.207"/>

		<rect x="51.18" y="359.849" transform="matrix(-0.7071 0.7071 -0.7071 -0.7071 373.4551 613.2798)" style="fill:#DE4C3C;" width="17.067" height="48.273"/>
</g>
<path style="fill:#FFA83D;" d="M421.662,90.33c6.784,6.545,6.972,17.348,0.418,24.132c-6.545,6.784-17.348,6.972-24.132,0.418
	c-0.145-0.137-0.282-0.282-0.418-0.418L59.729,452.262l51.2,51.2l392.533-392.533l-51.2-51.2L421.662,90.33z"/>
<g>
	<path id="SVGCleanerId_0_1_" d="M407.095,2.496c-3.328-3.328-8.738-3.328-12.066,0L2.496,395.029
		c-3.328,3.328-3.328,8.738,0,12.066l102.4,102.4c3.337,3.328,8.73,3.328,12.066,0l392.533-392.533c3.328-3.337,3.328-8.73,0-12.066
		L407.095,2.496z M110.929,491.396l-90.334-90.334l22.067-22.067l28.1,28.1l12.066-12.066l-28.1-28.1l13.534-13.534l19.567,19.567
		l12.066-12.066l-19.567-19.567l13.534-13.534l28.1,28.1l12.066-12.066l-28.1-28.1l13.534-13.534l19.567,19.567l12.066-12.066
		l-19.567-19.567l13.534-13.534l28.1,28.1l12.066-12.066l-28.1-28.1l13.534-13.534l19.567,19.567l12.066-12.066l-19.567-19.567
		l13.534-13.534l28.1,28.1l12.066-12.066l-28.1-28.1l13.534-13.534l19.567,19.567l12.066-12.066l-19.567-19.567l13.534-13.534
		l28.1,28.1l12.066-12.066l-28.1-28.1l13.534-13.534l19.567,19.567l12.066-12.066l-19.567-19.567l13.534-13.534l28.1,28.1
		l12.066-12.066l-28.1-28.1l13.534-13.534l19.567,19.567l12.066-12.066l-19.567-19.567l64.734-64.734l90.334,90.334L110.929,491.396
		z"/>
</g>
<g>
	<path id="SVGCleanerId_1_1_" d="M383.996,102.396c0,14.14,11.46,25.6,25.6,25.6s25.6-11.46,25.6-25.6s-11.46-25.6-25.6-25.6
		S383.996,88.256,383.996,102.396z M409.596,93.862c4.71,0,8.533,3.823,8.533,8.533c0,4.71-3.823,8.533-8.533,8.533
		s-8.533-3.823-8.533-8.533C401.062,97.685,404.885,93.862,409.596,93.862z"/>
</g>
<g>
</g>
<g>
</g>
<g>
</g>
<g>
</g>
<g>
</g>
<g>
</g>
<g>
</g>
<g>
</g>
<g>
</g>
<g>
</g>
<g>
</g>
<g>
</g>
<g>
</g>
<g>
</g>
<g>
</g>
</svg>
