<?xml version="1.0" encoding="utf-8"?>
<!-- Generator: Adobe Illustrator 22.1.0, SVG Export Plug-In . SVG Version: 6.00 Build 0)  -->
<svg version="1.1" id="Layer_1" xmlns="http://www.w3.org/2000/svg" xmlns:xlink="http://www.w3.org/1999/xlink" x="0px" y="0px"
	 viewBox="0 0 1500 1474" style="enable-background:new 0 0 1500 1474;" xml:space="preserve">
<style type="text/css">
	.st0{fill:#404040;}
</style>
<g id="Layer_3">
	<g>
		<path class="st0" d="M682.5,468.6c0.6,0,1,0.1,1.1,0.2c0.2,0.2,0.2,3.2,0.2,8.9v8.6l-0.5,0.4c-0.2,0.2-0.8,0.5-1.7,0.6
			c-0.8,0.1-1.2,0.2-1.3,0.2c-0.1,0.1-0.2,0.5-0.2,1.1c0,0.7,0.1,1,0.2,1.1c0.1,0.1,2,0.2,5.7,0.2c3.7,0,5.6-0.1,5.7-0.2
			c0.1-0.1,0.2-0.4,0.2-1.1c0-0.7,0-1-0.1-1.1s-0.6-0.2-1.5-0.3c-0.9-0.1-1.6-0.2-1.9-0.5l-0.6-0.3v-7.8c0-5.2,0.1-7.8,0.2-7.7
			c0.1,0,1.2,1.8,3.4,5.4c3.1,5.2,5.6,9.2,7.4,12.1c0.6,0.9,1.2,1.4,1.7,1.5c2.3,0.3,3.7,0.2,4.2-0.2c0.1-0.1,0.2-3.5,0.2-10.1
			c0-5.9,0.2-9.1,0.3-9.9c0.1-0.6,0.3-0.9,0.7-1c0.1,0,0.6-0.1,1.4-0.2c1-0.1,1.5-0.2,1.6-0.2s0.2-0.4,0.2-1.1s-0.1-1-0.2-1.1
			s-2-0.2-5.7-0.2c-3.7,0-5.6,0.1-5.7,0.2c-0.1,0.1-0.2,0.5-0.2,1.1c0,0.7,0.1,1,0.2,1.1s0.5,0.2,1.2,0.2c0.8,0.1,1.4,0.2,1.7,0.3
			l0.6,0.2v6.9c0,4.6-0.1,6.7-0.2,6.6s-0.2-0.4-0.4-0.7c-0.2-0.2-0.9-1.4-2.2-3.6c-4.3-7.1-6.6-11-7.1-11.5
			c-0.2-0.2-0.6-0.5-1.2-0.7c-3-0.7-6.1-0.7-9.3-0.1c-0.6,0.1-0.8,0.7-0.6,1.7C680.3,468.3,681.1,468.6,682.5,468.6z"/>
		<path class="st0" d="M702.6,948.7c-1.1-1-2.9-1.8-5.3-2.3l-3.3-0.7c-1.9-0.4-3.2-0.9-3.7-1.5c-0.7-0.6-0.8-1.3-0.6-2.2
			c0.2-0.9,0.6-1.5,1.2-1.8c0.6-0.3,1.6-0.5,2.9-0.5c2.9,0,5.1,1.5,6.6,4.5l0.7,1.6c0.7,0,1.3,0.1,2,0.2l0.2-1.1
			c0.1-0.7,0.2-2.2,0.2-4.1l0.2-3l-0.7-0.2c-0.8-0.2-1.5,0.1-2.1,0.7l-0.6,0.7l-1.7-0.8c-1.2-0.6-2.2-1-3.3-1.2
			c-1.2-0.2-2.5-0.2-3.9,0.2c-2.4,0.6-4,1.6-4.8,3c-1.5,2.2-1.6,4.6-0.3,6.8c0.6,1.1,1.5,1.9,2.8,2.5c1.2,0.6,3.6,1.2,6.8,2
			c3.2,0.7,4.8,1.8,4.8,3.4c0,0.9-0.4,1.7-1.3,2.2c-0.9,0.7-2.3,0.9-4.1,0.7c-1.7-0.2-3.2-0.6-4.2-1.4c-1.1-0.8-1.9-2.1-2.5-3.7
			c-0.3-1-0.7-1.6-1.1-1.7c-1.1-0.2-1.7,0.1-1.8,0.7c-0.5,2.6-0.5,5.2,0,7.7c0.1,0.4,0.4,0.7,1,0.7c0.7,0,1.3-0.4,1.9-1.3
			c0.2-0.2,0.7-0.1,1.8,0.5c2.1,1.1,4.2,1.5,6.4,1.4c2.7-0.2,4.6-0.8,5.9-2.1c1.2-1.2,1.9-2.8,1.9-4.9
			C704.4,951.4,703.9,949.8,702.6,948.7z"/>
		<path class="st0" d="M938.8,715.5c-0.1-0.6-0.3-0.9-0.7-1c-0.3-0.1-0.7-0.1-1.1,0c-0.3,0.1-0.6,0.4-0.7,0.9
			c-0.1,0.6-0.2,1.4-0.5,2.5c-0.2,1.2-0.7,2.1-1.2,2.7s-1.1,0.9-1.7,1.1c-0.6,0.2-2.2,0.2-4.7,0.2h-3.9v-8.2h1.5
			c1.2,0,2.1,0.2,2.5,0.6c0.4,0.3,0.7,1.2,0.8,2.5c0.2,0.8,0.2,1.2,0.3,1.3s0.5,0.2,1.1,0.2s1-0.1,1.1-0.2c0.1-0.1,0.2-1.7,0.2-4.9
			c0.1-3.2,0.1-5.1-0.1-5.6c-0.1-0.6-0.3-0.9-0.7-1c-0.3-0.1-0.7-0.1-1.1,0c-0.4,0.1-0.7,0.4-0.7,0.9c-0.2,1.2-0.5,2.2-1,2.7
			c-0.2,0.3-1,0.5-2.2,0.5h-1.7v-7.4l4,0.2c3.3,0.1,5.4,0.5,6.3,1.3c0.5,0.5,0.9,1.2,1.2,2.3c0.3,1.2,0.5,1.9,0.6,2.4
			c0.1,0.5,0.3,0.8,0.7,0.8c0.3,0.1,0.7,0.1,1.1,0c0.4-0.1,0.7-0.5,0.7-1.2c0.1-0.7,0.2-2.2,0.1-4.6c-0.1-2.3-0.2-3.6-0.2-3.7
			c-0.1-0.1-3.8-0.2-11.2-0.2c-7.4,0-11.4,0-11.9,0.1c-0.7,0.1-0.9,0.7-0.7,1.8c0.1,0.3,0.4,0.6,1,0.7c1.7,0.2,2.7,0.6,2.9,1.1
			c0.2,0.3,0.2,3.1,0.2,8.1s-0.1,7.8-0.2,8.4c-0.2,0.7-1.1,1.2-2.5,1.2c-0.7,0.1-1.2,0.2-1.2,0.2c-0.1,0.1-0.2,0.4-0.2,1.1
			c0,0.7,0.1,1,0.2,1.1s4.1,0.2,11.8,0.2s11.7-0.1,11.8-0.2c0.1-0.1,0.2-1.5,0.2-4.1C938.9,717.8,938.9,716.1,938.8,715.5z"/>
		<path class="st0" d="M473.5,700.6c-2.8-0.6-5.6-0.6-8.4,0c-0.3,0.1-0.6,0.2-0.6,0.2s0,0.4,0.1,0.9c0.1,0.7,0.2,1.1,0.2,1.2
			c0.1,0.1,0.5,0.2,1.1,0.2c0.7,0.1,1.1,0.2,1.2,0.4c0.2,0.2,0.3,0.6,0.3,1.1c0,0.5-0.6,2.8-1.7,7.1c-1.2,4.2-1.8,6.2-1.9,6.2
			s-0.2-0.1-0.2-0.2c-0.3-1.2-1-3.4-2.1-6.8c-1.2-4.1-1.9-6.3-1.9-6.9c0-0.4,0.7-0.7,1.9-0.9c0.5-0.1,0.8-0.3,0.9-0.7
			c0.1-0.4,0.1-0.7,0-1.2c-0.1-0.3-0.4-0.6-1-0.7s-2.3-0.1-5.2-0.1c-2.9,0.1-4.4,0.2-4.5,0.2c-0.1,0.1-0.2,0.4-0.2,1.1
			c0,0.7,0.1,1,0.2,1.1c0.1,0.1,0.3,0.2,0.9,0.2c0.9,0.1,1.6,0.8,2.1,2.1l0.4,1l-1.9,5.7c-1.2,3.7-1.9,5.7-2.1,5.9
			c-0.3,0.2-0.7-0.4-1.2-2.2c-0.8-3.2-1.6-6.1-2.3-8.7l-0.7-2.7l0.5-0.5c0.2-0.3,0.7-0.5,1.2-0.6c0.6-0.1,0.9-0.2,0.9-0.2
			c0.1-0.1,0.2-0.4,0.2-1.1c0-0.7-0.1-1-0.2-1.1c-0.1-0.1-1.7-0.2-4.8-0.2c-3.2,0-4.9,0-5.3,0.1c-0.6,0.1-0.8,0.7-0.6,1.8
			c0.1,0.3,0.4,0.6,1,0.7c1.1,0.2,1.7,0.9,2.1,2l2.7,8.9c1.3,4.5,2.2,7.5,2.7,8.9c0.2,1,0.6,1.6,0.7,1.7c0.2,0.2,0.9,0.2,2,0.2
			c1.3,0,2.2-0.2,2.4-0.4c0.2-0.2,1-2.2,2.2-5.8c1.2-3.6,1.8-5.5,2-5.6c0.2-0.4,0.7,0.3,1.2,2.2l2.3,7.6c0.2,1,0.6,1.6,0.8,1.8
			c0.2,0.2,1,0.3,2.1,0.3c1.3,0,2.1-0.1,2.3-0.3c0.2-0.2,0.7-1.4,1.2-3.5c0.2-0.9,1.5-5.4,3.8-13.4c0.6-1.7,0.9-2.9,1.2-3.3
			c0.2-0.5,0.7-0.8,1.3-1.1c0.9-0.4,1.3-1.1,1.1-2.1C474.2,700.9,474,700.7,473.5,700.6z"/>
		<path class="st0" d="M906,710.5l-33.1-4.2c-3.5-93-78.4-167.9-171.4-171.4l-4.2-33.1c-0.2-1.2-1.2-2.2-2.5-2.1l0,0l0,0l0,0l0,0
			l0,0l0,0c-1.2-0.1-2.3,0.8-2.5,2.1l-4.2,33.1c-93,3.5-167.9,78.4-171.4,171.4l-33.1,4.2c-1.2,0.2-2.2,1.2-2.1,2.5l0,0l0,0l0,0l0,0
			l0,0c-0.1,1.2,0.8,2.3,2.1,2.5l33.1,4.2c3.5,93,78.4,167.9,171.4,171.4l4.2,33.1c0.2,1.2,1.2,2.2,2.5,2.1l0,0l0,0l0,0l0,0l0,0
			c1.2,0.1,2.3-0.8,2.5-2.1l4.2-33.1c93-3.5,167.9-78.4,171.4-171.4l33.1-4.2c1.2-0.2,2.2-1.2,2.1-2.5l0,0l0,0l0,0l0,0l0,0l0,0
			C908.2,711.7,907.2,710.6,906,710.5z M525.6,676.6l19.1-4l-14.5-13c2.9-8.9,6.5-17.4,10.7-25.6l19.4,1.1L549.7,619
			c5.1-7.8,10.8-15.2,17-22.1l18.2,6l-6-18.1c6.9-6.2,14.4-12,22.2-17l15.9,10.4l-1.1-19c8.3-4.2,16.9-7.8,25.9-10.7l12.6,14.1
			l3.8-18.5c9.4-2,19-3.2,28.8-3.7l-6.7,52.3c-26.1,3.1-49.7,14.5-68,31.4L591,609.3l14.7,21.4c-16.9,18.4-28.3,42-31.4,68
			l-52.3,6.7C522.4,695.6,523.6,685.9,525.6,676.6z M615.9,626.3c17.4-15.9,39.5-26.5,64.1-29.6l-8.7,67.5L615.9,626.3z M646,689.5
			l-67.5,8.7c3.1-24.5,13.8-46.7,29.7-64.1L646,689.5z M659.2,882.2l-4.1-19.4l-13.3,14.9c-8.8-2.8-17.3-6.3-25.3-10.5l1.2-19.9
			L601,858.2c-7.7-5-15-10.6-21.9-16.7l6.2-18.8l-18.9,6.2c-6.1-6.8-11.8-14.1-16.8-21.8l10.9-16.5l-19.8,1.1
			c-4.2-8.1-7.7-16.6-10.6-25.4l14.8-13.2l-19.4-4.1c-2-9.2-3.2-18.8-3.7-28.5l52.3,6.7c3.1,26.1,14.5,49.7,31.4,68l-14.7,21.4
			l21.4-14.7c18.4,16.9,42,28.3,68,31.4l6.7,52.3C677.6,885.3,668.2,884.1,659.2,882.2z M608.1,791.8
			c-15.9-17.4-26.5-39.5-29.6-64.1l67.5,8.7L608.1,791.8z M671.2,761.7l8.7,67.5c-24.5-3.1-46.7-13.8-64.1-29.7L671.2,761.7z
			 M679.4,725.1l-9.9,9.9l-147.7-19c0-0.2,0-0.4,0-0.7h51.7h4h111.7L679.4,725.1z M692.5,591.8v4v111.7l-3.8-3.8l-15.9-15.9l11.9-92
			l0.5-3.7l6.7-52c0.2,0,0.4,0,0.7,0L692.5,591.8L692.5,591.8z M731.1,544l3.8,18.4l12.5-14c9.1,2.9,17.8,6.5,26.1,10.8l-1.1,18.7
			l15.6-10.2c8,5.2,15.5,10.9,22.4,17.2l-5.8,17.7l17.8-5.8c6.3,7,12.1,14.5,17.3,22.3l-10.2,15.6l18.8-1.1
			c4.3,8.3,8,16.9,10.9,25.9l-14,12.5l18.5,3.8c2.1,9.6,3.4,19.5,3.8,29.6l-52.3-6.7c-3.1-26.1-14.5-49.7-31.4-68l14.7-21.4L777,624
			c-18.4-16.9-42-28.3-68-31.4l-6.7-52.3C712.1,540.6,721.7,542,731.1,544z M781.4,634.1c15.9,17.4,26.5,39.5,29.6,64.1l-67.5-8.7
			L781.4,634.1z M718.2,664.3l-8.7-67.5c24.5,3.1,46.7,13.8,64.1,29.7L718.2,664.3z M697.6,885.9c-0.2,0-0.4,0-0.7,0v-51.7v-4V718.4
			l19.7,19.7L697.6,885.9z M773.6,799.6c-17.4,15.9-39.5,26.5-64.1,29.6l8.7-67.5L773.6,799.6z M743.4,736.5l67.5-8.7
			c-3.1,24.5-13.8,46.7-29.7,64.1L743.4,736.5z M864,748.6l-18.7,3.9l14.3,12.8c-2.8,9-6.4,17.5-10.6,25.8l-19.2-1.1l10.6,16.1
			c-5.1,7.8-10.7,15.2-16.9,22.2l-18.4-6.1l6.1,18.4c-6.8,6.2-14.1,12-21.9,17L773,847.1l1.1,19.6c-8.1,4.2-16.6,7.8-25.4,10.7
			l-13.1-14.9l-4,19.4c-9.5,2.1-19.3,3.3-29.2,3.7l6.7-52.3c26.1-3.1,49.7-14.5,68-31.4l21.4,14.7l-14.7-21.4
			c16.9-18.4,28.3-42,31.4-68l52.3-6.7C867,730.1,865.9,739.5,864,748.6z M815.9,710.7h-4H700.2l10.7-10.7l9-9l147.7,19
			c0,0.2,0,0.4,0,0.7H815.9z"/>
	</g>
</g>
</svg>
