  0
SECTION
  2
HEADER
  9
$ACADVER
  1
AC1024
  9
$ACADMAINTVER
 70
     6
  9
$DWGCODEPAGE
  3
UNDEFINED
  9
$INSBASE
 10
0.0
 20
0.0
 30
0.0
  9
$EXTMIN
 10
1.000000000000000E+20
 20
1.000000000000000E+20
 30
1.000000000000000E+20
  9
$EXTMAX
 10
-1.000000000000000E+20
 20
-1.000000000000000E+20
 30
-1.000000000000000E+20
  9
$LIMMIN
 10
0.0
 20
0.0
  9
$LIMMAX
 10
12.0
 20
9.0
  9
$ORTHOMODE
 70
     0
  9
$REGENMODE
 70
     1
  9
$FILLMODE
 70
     1
  9
$QTEXTMODE
 70
     0
  9
$MIRRTEXT
 70
     1
  9
$LTSCALE
 40
1.0
  9
$ATTMODE
 70
     1
  9
$TEXTSIZE
 40
0.2
  9
$TRACEWID
 40
0.05
  9
$TEXTSTYLE
  7
Standard
  9
$CLAYER
  8
0
  9
$CELTYPE
  6
ByLayer
  9
$CECOLOR
 62
   256
  9
$CELTSCALE
 40
1.0
  9
$DISPSILH
 70
     0
  9
$DIMSCALE
 40
1.0
  9
$DIMASZ
 40
0.18
  9
$DIMEXO
 40
0.0625
  9
$DIMDLI
 40
0.38
  9
$DIMRND
 40
0.0
  9
$DIMDLE
 40
0.0
  9
$DIMEXE
 40
0.18
  9
$DIMTP
 40
0.0
  9
$DIMTM
 40
0.0
  9
$DIMTXT
 40
0.18
  9
$DIMCEN
 40
0.09
  9
$DIMTSZ
 40
0.0
  9
$DIMTOL
 70
     0
  9
$DIMLIM
 70
     0
  9
$DIMTIH
 70
     1
  9
$DIMTOH
 70
     1
  9
$DIMSE1
 70
     0
  9
$DIMSE2
 70
     0
  9
$DIMTAD
 70
     0
  9
$DIMZIN
 70
     0
  9
$DIMBLK
  1

  9
$DIMASO
 70
     1
  9
$DIMSHO
 70
     1
  9
$DIMPOST
  1

  9
$DIMAPOST
  1

  9
$DIMALT
 70
     0
  9
$DIMALTD
 70
     2
  9
$DIMALTF
 40
25.4
  9
$DIMLFAC
 40
1.0
  9
$DIMTOFL
 70
     0
  9
$DIMTVP
 40
0.0
  9
$DIMTIX
 70
     0
  9
$DIMSOXD
 70
     0
  9
$DIMSAH
 70
     0
  9
$DIMBLK1
  1

  9
$DIMBLK2
  1

  9
$DIMSTYLE
  2
Standard
  9
$DIMCLRD
 70
     0
  9
$DIMCLRE
 70
     0
  9
$DIMCLRT
 70
     0
  9
$DIMTFAC
 40
1.0
  9
$DIMGAP
 40
0.09
  9
$DIMJUST
 70
     0
  9
$DIMSD1
 70
     0
  9
$DIMSD2
 70
     0
  9
$DIMTOLJ
 70
     1
  9
$DIMTZIN
 70
     0
  9
$DIMALTZ
 70
     0
  9
$DIMALTTZ
 70
     0
  9
$DIMUPT
 70
     0
  9
$DIMDEC
 70
     4
  9
$DIMTDEC
 70
     4
  9
$DIMALTU
 70
     2
  9
$DIMALTTD
 70
     2
  9
$DIMTXSTY
  7
Standard
  9
$DIMAUNIT
 70
     0
  9
$DIMADEC
 70
     0
  9
$DIMALTRND
 40
0.0
  9
$DIMAZIN
 70
     0
  9
$DIMDSEP
 70
    46
  9
$DIMATFIT
 70
     3
  9
$DIMFRAC
 70
     0
  9
$DIMLDRBLK
  1

  9
$DIMLUNIT
 70
     2
  9
$DIMLWD
 70
    -2
  9
$DIMLWE
 70
    -2
  9
$DIMTMOVE
 70
     0
  9
$DIMFXL
 40
1.0
  9
$DIMFXLON
 70
     0
  9
$DIMJOGANG
 40
0.7853981633974483
  9
$DIMTFILL
 70
     0
  9
$DIMTFILLCLR
 70
     0
  9
$DIMARCSYM
 70
     0
  9
$DIMLTYPE
  6

  9
$DIMLTEX1
  6

  9
$DIMLTEX2
  6

  9
$DIMTXTDIRECTION
 70
     0
  9
$LUNITS
 70
     2
  9
$LUPREC
 70
     4
  9
$SKETCHINC
 40
0.1
  9
$FILLETRAD
 40
0.5
  9
$AUNITS
 70
     0
  9
$AUPREC
 70
     0
  9
$MENU
  1
.
  9
$ELEVATION
 40
0.0
  9
$PELEVATION
 40
0.0
  9
$THICKNESS
 40
0.0
  9
$LIMCHECK
 70
     0
  9
$CHAMFERA
 40
0.5
  9
$CHAMFERB
 40
0.5
  9
$CHAMFERC
 40
1.0
  9
$CHAMFERD
 40
0.0
  9
$SKPOLY
 70
     0
  9
$TDCREATE
 40
2458824.402349526
  9
$TDUCREATE
 40
2458824.73568287
  9
$TDUPDATE
 40
2458824.402349526
  9
$TDUUPDATE
 40
2458824.73568287
  9
$TDINDWG
 40
0.0000000116
  9
$TDUSRTIMER
 40
0.0000000116
  9
$USRTIMER
 70
     1
  9
$ANGBASE
 50
0.0
  9
$ANGDIR
 70
     0
  9
$PDMODE
 70
     0
  9
$PDSIZE
 40
0.0
  9
$PLINEWID
 40
0.0
  9
$SPLFRAME
 70
     0
  9
$SPLINETYPE
 70
     6
  9
$SPLINESEGS
 70
     8
  9
$HANDSEED
  5
65
  9
$SURFTAB1
 70
     6
  9
$SURFTAB2
 70
     6
  9
$SURFTYPE
 70
     6
  9
$SURFU
 70
     6
  9
$SURFV
 70
     6
  9
$UCSBASE
  2

  9
$UCSNAME
  2

  9
$UCSORG
 10
0.0
 20
0.0
 30
0.0
  9
$UCSXDIR
 10
1.0
 20
0.0
 30
0.0
  9
$UCSYDIR
 10
0.0
 20
1.0
 30
0.0
  9
$UCSORTHOREF
  2

  9
$UCSORTHOVIEW
 70
     0
  9
$UCSORGTOP
 10
0.0
 20
0.0
 30
0.0
  9
$UCSORGBOTTOM
 10
0.0
 20
0.0
 30
0.0
  9
$UCSORGLEFT
 10
0.0
 20
0.0
 30
0.0
  9
$UCSORGRIGHT
 10
0.0
 20
0.0
 30
0.0
  9
$UCSORGFRONT
 10
0.0
 20
0.0
 30
0.0
  9
$UCSORGBACK
 10
0.0
 20
0.0
 30
0.0
  9
$PUCSBASE
  2

  9
$PUCSNAME
  2

  9
$PUCSORG
 10
0.0
 20
0.0
 30
0.0
  9
$PUCSXDIR
 10
1.0
 20
0.0
 30
0.0
  9
$PUCSYDIR
 10
0.0
 20
1.0
 30
0.0
  9
$PUCSORTHOREF
  2

  9
$PUCSORTHOVIEW
 70
     0
  9
$PUCSORGTOP
 10
0.0
 20
0.0
 30
0.0
  9
$PUCSORGBOTTOM
 10
0.0
 20
0.0
 30
0.0
  9
$PUCSORGLEFT
 10
0.0
 20
0.0
 30
0.0
  9
$PUCSORGRIGHT
 10
0.0
 20
0.0
 30
0.0
  9
$PUCSORGFRONT
 10
0.0
 20
0.0
 30
0.0
  9
$PUCSORGBACK
 10
0.0
 20
0.0
 30
0.0
  9
$USERI1
 70
     0
  9
$USERI2
 70
     0
  9
$USERI3
 70
     0
  9
$USERI4
 70
     0
  9
$USERI5
 70
     0
  9
$USERR1
 40
0.0
  9
$USERR2
 40
0.0
  9
$USERR3
 40
0.0
  9
$USERR4
 40
0.0
  9
$USERR5
 40
0.0
  9
$WORLDVIEW
 70
     1
  9
$SHADEDGE
 70
     3
  9
$SHADEDIF
 70
    70
  9
$TILEMODE
 70
     1
  9
$MAXACTVP
 70
    64
  9
$PINSBASE
 10
0.0
 20
0.0
 30
0.0
  9
$PLIMCHECK
 70
     0
  9
$PEXTMIN
 10
1.000000000000000E+20
 20
1.000000000000000E+20
 30
1.000000000000000E+20
  9
$PEXTMAX
 10
-1.000000000000000E+20
 20
-1.000000000000000E+20
 30
-1.000000000000000E+20
  9
$PLIMMIN
 10
0.0
 20
0.0
  9
$PLIMMAX
 10
12.0
 20
9.0
  9
$UNITMODE
 70
     0
  9
$VISRETAIN
 70
     1
  9
$PLINEGEN
 70
     0
  9
$PSLTSCALE
 70
     1
  9
$TREEDEPTH
 70
  3020
  9
$CMLSTYLE
  2
Standard
  9
$CMLJUST
 70
     0
  9
$CMLSCALE
 40
1.0
  9
$PROXYGRAPHICS
 70
     1
  9
$MEASUREMENT
 70
     0
  9
$CELWEIGHT
370
    -1
  9
$ENDCAPS
280
     0
  9
$JOINSTYLE
280
     0
  9
$LWDISPLAY
290
     1
  9
$INSUNITS
 70
     1
  9
$HYPERLINKBASE
  1

  9
$STYLESHEET
  1

  9
$XEDIT
290
     1
  9
$CEPSNTYPE
380
     0
  9
$PSTYLEMODE
290
     1
  9
$FINGERPRINTGUID
  2
{7840FC49-6ECB-9FD0-D93D-CB20A911D668}
  9
$VERSIONGUID
  2
{FAEB1C32-E019-11D5-929B-00C0DF256EC4}
  9
$EXTNAMES
290
     1
  9
$PSVPSCALE
 40
0.0
  9
$OLESTARTUP
290
     0
  9
$SORTENTS
280
   127
  9
$INDEXCTL
280
     0
  9
$HIDETEXT
280
     1
  9
$XCLIPFRAME
280
     2
  9
$HALOGAP
280
     0
  9
$OBSCOLOR
 70
   257
  9
$OBSLTYPE
280
     0
  9
$INTERSECTIONDISPLAY
280
     0
  9
$INTERSECTIONCOLOR
 70
   257
  9
$DIMASSOC
280
     2
  9
$PROJECTNAME
  1

  9
$CAMERADISPLAY
290
     0
  9
$LENSLENGTH
 40
50.0
  9
$CAMERAHEIGHT
 40
0.0
  9
$STEPSPERSEC
 40
2.0
  9
$STEPSIZE
 40
6.0
  9
$3DDWFPREC
 40
2.0
  9
$PSOLWIDTH
 40
0.25
  9
$PSOLHEIGHT
 40
4.0
  9
$LOFTANG1
 40
1.570796326794897
  9
$LOFTANG2
 40
1.570796326794897
  9
$LOFTMAG1
 40
0.0
  9
$LOFTMAG2
 40
0.0
  9
$LOFTPARAM
 70
     7
  9
$LOFTNORMALS
280
     1
  9
$LATITUDE
 40
37.795
  9
$LONGITUDE
 40
-122.394
  9
$NORTHDIRECTION
 40
0.0
  9
$TIMEZONE
 70
 -8000
  9
$LIGHTGLYPHDISPLAY
280
     1
  9
$TILEMODELIGHTSYNCH
280
     1
  9
$CMATERIAL
347
3C
  9
$SOLIDHIST
280
     1
  9
$SHOWHIST
280
     1
  9
$DWFFRAME
280
     2
  9
$DGNFRAME
280
     2
  9
$REALWORLDSCALE
290
     1
  9
$INTERFERECOLOR
 62
   256
  9
$CSHADOW
280
     0
  9
$SHADOWPLANELOCATION
 40
0.0
  0
ENDSEC
  0
SECTION
  2
CLASSES
  0
CLASS
  1
ACDBDICTIONARYWDFLT
  2
AcDbDictionaryWithDefault
  3
ObjectDBX Classes
 90
        0
 91
        4
280
     0
281
     0
  0
CLASS
  1
VISUALSTYLE
  2
AcDbVisualStyle
  3
ObjectDBX Classes
 90
     4095
 91
        4
280
     0
281
     0
  0
CLASS
  1
MATERIAL
  2
AcDbMaterial
  3
ObjectDBX Classes
 90
     1153
 91
        4
280
     0
281
     0
  0
CLASS
  1
SUN
  2
AcDbSun
  3
SCENEOE
 90
     1024
 91
        4
280
     0
281
     0
  0
ENDSEC
  0
SECTION
  2
TABLES
  0
TABLE
  2
VPORT
  5
8
330
0
100
AcDbSymbolTable
 70
     1
  0
VPORT
  5
29
330
8
100
AcDbSymbolTableRecord
100
AcDbViewportTableRecord
  2
*Active
 70
     0
 10
0.0
 20
0.0
 11
1.0
 21
1.0
 12
0.0
 22
0.0
 13
0.0
 23
0.0
 14
0.5
 24
0.5
 15
0.5
 25
0.5
 16
0.0
 26
0.0
 36
1.0
 17
704.5410841530174
 27
-757.3549914150026
 37
0.0
 40
1474.036211468287
 41
1.017614077815531
 42
50.0
 43
0.0
 44
0.0
 50
0.0
 51
0.0
 71
     0
 72
   100
 73
     1
 74
     3
 75
     0
 76
     0
 77
     0
 78
     0
281
     0
 65
     1
110
0.0
120
0.0
130
0.0
111
1.0
121
0.0
131
0.0
112
0.0
122
1.0
132
0.0
 79
     0
146
0.0
 60
     3
 61
     5
292
     1
282
     1
141
0.0
142
0.0
 63
   250
361
3F
  0
ENDTAB
  0
TABLE
  2
LTYPE
  5
5
330
0
100
AcDbSymbolTable
 70
     1
  0
LTYPE
  5
14
330
5
100
AcDbSymbolTableRecord
100
AcDbLinetypeTableRecord
  2
ByBlock
 70
     0
  3

 72
    65
 73
     0
 40
0.0
  0
LTYPE
  5
15
330
5
100
AcDbSymbolTableRecord
100
AcDbLinetypeTableRecord
  2
ByLayer
 70
     0
  3

 72
    65
 73
     0
 40
0.0
  0
LTYPE
  5
16
330
5
100
AcDbSymbolTableRecord
100
AcDbLinetypeTableRecord
  2
Continuous
 70
     0
  3
Solid line
 72
    65
 73
     0
 40
0.0
  0
ENDTAB
  0
TABLE
  2
LAYER
  5
2
330
0
100
AcDbSymbolTable
 70
     2
  0
LAYER
  5
10
330
2
100
AcDbSymbolTableRecord
100
AcDbLayerTableRecord
  2
0
 70
     0
 62
     7
  6
Continuous
370
    -3
390
F
347
3E
  0
LAYER
  5
40
330
2
100
AcDbSymbolTableRecord
100
AcDbLayerTableRecord
  2
Layer 1
 70
     0
 62
     7
  6
Continuous
370
    -3
390
F
347
3E
  0
ENDTAB
  0
TABLE
  2
STYLE
  5
3
330
0
100
AcDbSymbolTable
 70
     1
  0
STYLE
  5
11
330
3
100
AcDbSymbolTableRecord
100
AcDbTextStyleTableRecord
  2
Standard
 70
     0
 40
0.0
 41
1.0
 50
0.0
 71
     0
 42
0.2
  3
txt
  4

  0
ENDTAB
  0
TABLE
  2
VIEW
  5
6
330
0
100
AcDbSymbolTable
 70
     0
  0
ENDTAB
  0
TABLE
  2
UCS
  5
7
330
0
100
AcDbSymbolTable
 70
     0
  0
ENDTAB
  0
TABLE
  2
APPID
  5
9
330
0
100
AcDbSymbolTable
 70
     1
  0
APPID
  5
12
330
9
100
AcDbSymbolTableRecord
100
AcDbRegAppTableRecord
  2
ACAD
 70
     0
  0
ENDTAB
  0
TABLE
  2
DIMSTYLE
  5
A
330
0
100
AcDbSymbolTable
 70
     1
100
AcDbDimStyleTable
  0
DIMSTYLE
105
27
330
A
100
AcDbSymbolTableRecord
100
AcDbDimStyleTableRecord
  2
Standard
 70
     0
178
     0
340
11
  0
ENDTAB
  0
TABLE
  2
BLOCK_RECORD
  5
1
330
0
100
AcDbSymbolTable
 70
     3
  0
BLOCK_RECORD
  5
1F
330
1
100
AcDbSymbolTableRecord
100
AcDbBlockTableRecord
  2
*Model_Space
340
22
 70
     0
280
     1
281
     0
  0
BLOCK_RECORD
  5
1B
330
1
100
AcDbSymbolTableRecord
100
AcDbBlockTableRecord
  2
*Paper_Space
340
1E
 70
     0
280
     1
281
     0
  0
BLOCK_RECORD
  5
23
330
1
100
AcDbSymbolTableRecord
100
AcDbBlockTableRecord
  2
*Paper_Space0
340
26
 70
     0
280
     1
281
     0
  0
BLOCK_RECORD
  5
41
330
1
100
AcDbSymbolTableRecord
100
AcDbBlockTableRecord
  2
block 2
340
0
102
{BLKREFS
331
42
102
}
 70
     0
280
     1
281
     0
  0
BLOCK_RECORD
  5
45
330
1
100
AcDbSymbolTableRecord
100
AcDbBlockTableRecord
  2
block 3
340
0
102
{BLKREFS
331
46
102
}
 70
     0
280
     1
281
     0
  0
ENDTAB
  0
ENDSEC
  0
SECTION
  2
BLOCKS
  0
BLOCK
  5
20
330
1F
100
AcDbEntity
  8
0
100
AcDbBlockBegin
  2
*Model_Space
 70
     0
 10
0.0
 20
0.0
 30
0.0
  3
*Model_Space
  1

  0
ENDBLK
  5
21
330
1F
100
AcDbEntity
  8
0
100
AcDbBlockEnd
  0
BLOCK
  5
1C
330
1B
100
AcDbEntity
 67
     1
  8
0
100
AcDbBlockBegin
  2
*Paper_Space
 70
     0
 10
0.0
 20
0.0
 30
0.0
  3
*Paper_Space
  1

  0
ENDBLK
  5
1D
330
1B
100
AcDbEntity
 67
     1
  8
0
100
AcDbBlockEnd
  0
BLOCK
  5
24
330
23
100
AcDbEntity
  8
0
100
AcDbBlockBegin
  2
*Paper_Space0
 70
     0
 10
0.0
 20
0.0
 30
0.0
  3
*Paper_Space0
  1

  0
ENDBLK
  5
25
330
23
100
AcDbEntity
  8
0
100
AcDbBlockEnd
  0
BLOCK
  5
43
330
41
100
AcDbEntity
  8
0
100
AcDbBlockBegin
  2
block 2
 70
     0
 10
0.0
 20
0.0
 30
0.0
  3
block 2
  1

  0
INSERT
  5
46
330
41
100
AcDbEntity
  8
Layer 1
100
AcDbBlockReference
  2
block 3
 10
0.0
 20
0.0
 30
0.0
  0
ENDBLK
  5
44
330
41
100
AcDbEntity
  8
0
100
AcDbBlockEnd
  0
BLOCK
  5
47
330
45
100
AcDbEntity
  8
0
100
AcDbBlockBegin
  2
block 3
 70
     0
 10
0.0
 20
0.0
 30
0.0
  3
block 3
  1

  0
SPLINE
  5
49
330
45
100
AcDbEntity
  8
Layer 1
370
     0
100
AcDbSpline
210
0.0
220
0.0
230
1.0
 70
    11
 71
     3
 72
   137
 73
   133
 74
     0
 42
0.0000000001
 43
0.0000000001
 12
1.0
 22
0.0
 32
0.0
 13
1.0
 23
0.0
 33
0.0
 40
0.0
 40
0.0
 40
0.0
 40
0.0
 40
1.0
 40
1.0
 40
1.0
 40
2.0
 40
2.0
 40
2.0
 40
3.0
 40
3.0
 40
3.0
 40
4.0
 40
4.0
 40
4.0
 40
5.0
 40
5.0
 40
5.0
 40
6.0
 40
6.0
 40
6.0
 40
7.0
 40
7.0
 40
7.0
 40
8.0
 40
8.0
 40
8.0
 40
9.0
 40
9.0
 40
9.0
 40
10.0
 40
10.0
 40
10.0
 40
11.0
 40
11.0
 40
11.0
 40
12.0
 40
12.0
 40
12.0
 40
13.0
 40
13.0
 40
13.0
 40
14.0
 40
14.0
 40
14.0
 40
15.0
 40
15.0
 40
15.0
 40
16.0
 40
16.0
 40
16.0
 40
17.0
 40
17.0
 40
17.0
 40
18.0
 40
18.0
 40
18.0
 40
19.0
 40
19.0
 40
19.0
 40
20.0
 40
20.0
 40
20.0
 40
21.0
 40
21.0
 40
21.0
 40
22.0
 40
22.0
 40
22.0
 40
23.0
 40
23.0
 40
23.0
 40
24.0
 40
24.0
 40
24.0
 40
25.0
 40
25.0
 40
25.0
 40
26.0
 40
26.0
 40
26.0
 40
27.0
 40
27.0
 40
27.0
 40
28.0
 40
28.0
 40
28.0
 40
29.0
 40
29.0
 40
29.0
 40
30.0
 40
30.0
 40
30.0
 40
31.0
 40
31.0
 40
31.0
 40
32.0
 40
32.0
 40
32.0
 40
33.0
 40
33.0
 40
33.0
 40
34.0
 40
34.0
 40
34.0
 40
35.0
 40
35.0
 40
35.0
 40
36.0
 40
36.0
 40
36.0
 40
37.0
 40
37.0
 40
37.0
 40
38.0
 40
38.0
 40
38.0
 40
39.0
 40
39.0
 40
39.0
 40
40.0
 40
40.0
 40
40.0
 40
41.0
 40
41.0
 40
41.0
 40
42.0
 40
42.0
 40
42.0
 40
43.0
 40
43.0
 40
43.0
 40
44.0
 40
44.0
 40
44.0
 40
44.0
 10
637.0400114547674
 20
-488.9336476942781
 30
0.0
 10
637.6215681328122
 20
-488.9336476942781
 30
0.0
 10
638.0369947378485
 20
-489.0167380864104
 30
0.0
 10
638.1201611968645
 20
-489.182906192862
 30
0.0
 10
638.2862912698738
 20
-489.3490742993135
 30
0.0
 10
638.3694577288898
 20
-492.3401509266942
 30
0.0
 10
638.3694577288898
 20
-498.0730330050583
 30
0.0
 10
638.3694577288898
 20
-498.0730330050583
 30
0.0
 10
638.3694577288898
 20
-506.7139013186707
 30
0.0
 10
638.3694577288898
 20
-506.7139013186707
 30
0.0
 10
638.3694577288898
 20
-506.7139013186707
 30
0.0
 10
637.8709660873492
 20
-507.1293279237061
 30
0.0
 10
637.8709660873492
 20
-507.1293279237061
 30
0.0
 10
637.6216695553239
 20
-507.37858642229
 30
0.0
 10
637.0401128772783
 20
-507.6278449208739
 30
0.0
 10
636.1261946307022
 20
-507.7109226351931
 30
0.0
 10
635.2953414206313
 20
-507.7940130273255
 30
0.0
 10
634.8799148155958
 20
-507.8770907416447
 30
0.0
 10
634.7968497790916
 20
-507.960181133777
 30
0.0
 10
634.7137847425865
 20
-508.0432715259094
 30
0.0
 10
634.6307197060814
 20
-508.4586981309449
 30
0.0
 10
634.6307197060814
 20
-509.0402928424319
 30
0.0
 10
634.6307197060814
 20
-509.7049779460513
 30
0.0
 10
634.7137847425865
 20
-510.0373141589544
 30
0.0
 10
634.7968497790916
 20
-510.1204045510867
 30
0.0
 10
634.8799148155958
 20
-510.20349494322
 30
0.0
 10
636.7909177677639
 20
-510.2865726575383
 30
0.0
 10
640.529757213083
 20
-510.2865726575383
 30
0.0
 10
644.2685966584022
 20
-510.2865726575383
 30
0.0
 10
646.0964331515543
 20
-510.2034822654059
 30
0.0
 10
646.2626646470744
 20
-510.1204045510867
 30
0.0
 10
646.3457296835795
 20
-510.0373141589544
 30
0.0
 10
646.4287947200846
 20
-509.7049779460513
 30
0.0
 10
646.4287947200846
 20
-509.0402928424319
 30
0.0
 10
646.4287947200846
 20
-508.3756077388125
 30
0.0
 10
646.4287947200846
 20
-508.0432715259094
 30
0.0
 10
646.3457296835795
 20
-507.960181133777
 30
0.0
 10
646.2626646470744
 20
-507.8770907416447
 30
0.0
 10
645.7641730055348
 20
-507.7940130273255
 30
0.0
 10
644.850153336447
 20
-507.6278449208739
 30
0.0
 10
643.9362350898718
 20
-507.5447545287416
 30
0.0
 10
643.2715119528102
 20
-507.37858642229
 30
0.0
 10
642.9391503842799
 20
-507.1293279237061
 30
0.0
 10
642.9391503842799
 20
-507.1293279237061
 30
0.0
 10
642.3575937062342
 20
-506.796991710803
 30
0.0
 10
642.3575937062342
 20
-506.796991710803
 30
0.0
 10
642.3575937062342
 20
-506.796991710803
 30
0.0
 10
642.3575937062342
 20
-498.9869766072616
 30
0.0
 10
642.3575937062342
 20
-498.9869766072616
 30
0.0
 10
642.3575937062342
 20
-493.7525988482521
 30
0.0
 10
642.4406587427393
 20
-491.176961503721
 30
0.0
 10
642.6068902382603
 20
-491.2600392180393
 30
0.0
 10
642.6899552747655
 20
-491.2600392180393
 30
0.0
 10
643.8531700533667
 20
-493.0879137446327
 30
0.0
 10
646.0133681150492
 20
-496.6605850835003
 30
0.0
 10
649.0874844233067
 20
-501.8118724503775
 30
0.0
 10
651.5800440535204
 20
-505.8830607864138
 30
0.0
 10
653.4079819691824
 20
-508.7910470216621
 30
0.0
 10
653.9895386472281
 20
-509.7049906238653
 30
0.0
 10
654.5711967477837
 20
-510.20349494322
 30
0.0
 10
655.1527534258294
 20
-510.2865853353524
 30
0.0
 10
657.4791829830319
 20
-510.6189215482555
 30
0.0
 10
658.8085278346434
 20
-510.5358438339363
 30
0.0
 10
659.307019476184
 20
-510.0373268367684
 30
0.0
 10
659.3900845126891
 20
-509.9542364446352
 30
0.0
 10
659.4731495491942
 20
-506.5477458900332
 30
0.0
 10
659.5563160082093
 20
-499.9009202094658
 30
0.0
 10
659.5563160082093
 20
-494.001857346836
 30
0.0
 10
659.7224460812195
 20
-490.7615348986856
 30
0.0
 10
659.8886775767405
 20
-490.013772080747
 30
0.0
 10
659.9717426132447
 20
-489.43217736926
 30
0.0
 10
660.2210391452709
 20
-489.0998284785437
 30
0.0
 10
660.5534007138012
 20
-489.0167507642245
 30
0.0
 10
660.6364657503063
 20
-489.0167507642245
 30
0.0
 10
661.1349573918469
 20
-488.9336603720922
 30
0.0
 10
661.9658106019178
 20
-488.850582657773
 30
0.0
 10
662.9627938849981
 20
-488.7674922656406
 30
0.0
 10
663.4613869490495
 20
-488.6844145513214
 30
0.0
 10
663.5444519855546
 20
-488.6013241591891
 30
0.0
 10
663.6275170220597
 20
-488.5182337670567
 30
0.0
 10
663.7105820585648
 20
-488.1858975541536
 30
0.0
 10
663.7105820585648
 20
-487.5212124505342
 30
0.0
 10
663.7105820585648
 20
-486.8565273469148
 30
0.0
 10
663.6275170220597
 20
-486.5241911340117
 30
0.0
 10
663.5444519855546
 20
-486.4411007418794
 30
0.0
 10
663.4613869490495
 20
-486.3580103497461
 30
0.0
 10
661.5503839968824
 20
-486.2749326354278
 30
0.0
 10
657.8115445515632
 20
-486.2749326354278
 30
0.0
 10
654.1557701427482
 20
-486.2749326354278
 30
0.0
 10
652.244868613092
 20
-486.3580230275602
 30
0.0
 10
652.0786371175709
 20
-486.4411007418794
 30
0.0
 10
651.9955720810667
 20
-486.5241911340117
 30
0.0
 10
651.9125070445616
 20
-486.9396177390472
 30
0.0
 10
651.9125070445616
 20
-487.5212124505342
 30
0.0
 10
651.9125070445616
 20
-488.1858975541536
 30
0.0
 10
651.9955720810667
 20
-488.5182337670567
 30
0.0
 10
652.0786371175709
 20
-488.6013241591891
 30
0.0
 10
652.161702154076
 20
-488.6844145513214
 30
0.0
 10
652.5771287591115
 20
-488.7674922656406
 30
0.0
 10
653.3249169326773
 20
-488.850582657773
 30
0.0
 10
654.1557701427482
 20
-488.9336730499053
 30
0.0
 10
654.7373268207939
 20
-489.0167507642245
 30
0.0
 10
655.0696883893243
 20
-489.1829188706761
 30
0.0
 10
655.0696883893243
 20
-489.1829188706761
 30
0.0
 10
655.6512450673699
 20
-489.43217736926
 30
0.0
 10
655.6512450673699
 20
-489.43217736926
 30
0.0
 10
655.6512450673699
 20
-489.43217736926
 30
0.0
 10
655.6512450673699
 20
-496.3282615484113
 30
0.0
 10
655.6512450673699
 20
-496.3282615484113
 30
0.0
 10
655.6512450673699
 20
-500.8979542038014
 30
0.0
 10
655.5681800308648
 20
-503.058177621112
 30
0.0
 10
655.4851149943597
 20
-502.8919968368464
 30
0.0
 10
655.4020499578546
 20
-502.7258287303948
 30
0.0
 10
655.2358184623345
 20
-502.4765702318109
 30
0.0
 10
655.0696883893243
 20
-502.227311733227
 30
0.0
 10
654.903558316315
 20
-502.0611436267754
 30
0.0
 10
654.1557701427482
 20
-500.8148638116691
 30
0.0
 10
652.8264252911376
 20
-498.6546403943594
 30
0.0
 10
648.5060291677728
 20
-491.5092977166232
 30
0.0
 10
646.1795996105702
 20
-487.6873805569858
 30
0.0
 10
645.7641730055348
 20
-487.1057858454988
 30
0.0
 10
645.5148764735086
 20
-486.8565273469148
 30
0.0
 10
645.1826163274891
 20
-486.60726884833
 30
0.0
 10
644.6009582269326
 20
-486.4411007418794
 30
0.0
 10
641.6099069551792
 20
-485.7764156382591
 30
0.0
 10
638.4526241879057
 20
-485.7764156382591
 30
0.0
 10
635.2954428431422
 20
-486.3580103497461
 30
0.0
 10
634.7138861650974
 20
-486.4411007418794
 30
0.0
 10
634.4645896330712
 20
-487.0226954533655
 30
0.0
 10
634.7138861650974
 20
-488.1028071620212
 30
0.0
 10
634.879813393085
 20
-488.6843891956942
 30
0.0
 10
635.6276015666517
 20
-488.9336476942781
 30
0.0
 10
637.0400114547674
 20
-488.9336476942781
 30
0.0
  0
HATCH
  5
4A
330
45
100
AcDbEntity
  8
Layer 1
 62
    49
420
  4145215
100
AcDbHatch
 10
0.0
 20
0.0
 30
0.0
210
0.0
220
0.0
230
1.0
  2
SOLID
 70
     1
 71
     0
 91
        1
 92
        1
 93
        1
 72
     4
 94
        3
 73
     0
 74
     1
 95
      137
 96
      133
 40
0.0
 40
0.0
 40
0.0
 40
0.0
 40
1.0
 40
1.0
 40
1.0
 40
2.0
 40
2.0
 40
2.0
 40
3.0
 40
3.0
 40
3.0
 40
4.0
 40
4.0
 40
4.0
 40
5.0
 40
5.0
 40
5.0
 40
6.0
 40
6.0
 40
6.0
 40
7.0
 40
7.0
 40
7.0
 40
8.0
 40
8.0
 40
8.0
 40
9.0
 40
9.0
 40
9.0
 40
10.0
 40
10.0
 40
10.0
 40
11.0
 40
11.0
 40
11.0
 40
12.0
 40
12.0
 40
12.0
 40
13.0
 40
13.0
 40
13.0
 40
14.0
 40
14.0
 40
14.0
 40
15.0
 40
15.0
 40
15.0
 40
16.0
 40
16.0
 40
16.0
 40
17.0
 40
17.0
 40
17.0
 40
18.0
 40
18.0
 40
18.0
 40
19.0
 40
19.0
 40
19.0
 40
20.0
 40
20.0
 40
20.0
 40
21.0
 40
21.0
 40
21.0
 40
22.0
 40
22.0
 40
22.0
 40
23.0
 40
23.0
 40
23.0
 40
24.0
 40
24.0
 40
24.0
 40
25.0
 40
25.0
 40
25.0
 40
26.0
 40
26.0
 40
26.0
 40
27.0
 40
27.0
 40
27.0
 40
28.0
 40
28.0
 40
28.0
 40
29.0
 40
29.0
 40
29.0
 40
30.0
 40
30.0
 40
30.0
 40
31.0
 40
31.0
 40
31.0
 40
32.0
 40
32.0
 40
32.0
 40
33.0
 40
33.0
 40
33.0
 40
34.0
 40
34.0
 40
34.0
 40
35.0
 40
35.0
 40
35.0
 40
36.0
 40
36.0
 40
36.0
 40
37.0
 40
37.0
 40
37.0
 40
38.0
 40
38.0
 40
38.0
 40
39.0
 40
39.0
 40
39.0
 40
40.0
 40
40.0
 40
40.0
 40
41.0
 40
41.0
 40
41.0
 40
42.0
 40
42.0
 40
42.0
 40
43.0
 40
43.0
 40
43.0
 40
44.0
 40
44.0
 40
44.0
 40
44.0
 10
637.0400114547674
 20
-488.9336476942781
 10
637.6215681328122
 20
-488.9336476942781
 10
638.0369947378485
 20
-489.0167380864104
 10
638.1201611968645
 20
-489.182906192862
 10
638.2862912698738
 20
-489.3490742993135
 10
638.3694577288898
 20
-492.3401509266942
 10
638.3694577288898
 20
-498.0730330050583
 10
638.3694577288898
 20
-498.0730330050583
 10
638.3694577288898
 20
-506.7139013186707
 10
638.3694577288898
 20
-506.7139013186707
 10
638.3694577288898
 20
-506.7139013186707
 10
637.8709660873492
 20
-507.1293279237061
 10
637.8709660873492
 20
-507.1293279237061
 10
637.6216695553239
 20
-507.37858642229
 10
637.0401128772783
 20
-507.6278449208739
 10
636.1261946307022
 20
-507.7109226351931
 10
635.2953414206313
 20
-507.7940130273255
 10
634.8799148155958
 20
-507.8770907416447
 10
634.7968497790916
 20
-507.960181133777
 10
634.7137847425865
 20
-508.0432715259094
 10
634.6307197060814
 20
-508.4586981309449
 10
634.6307197060814
 20
-509.0402928424319
 10
634.6307197060814
 20
-509.7049779460513
 10
634.7137847425865
 20
-510.0373141589544
 10
634.7968497790916
 20
-510.1204045510867
 10
634.8799148155958
 20
-510.20349494322
 10
636.7909177677639
 20
-510.2865726575383
 10
640.529757213083
 20
-510.2865726575383
 10
644.2685966584022
 20
-510.2865726575383
 10
646.0964331515543
 20
-510.2034822654059
 10
646.2626646470744
 20
-510.1204045510867
 10
646.3457296835795
 20
-510.0373141589544
 10
646.4287947200846
 20
-509.7049779460513
 10
646.4287947200846
 20
-509.0402928424319
 10
646.4287947200846
 20
-508.3756077388125
 10
646.4287947200846
 20
-508.0432715259094
 10
646.3457296835795
 20
-507.960181133777
 10
646.2626646470744
 20
-507.8770907416447
 10
645.7641730055348
 20
-507.7940130273255
 10
644.850153336447
 20
-507.6278449208739
 10
643.9362350898718
 20
-507.5447545287416
 10
643.2715119528102
 20
-507.37858642229
 10
642.9391503842799
 20
-507.1293279237061
 10
642.9391503842799
 20
-507.1293279237061
 10
642.3575937062342
 20
-506.796991710803
 10
642.3575937062342
 20
-506.796991710803
 10
642.3575937062342
 20
-506.796991710803
 10
642.3575937062342
 20
-498.9869766072616
 10
642.3575937062342
 20
-498.9869766072616
 10
642.3575937062342
 20
-493.7525988482521
 10
642.4406587427393
 20
-491.176961503721
 10
642.6068902382603
 20
-491.2600392180393
 10
642.6899552747655
 20
-491.2600392180393
 10
643.8531700533667
 20
-493.0879137446327
 10
646.0133681150492
 20
-496.6605850835003
 10
649.0874844233067
 20
-501.8118724503775
 10
651.5800440535204
 20
-505.8830607864138
 10
653.4079819691824
 20
-508.7910470216621
 10
653.9895386472281
 20
-509.7049906238653
 10
654.5711967477837
 20
-510.20349494322
 10
655.1527534258294
 20
-510.2865853353524
 10
657.4791829830319
 20
-510.6189215482555
 10
658.8085278346434
 20
-510.5358438339363
 10
659.307019476184
 20
-510.0373268367684
 10
659.3900845126891
 20
-509.9542364446352
 10
659.4731495491942
 20
-506.5477458900332
 10
659.5563160082093
 20
-499.9009202094658
 10
659.5563160082093
 20
-494.001857346836
 10
659.7224460812195
 20
-490.7615348986856
 10
659.8886775767405
 20
-490.013772080747
 10
659.9717426132447
 20
-489.43217736926
 10
660.2210391452709
 20
-489.0998284785437
 10
660.5534007138012
 20
-489.0167507642245
 10
660.6364657503063
 20
-489.0167507642245
 10
661.1349573918469
 20
-488.9336603720922
 10
661.9658106019178
 20
-488.850582657773
 10
662.9627938849981
 20
-488.7674922656406
 10
663.4613869490495
 20
-488.6844145513214
 10
663.5444519855546
 20
-488.6013241591891
 10
663.6275170220597
 20
-488.5182337670567
 10
663.7105820585648
 20
-488.1858975541536
 10
663.7105820585648
 20
-487.5212124505342
 10
663.7105820585648
 20
-486.8565273469148
 10
663.6275170220597
 20
-486.5241911340117
 10
663.5444519855546
 20
-486.4411007418794
 10
663.4613869490495
 20
-486.3580103497461
 10
661.5503839968824
 20
-486.2749326354278
 10
657.8115445515632
 20
-486.2749326354278
 10
654.1557701427482
 20
-486.2749326354278
 10
652.244868613092
 20
-486.3580230275602
 10
652.0786371175709
 20
-486.4411007418794
 10
651.9955720810667
 20
-486.5241911340117
 10
651.9125070445616
 20
-486.9396177390472
 10
651.9125070445616
 20
-487.5212124505342
 10
651.9125070445616
 20
-488.1858975541536
 10
651.9955720810667
 20
-488.5182337670567
 10
652.0786371175709
 20
-488.6013241591891
 10
652.161702154076
 20
-488.6844145513214
 10
652.5771287591115
 20
-488.7674922656406
 10
653.3249169326773
 20
-488.850582657773
 10
654.1557701427482
 20
-488.9336730499053
 10
654.7373268207939
 20
-489.0167507642245
 10
655.0696883893243
 20
-489.1829188706761
 10
655.0696883893243
 20
-489.1829188706761
 10
655.6512450673699
 20
-489.43217736926
 10
655.6512450673699
 20
-489.43217736926
 10
655.6512450673699
 20
-489.43217736926
 10
655.6512450673699
 20
-496.3282615484113
 10
655.6512450673699
 20
-496.3282615484113
 10
655.6512450673699
 20
-500.8979542038014
 10
655.5681800308648
 20
-503.058177621112
 10
655.4851149943597
 20
-502.8919968368464
 10
655.4020499578546
 20
-502.7258287303948
 10
655.2358184623345
 20
-502.4765702318109
 10
655.0696883893243
 20
-502.227311733227
 10
654.903558316315
 20
-502.0611436267754
 10
654.1557701427482
 20
-500.8148638116691
 10
652.8264252911376
 20
-498.6546403943594
 10
648.5060291677728
 20
-491.5092977166232
 10
646.1795996105702
 20
-487.6873805569858
 10
645.7641730055348
 20
-487.1057858454988
 10
645.5148764735086
 20
-486.8565273469148
 10
645.1826163274891
 20
-486.60726884833
 10
644.6009582269326
 20
-486.4411007418794
 10
641.6099069551792
 20
-485.7764156382591
 10
638.4526241879057
 20
-485.7764156382591
 10
635.2954428431422
 20
-486.3580103497461
 10
634.7138861650974
 20
-486.4411007418794
 10
634.4645896330712
 20
-487.0226954533655
 10
634.7138861650974
 20
-488.1028071620212
 10
634.879813393085
 20
-488.6843891956942
 10
635.6276015666517
 20
-488.9336476942781
 10
637.0400114547674
 20
-488.9336476942781
 97
        0
 97
        0
 75
     2
 76
     1
 98
        0
  0
SPLINE
  5
4B
330
45
100
AcDbEntity
  8
Layer 1
370
     0
100
AcDbSpline
210
0.0
220
0.0
230
1.0
 70
    11
 71
     3
 72
   116
 73
   112
 74
     0
 42
0.0000000001
 43
0.0000000001
 12
1.0
 22
0.0
 32
0.0
 13
1.0
 23
0.0
 33
0.0
 40
0.0
 40
0.0
 40
0.0
 40
0.0
 40
1.0
 40
1.0
 40
1.0
 40
2.0
 40
2.0
 40
2.0
 40
3.0
 40
3.0
 40
3.0
 40
4.0
 40
4.0
 40
4.0
 40
5.0
 40
5.0
 40
5.0
 40
6.0
 40
6.0
 40
6.0
 40
7.0
 40
7.0
 40
7.0
 40
8.0
 40
8.0
 40
8.0
 40
9.0
 40
9.0
 40
9.0
 40
10.0
 40
10.0
 40
10.0
 40
11.0
 40
11.0
 40
11.0
 40
12.0
 40
12.0
 40
12.0
 40
13.0
 40
13.0
 40
13.0
 40
14.0
 40
14.0
 40
14.0
 40
15.0
 40
15.0
 40
15.0
 40
16.0
 40
16.0
 40
16.0
 40
17.0
 40
17.0
 40
17.0
 40
18.0
 40
18.0
 40
18.0
 40
19.0
 40
19.0
 40
19.0
 40
20.0
 40
20.0
 40
20.0
 40
21.0
 40
21.0
 40
21.0
 40
22.0
 40
22.0
 40
22.0
 40
23.0
 40
23.0
 40
23.0
 40
24.0
 40
24.0
 40
24.0
 40
25.0
 40
25.0
 40
25.0
 40
26.0
 40
26.0
 40
26.0
 40
27.0
 40
27.0
 40
27.0
 40
28.0
 40
28.0
 40
28.0
 40
29.0
 40
29.0
 40
29.0
 40
30.0
 40
30.0
 40
30.0
 40
31.0
 40
31.0
 40
31.0
 40
32.0
 40
32.0
 40
32.0
 40
33.0
 40
33.0
 40
33.0
 40
34.0
 40
34.0
 40
34.0
 40
35.0
 40
35.0
 40
35.0
 40
36.0
 40
36.0
 40
36.0
 40
37.0
 40
37.0
 40
37.0
 40
37.0
 10
657.1467199919907
 20
-969.0837254009639
 30
0.0
 10
656.0665702498945
 20
-968.0866914066264
 30
0.0
 10
654.2387337567425
 20
-967.2558381965555
 30
0.0
 10
651.8292391630348
 20
-966.7573465550158
 30
0.0
 10
651.8292391630348
 20
-966.7573465550158
 30
0.0
 10
648.5058263227511
 20
-966.0095583814491
 30
0.0
 10
648.5058263227511
 20
-966.0095583814491
 30
0.0
 10
646.5948233705831
 20
-965.5941317764136
 30
0.0
 10
645.3485435554767
 20
-965.095640134874
 30
0.0
 10
644.7669868774319
 20
-964.5140327455738
 30
0.0
 10
644.1022637403703
 20
-963.9324253562718
 30
0.0
 10
643.936133667361
 20
-963.1846878939614
 30
0.0
 10
644.1854301993862
 20
-962.2707189361299
 30
0.0
 10
644.3515602723965
 20
-961.3568006895548
 30
0.0
 10
644.7669868774319
 20
-960.7751933002546
 30
0.0
 10
645.3486449779875
 20
-960.4428317317233
 30
0.0
 10
645.9302016560332
 20
-960.1104701631921
 30
0.0
 10
646.9272863616252
 20
-959.9443400901837
 30
0.0
 10
648.2566312132358
 20
-959.9443400901837
 30
0.0
 10
651.1646174484849
 20
-959.9443400901837
 30
0.0
 10
653.3248155101664
 20
-961.439865726059
 30
0.0
 10
654.820391857299
 20
-964.4309677090678
 30
0.0
 10
654.820391857299
 20
-964.4309677090678
 30
0.0
 10
655.5681800308648
 20
-966.0096090927054
 30
0.0
 10
655.5681800308648
 20
-966.0096090927054
 30
0.0
 10
656.2329031679255
 20
-966.0096090927054
 30
0.0
 10
656.8975248824763
 20
-966.0926741292096
 30
0.0
 10
657.562248019537
 20
-966.1757898769702
 30
0.0
 10
657.562248019537
 20
-966.1757898769702
 30
0.0
 10
657.7283780925472
 20
-965.0956908461303
 30
0.0
 10
657.7283780925472
 20
-965.0956908461303
 30
0.0
 10
657.8114431290523
 20
-964.3479026725636
 30
0.0
 10
657.8945081655565
 20
-962.935492784447
 30
0.0
 10
657.9776746245725
 20
-961.0244898322799
 30
0.0
 10
657.9776746245725
 20
-961.0244898322799
 30
0.0
 10
658.1438046975827
 20
-958.0334385605256
 30
0.0
 10
658.1438046975827
 20
-958.0334385605256
 30
0.0
 10
658.1438046975827
 20
-958.0334385605256
 30
0.0
 10
657.4790815605211
 20
-957.8672577762609
 30
0.0
 10
657.4790815605211
 20
-957.8672577762609
 30
0.0
 10
656.6482283504502
 20
-957.7010769919962
 30
0.0
 10
655.9835052133894
 20
-957.9503228127669
 30
0.0
 10
655.4019485353438
 20
-958.6150459498276
 30
0.0
 10
655.4019485353438
 20
-958.6150459498276
 30
0.0
 10
654.820391857299
 20
-959.2797183756338
 30
0.0
 10
654.820391857299
 20
-959.2797183756338
 30
0.0
 10
654.820391857299
 20
-959.2797183756338
 30
0.0
 10
653.1586854371571
 20
-958.4488651655611
 30
0.0
 10
653.1586854371571
 20
-958.4488651655611
 30
0.0
 10
651.9954706585559
 20
-957.8672577762609
 30
0.0
 10
650.9154223389696
 20
-957.4518311712254
 30
0.0
 10
649.8352725968734
 20
-957.2856503869607
 30
0.0
 10
648.6720578182712
 20
-957.03640456619
 30
0.0
 10
647.3427129666607
 20
-957.1194696026942
 30
0.0
 10
645.9303030785441
 20
-957.5348962077314
 30
0.0
 10
643.5208084848364
 20
-958.1165035970316
 30
0.0
 10
641.9421671011987
 20
-959.1135375913673
 30
0.0
 10
641.1113138911278
 20
-960.5259474794839
 30
0.0
 10
639.6157375439961
 20
-962.7692612889259
 30
0.0
 10
639.532672507491
 20
-965.095640134874
 30
0.0
 10
640.7789523225974
 20
-967.338953944316
 30
0.0
 10
641.3605090006431
 20
-968.4190529751577
 30
0.0
 10
642.27452866973
 20
-969.2499061852286
 30
0.0
 10
643.6038735213406
 20
-969.8315135745288
 30
0.0
 10
644.850153336447
 20
-970.4131209638308
 30
0.0
 10
647.1765828936504
 20
-971.0777933896352
 30
0.0
 10
650.4168292749182
 20
-971.8255815632019
 30
0.0
 10
653.6571770786977
 20
-972.4902539890081
 30
0.0
 10
655.2358184623345
 20
-973.6534687676085
 30
0.0
 10
655.2358184623345
 20
-975.2320594399898
 30
0.0
 10
655.2358184623345
 20
-976.1459776865668
 30
0.0
 10
654.820391857299
 20
-976.8937658601317
 30
0.0
 10
653.906473610723
 20
-977.4753732494337
 30
0.0
 10
652.9925553641469
 20
-978.1400456752381
 30
0.0
 10
651.5800440535204
 20
-978.3892914960088
 30
0.0
 10
649.8352725968734
 20
-978.2231614229986
 30
0.0
 10
648.0905011402265
 20
-978.0569806387339
 30
0.0
 10
646.677989829599
 20
-977.6415540336984
 30
0.0
 10
645.5979415100137
 20
-976.8107008236275
 30
0.0
 10
644.5177917679166
 20
-975.9798476135566
 30
0.0
 10
643.6869385578457
 20
-974.7335677984502
 30
0.0
 10
643.1053818798009
 20
-973.0718613783083
 30
0.0
 10
642.7730203112696
 20
-972.0748273839727
 30
0.0
 10
642.3575937062342
 20
-971.4932199946707
 30
0.0
 10
642.0252321377038
 20
-971.4101549581665
 30
0.0
 10
640.9450823956076
 20
-971.2439741739017
 30
0.0
 10
640.363525717562
 20
-971.4932199946707
 30
0.0
 10
640.1973956445527
 20
-972.1579431317332
 30
0.0
 10
639.6989040030121
 20
-974.7335677984502
 30
0.0
 10
639.6989040030121
 20
-977.3092431764235
 30
0.0
 10
640.1973956445527
 20
-979.8848678431405
 30
0.0
 10
640.2804606810569
 20
-980.3002944481759
 30
0.0
 10
640.6128222495881
 20
-980.5495402689467
 30
0.0
 10
641.1943789276329
 20
-980.5495402689467
 30
0.0
 10
641.9421671011987
 20
-980.5495402689467
 30
0.0
 10
642.5237237792444
 20
-980.1341136639112
 30
0.0
 10
643.1053818798009
 20
-979.2201954173361
 30
0.0
 10
643.2715119528102
 20
-978.9709495965653
 30
0.0
 10
643.8531700533667
 20
-979.1371303808301
 30
0.0
 10
644.9332183729521
 20
-979.7186870588757
 30
0.0
 10
647.0103513981294
 20
-980.7987860897174
 30
0.0
 10
649.0874844233067
 20
-981.2142126947529
 30
0.0
 10
651.3307475214942
 20
-981.1311476582468
 30
0.0
 10
653.9894372247172
 20
-980.9649668739821
 30
0.0
 10
655.9004401768843
 20
-980.3002944481759
 30
0.0
 10
657.2297850284958
 20
-979.0540146330695
 30
0.0
 10
658.4760648436022
 20
-977.8907998544692
 30
0.0
 10
659.1407879806629
 20
-976.2290934343273
 30
0.0
 10
659.1407879806629
 20
-974.15196040915
 30
0.0
 10
658.9745564851428
 20
-971.7424658154414
 30
0.0
 10
658.3929998070971
 20
-970.1638244318037
 30
0.0
 10
657.1467199919907
 20
-969.0837254009639
 30
0.0
  0
HATCH
  5
4C
330
45
100
AcDbEntity
  8
Layer 1
 62
    49
420
  4145215
100
AcDbHatch
 10
0.0
 20
0.0
 30
0.0
210
0.0
220
0.0
230
1.0
  2
SOLID
 70
     1
 71
     0
 91
        1
 92
        1
 93
        1
 72
     4
 94
        3
 73
     0
 74
     1
 95
      116
 96
      112
 40
0.0
 40
0.0
 40
0.0
 40
0.0
 40
1.0
 40
1.0
 40
1.0
 40
2.0
 40
2.0
 40
2.0
 40
3.0
 40
3.0
 40
3.0
 40
4.0
 40
4.0
 40
4.0
 40
5.0
 40
5.0
 40
5.0
 40
6.0
 40
6.0
 40
6.0
 40
7.0
 40
7.0
 40
7.0
 40
8.0
 40
8.0
 40
8.0
 40
9.0
 40
9.0
 40
9.0
 40
10.0
 40
10.0
 40
10.0
 40
11.0
 40
11.0
 40
11.0
 40
12.0
 40
12.0
 40
12.0
 40
13.0
 40
13.0
 40
13.0
 40
14.0
 40
14.0
 40
14.0
 40
15.0
 40
15.0
 40
15.0
 40
16.0
 40
16.0
 40
16.0
 40
17.0
 40
17.0
 40
17.0
 40
18.0
 40
18.0
 40
18.0
 40
19.0
 40
19.0
 40
19.0
 40
20.0
 40
20.0
 40
20.0
 40
21.0
 40
21.0
 40
21.0
 40
22.0
 40
22.0
 40
22.0
 40
23.0
 40
23.0
 40
23.0
 40
24.0
 40
24.0
 40
24.0
 40
25.0
 40
25.0
 40
25.0
 40
26.0
 40
26.0
 40
26.0
 40
27.0
 40
27.0
 40
27.0
 40
28.0
 40
28.0
 40
28.0
 40
29.0
 40
29.0
 40
29.0
 40
30.0
 40
30.0
 40
30.0
 40
31.0
 40
31.0
 40
31.0
 40
32.0
 40
32.0
 40
32.0
 40
33.0
 40
33.0
 40
33.0
 40
34.0
 40
34.0
 40
34.0
 40
35.0
 40
35.0
 40
35.0
 40
36.0
 40
36.0
 40
36.0
 40
37.0
 40
37.0
 40
37.0
 40
37.0
 10
657.1467199919907
 20
-969.0837254009639
 10
656.0665702498945
 20
-968.0866914066264
 10
654.2387337567425
 20
-967.2558381965555
 10
651.8292391630348
 20
-966.7573465550158
 10
651.8292391630348
 20
-966.7573465550158
 10
648.5058263227511
 20
-966.0095583814491
 10
648.5058263227511
 20
-966.0095583814491
 10
646.5948233705831
 20
-965.5941317764136
 10
645.3485435554767
 20
-965.095640134874
 10
644.7669868774319
 20
-964.5140327455738
 10
644.1022637403703
 20
-963.9324253562718
 10
643.936133667361
 20
-963.1846878939614
 10
644.1854301993862
 20
-962.2707189361299
 10
644.3515602723965
 20
-961.3568006895548
 10
644.7669868774319
 20
-960.7751933002546
 10
645.3486449779875
 20
-960.4428317317233
 10
645.9302016560332
 20
-960.1104701631921
 10
646.9272863616252
 20
-959.9443400901837
 10
648.2566312132358
 20
-959.9443400901837
 10
651.1646174484849
 20
-959.9443400901837
 10
653.3248155101664
 20
-961.439865726059
 10
654.820391857299
 20
-964.4309677090678
 10
654.820391857299
 20
-964.4309677090678
 10
655.5681800308648
 20
-966.0096090927054
 10
655.5681800308648
 20
-966.0096090927054
 10
656.2329031679255
 20
-966.0096090927054
 10
656.8975248824763
 20
-966.0926741292096
 10
657.562248019537
 20
-966.1757898769702
 10
657.562248019537
 20
-966.1757898769702
 10
657.7283780925472
 20
-965.0956908461303
 10
657.7283780925472
 20
-965.0956908461303
 10
657.8114431290523
 20
-964.3479026725636
 10
657.8945081655565
 20
-962.935492784447
 10
657.9776746245725
 20
-961.0244898322799
 10
657.9776746245725
 20
-961.0244898322799
 10
658.1438046975827
 20
-958.0334385605256
 10
658.1438046975827
 20
-958.0334385605256
 10
658.1438046975827
 20
-958.0334385605256
 10
657.4790815605211
 20
-957.8672577762609
 10
657.4790815605211
 20
-957.8672577762609
 10
656.6482283504502
 20
-957.7010769919962
 10
655.9835052133894
 20
-957.9503228127669
 10
655.4019485353438
 20
-958.6150459498276
 10
655.4019485353438
 20
-958.6150459498276
 10
654.820391857299
 20
-959.2797183756338
 10
654.820391857299
 20
-959.2797183756338
 10
654.820391857299
 20
-959.2797183756338
 10
653.1586854371571
 20
-958.4488651655611
 10
653.1586854371571
 20
-958.4488651655611
 10
651.9954706585559
 20
-957.8672577762609
 10
650.9154223389696
 20
-957.4518311712254
 10
649.8352725968734
 20
-957.2856503869607
 10
648.6720578182712
 20
-957.03640456619
 10
647.3427129666607
 20
-957.1194696026942
 10
645.9303030785441
 20
-957.5348962077314
 10
643.5208084848364
 20
-958.1165035970316
 10
641.9421671011987
 20
-959.1135375913673
 10
641.1113138911278
 20
-960.5259474794839
 10
639.6157375439961
 20
-962.7692612889259
 10
639.532672507491
 20
-965.095640134874
 10
640.7789523225974
 20
-967.338953944316
 10
641.3605090006431
 20
-968.4190529751577
 10
642.27452866973
 20
-969.2499061852286
 10
643.6038735213406
 20
-969.8315135745288
 10
644.850153336447
 20
-970.4131209638308
 10
647.1765828936504
 20
-971.0777933896352
 10
650.4168292749182
 20
-971.8255815632019
 10
653.6571770786977
 20
-972.4902539890081
 10
655.2358184623345
 20
-973.6534687676085
 10
655.2358184623345
 20
-975.2320594399898
 10
655.2358184623345
 20
-976.1459776865668
 10
654.820391857299
 20
-976.8937658601317
 10
653.906473610723
 20
-977.4753732494337
 10
652.9925553641469
 20
-978.1400456752381
 10
651.5800440535204
 20
-978.3892914960088
 10
649.8352725968734
 20
-978.2231614229986
 10
648.0905011402265
 20
-978.0569806387339
 10
646.677989829599
 20
-977.6415540336984
 10
645.5979415100137
 20
-976.8107008236275
 10
644.5177917679166
 20
-975.9798476135566
 10
643.6869385578457
 20
-974.7335677984502
 10
643.1053818798009
 20
-973.0718613783083
 10
642.7730203112696
 20
-972.0748273839727
 10
642.3575937062342
 20
-971.4932199946707
 10
642.0252321377038
 20
-971.4101549581665
 10
640.9450823956076
 20
-971.2439741739017
 10
640.363525717562
 20
-971.4932199946707
 10
640.1973956445527
 20
-972.1579431317332
 10
639.6989040030121
 20
-974.7335677984502
 10
639.6989040030121
 20
-977.3092431764235
 10
640.1973956445527
 20
-979.8848678431405
 10
640.2804606810569
 20
-980.3002944481759
 10
640.6128222495881
 20
-980.5495402689467
 10
641.1943789276329
 20
-980.5495402689467
 10
641.9421671011987
 20
-980.5495402689467
 10
642.5237237792444
 20
-980.1341136639112
 10
643.1053818798009
 20
-979.2201954173361
 10
643.2715119528102
 20
-978.9709495965653
 10
643.8531700533667
 20
-979.1371303808301
 10
644.9332183729521
 20
-979.7186870588757
 10
647.0103513981294
 20
-980.7987860897174
 10
649.0874844233067
 20
-981.2142126947529
 10
651.3307475214942
 20
-981.1311476582468
 10
653.9894372247172
 20
-980.9649668739821
 10
655.9004401768843
 20
-980.3002944481759
 10
657.2297850284958
 20
-979.0540146330695
 10
658.4760648436022
 20
-977.8907998544692
 10
659.1407879806629
 20
-976.2290934343273
 10
659.1407879806629
 20
-974.15196040915
 10
658.9745564851428
 20
-971.7424658154414
 10
658.3929998070971
 20
-970.1638244318037
 10
657.1467199919907
 20
-969.0837254009639
 97
        0
 97
        0
 75
     2
 76
     1
 98
        0
  0
SPLINE
  5
4D
330
45
100
AcDbEntity
  8
Layer 1
370
     0
100
AcDbSpline
210
0.0
220
0.0
230
1.0
 70
    11
 71
     3
 72
   149
 73
   145
 74
     0
 42
0.0000000001
 43
0.0000000001
 12
1.0
 22
0.0
 32
0.0
 13
1.0
 23
0.0
 33
0.0
 40
0.0
 40
0.0
 40
0.0
 40
0.0
 40
1.0
 40
1.0
 40
1.0
 40
2.0
 40
2.0
 40
2.0
 40
3.0
 40
3.0
 40
3.0
 40
4.0
 40
4.0
 40
4.0
 40
5.0
 40
5.0
 40
5.0
 40
6.0
 40
6.0
 40
6.0
 40
7.0
 40
7.0
 40
7.0
 40
8.0
 40
8.0
 40
8.0
 40
9.0
 40
9.0
 40
9.0
 40
10.0
 40
10.0
 40
10.0
 40
11.0
 40
11.0
 40
11.0
 40
12.0
 40
12.0
 40
12.0
 40
13.0
 40
13.0
 40
13.0
 40
14.0
 40
14.0
 40
14.0
 40
15.0
 40
15.0
 40
15.0
 40
16.0
 40
16.0
 40
16.0
 40
17.0
 40
17.0
 40
17.0
 40
18.0
 40
18.0
 40
18.0
 40
19.0
 40
19.0
 40
19.0
 40
20.0
 40
20.0
 40
20.0
 40
21.0
 40
21.0
 40
21.0
 40
22.0
 40
22.0
 40
22.0
 40
23.0
 40
23.0
 40
23.0
 40
24.0
 40
24.0
 40
24.0
 40
25.0
 40
25.0
 40
25.0
 40
26.0
 40
26.0
 40
26.0
 40
27.0
 40
27.0
 40
27.0
 40
28.0
 40
28.0
 40
28.0
 40
29.0
 40
29.0
 40
29.0
 40
30.0
 40
30.0
 40
30.0
 40
31.0
 40
31.0
 40
31.0
 40
32.0
 40
32.0
 40
32.0
 40
33.0
 40
33.0
 40
33.0
 40
34.0
 40
34.0
 40
34.0
 40
35.0
 40
35.0
 40
35.0
 40
36.0
 40
36.0
 40
36.0
 40
37.0
 40
37.0
 40
37.0
 40
38.0
 40
38.0
 40
38.0
 40
39.0
 40
39.0
 40
39.0
 40
40.0
 40
40.0
 40
40.0
 40
41.0
 40
41.0
 40
41.0
 40
42.0
 40
42.0
 40
42.0
 40
43.0
 40
43.0
 40
43.0
 40
44.0
 40
44.0
 40
44.0
 40
45.0
 40
45.0
 40
45.0
 40
46.0
 40
46.0
 40
46.0
 40
47.0
 40
47.0
 40
47.0
 40
48.0
 40
48.0
 40
48.0
 40
48.0
 10
893.358226761653
 20
-735.8632191917986
 30
0.0
 10
893.2751617251488
 20
-735.2816118024984
 30
0.0
 10
893.0258651931217
 20
-734.9492755895953
 30
0.0
 10
892.6104385880863
 20
-734.866185197463
 30
0.0
 10
892.2780770195568
 20
-734.7830948053306
 30
0.0
 10
891.8626504145213
 20
-734.7830948053306
 30
0.0
 10
891.5302888459901
 20
-734.866185197463
 30
0.0
 10
891.1979272774588
 20
-734.9492755895953
 30
0.0
 10
890.9487321679444
 20
-735.2816118024984
 30
0.0
 10
890.7825006724233
 20
-735.7801287996663
 30
0.0
 10
890.6994356359191
 20
-736.3617361889674
 30
0.0
 10
890.5332041403981
 20
-737.1925893990383
 30
0.0
 10
890.2840090308837
 20
-738.272688429879
 30
0.0
 10
890.0347124988584
 20
-739.4358778528531
 30
0.0
 10
889.536220857317
 20
-740.3498214550564
 30
0.0
 10
889.0377292157773
 20
-740.9314288443575
 30
0.0
 10
888.5392375742376
 20
-741.5130362336577
 30
0.0
 10
887.9575794736811
 20
-741.8453724465608
 30
0.0
 10
887.3760227956354
 20
-742.0115278751982
 30
0.0
 10
886.7944661175898
 20
-742.1777086594639
 30
0.0
 10
885.2158247339539
 20
-742.260773695969
 30
0.0
 10
882.6402000672351
 20
-742.260773695969
 30
0.0
 10
882.6402000672351
 20
-742.260773695969
 30
0.0
 10
878.7352305489057
 20
-742.260773695969
 30
0.0
 10
878.7352305489057
 20
-742.260773695969
 30
0.0
 10
878.7352305489057
 20
-742.260773695969
 30
0.0
 10
878.7352305489057
 20
-734.035331987392
 30
0.0
 10
878.7352305489057
 20
-734.035331987392
 30
0.0
 10
878.7352305489057
 20
-734.035331987392
 30
0.0
 10
880.2308068960392
 20
-734.035331987392
 30
0.0
 10
880.2308068960392
 20
-734.035331987392
 30
0.0
 10
881.4770867111456
 20
-734.035331987392
 30
0.0
 10
882.3079399212165
 20
-734.2015127716568
 30
0.0
 10
882.723366526252
 20
-734.6169393766922
 30
0.0
 10
883.1387931312875
 20
-734.9492755895953
 30
0.0
 10
883.3880896633127
 20
-735.7801287996663
 30
0.0
 10
883.5542197363229
 20
-737.109499006905
 30
0.0
 10
883.7203498093313
 20
-737.940352216976
 30
0.0
 10
883.8035162683482
 20
-738.3557788220114
 30
0.0
 10
883.8865813048524
 20
-738.4388692141447
 30
0.0
 10
883.9696463413584
 20
-738.521959606277
 30
0.0
 10
884.3850729463938
 20
-738.6050499984094
 30
0.0
 10
884.9667310469504
 20
-738.6050499984094
 30
0.0
 10
885.5483891475051
 20
-738.6050499984094
 30
0.0
 10
885.9637143300297
 20
-738.521959606277
 30
0.0
 10
886.0468807890466
 20
-738.4388692141447
 30
0.0
 10
886.1299458255507
 20
-738.3557788220114
 30
0.0
 10
886.2130108620568
 20
-736.6940724018696
 30
0.0
 10
886.2961773210718
 20
-733.5368403458515
 30
0.0
 10
886.379242357576
 20
-730.3796082898334
 30
0.0
 10
886.379242357576
 20
-728.4686306932936
 30
0.0
 10
886.2131122845676
 20
-727.8870486596206
 30
0.0
 10
886.1300472480616
 20
-727.3054412703195
 30
0.0
 10
885.8807507160363
 20
-726.9731050574164
 30
0.0
 10
885.4653241110009
 20
-726.8900146652841
 30
0.0
 10
885.1329625424696
 20
-726.8069242731508
 30
0.0
 10
884.7175359374341
 20
-726.8069242731508
 30
0.0
 10
884.3851743689047
 20
-726.8900146652841
 30
0.0
 10
883.9697477638692
 20
-726.9731050574164
 30
0.0
 10
883.720451231844
 20
-727.3054412703195
 30
0.0
 10
883.637386195338
 20
-727.8039582674874
 30
0.0
 10
883.4712561223278
 20
-729.0502380825938
 30
0.0
 10
883.1388945537983
 20
-729.964181684798
 30
0.0
 10
882.6404029122568
 20
-730.4626986819658
 30
0.0
 10
882.3911063802316
 20
-730.7950348948689
 30
0.0
 10
881.6434196291775
 20
-730.9612156791336
 30
0.0
 10
880.4802048505753
 20
-730.9612156791336
 30
0.0
 10
880.4802048505753
 20
-730.9612156791336
 30
0.0
 10
878.7354333939293
 20
-730.9612156791336
 30
0.0
 10
878.7354333939293
 20
-730.9612156791336
 30
0.0
 10
878.7354333939293
 20
-730.9612156791336
 30
0.0
 10
878.7354333939293
 20
-723.5666271806276
 30
0.0
 10
878.7354333939293
 20
-723.5666271806276
 30
0.0
 10
878.7354333939293
 20
-723.5666271806276
 30
0.0
 10
882.7235693712737
 20
-723.7328079648933
 30
0.0
 10
882.7235693712737
 20
-723.7328079648933
 30
0.0
 10
886.0469822115574
 20
-723.8158983570256
 30
0.0
 10
888.1241152367347
 20
-724.2313249620611
 30
0.0
 10
889.0380334833098
 20
-725.062178172132
 30
0.0
 10
889.5365251248513
 20
-725.5606951693007
 30
0.0
 10
889.9519517298868
 20
-726.3084579872384
 30
0.0
 10
890.201248261912
 20
-727.3885570180801
 30
0.0
 10
890.5336098304433
 20
-728.5517464410532
 30
0.0
 10
890.6997399034517
 20
-729.2995092589917
 30
0.0
 10
890.7828049399577
 20
-729.7980262561596
 30
0.0
 10
890.8658699764619
 20
-730.2965432533283
 30
0.0
 10
891.1151665084872
 20
-730.6288794662305
 30
0.0
 10
891.5305931135226
 20
-730.6288794662305
 30
0.0
 10
891.8629546820539
 20
-730.7119698583638
 30
0.0
 10
892.2783812870894
 20
-730.7119698583638
 30
0.0
 10
892.6107428556206
 20
-730.6288794662305
 30
0.0
 10
893.0261694606561
 20
-730.5457890740981
 30
0.0
 10
893.2754659926813
 20
-730.1303624690627
 30
0.0
 10
893.2754659926813
 20
-729.4656900432574
 30
0.0
 10
893.3585310291855
 20
-728.7179272253188
 30
0.0
 10
893.4415960656916
 20
-727.2223762338144
 30
0.0
 10
893.3585310291855
 20
-724.8959973878673
 30
0.0
 10
893.2754659926813
 20
-722.5696185419192
 30
0.0
 10
893.1924009561753
 20
-721.3233387268128
 30
0.0
 10
893.1092344971603
 20
-721.2402483346805
 30
0.0
 10
893.0261694606561
 20
-721.1571579425481
 30
0.0
 10
889.2873300153369
 20
-721.0740675504148
 30
0.0
 10
881.8927161612028
 20
-720.9910025139106
 30
0.0
 10
874.4981023070686
 20
-720.9910025139106
 30
0.0
 10
870.510067752235
 20
-720.9910025139106
 30
0.0
 10
870.0114746881845
 20
-721.074092906043
 30
0.0
 10
869.346751551122
 20
-721.1571832981754
 30
0.0
 10
869.0975564416076
 20
-721.8218557239816
 30
0.0
 10
869.346751551122
 20
-722.9019801104496
 30
0.0
 10
869.429816587628
 20
-723.2343163233527
 30
0.0
 10
869.7621781561575
 20
-723.4835874997507
 30
0.0
 10
870.3437348342031
 20
-723.5666525362558
 30
0.0
 10
872.005441254345
 20
-723.8158983570256
 30
0.0
 10
873.0024245374261
 20
-724.148259925556
 30
0.0
 10
873.2517210694514
 20
-724.6467515670965
 30
0.0
 10
873.4178511424616
 20
-724.9790877799996
 30
0.0
 10
873.5010176014766
 20
-727.7209185866104
 30
0.0
 10
873.5010176014766
 20
-732.7891028835411
 30
0.0
 10
873.5010176014766
 20
-737.8572871804718
 30
0.0
 10
873.4179525649724
 20
-740.5991179870825
 30
0.0
 10
873.2517210694514
 20
-741.1807253763827
 30
0.0
 10
873.0024245374261
 20
-741.9284881943213
 30
0.0
 10
872.1715713273552
 20
-742.3439147993568
 30
0.0
 10
870.7591614392386
 20
-742.4270051914891
 30
0.0
 10
870.0113732656719
 20
-742.5100955836224
 30
0.0
 10
869.5959466606364
 20
-742.5931859757547
 30
0.0
 10
869.5128816241322
 20
-742.6762510122599
 30
0.0
 10
869.429816587628
 20
-742.7593414043922
 30
0.0
 10
869.346751551122
 20
-743.0916776172953
 30
0.0
 10
869.346751551122
 20
-743.7563500431006
 30
0.0
 10
869.346751551122
 20
-744.4210224689068
 30
0.0
 10
869.429816587628
 20
-744.7533840374372
 30
0.0
 10
869.5128816241322
 20
-744.8364490739423
 30
0.0
 10
869.5959466606364
 20
-744.9195394660746
 30
0.0
 10
873.5840826379826
 20
-745.002629858207
 30
0.0
 10
881.3109566381354
 20
-745.002629858207
 30
0.0
 10
889.037932060799
 20
-745.002629858207
 30
0.0
 10
893.0259666156326
 20
-744.9195394660746
 30
0.0
 10
893.1090316521386
 20
-744.8364490739423
 30
0.0
 10
893.1920966886428
 20
-744.753358681809
 30
0.0
 10
893.2751617251488
 20
-743.3409234380651
 30
0.0
 10
893.3583281841638
 20
-740.76527341572
 30
0.0
 10
893.441393220668
 20
-738.1065330012416
 30
0.0
 10
893.441393220668
 20
-736.4448265810997
 30
0.0
 10
893.358226761653
 20
-735.8632191917986
 30
0.0
  0
HATCH
  5
4E
330
45
100
AcDbEntity
  8
Layer 1
 62
    49
420
  4145215
100
AcDbHatch
 10
0.0
 20
0.0
 30
0.0
210
0.0
220
0.0
230
1.0
  2
SOLID
 70
     1
 71
     0
 91
        1
 92
        1
 93
        1
 72
     4
 94
        3
 73
     0
 74
     1
 95
      149
 96
      145
 40
0.0
 40
0.0
 40
0.0
 40
0.0
 40
1.0
 40
1.0
 40
1.0
 40
2.0
 40
2.0
 40
2.0
 40
3.0
 40
3.0
 40
3.0
 40
4.0
 40
4.0
 40
4.0
 40
5.0
 40
5.0
 40
5.0
 40
6.0
 40
6.0
 40
6.0
 40
7.0
 40
7.0
 40
7.0
 40
8.0
 40
8.0
 40
8.0
 40
9.0
 40
9.0
 40
9.0
 40
10.0
 40
10.0
 40
10.0
 40
11.0
 40
11.0
 40
11.0
 40
12.0
 40
12.0
 40
12.0
 40
13.0
 40
13.0
 40
13.0
 40
14.0
 40
14.0
 40
14.0
 40
15.0
 40
15.0
 40
15.0
 40
16.0
 40
16.0
 40
16.0
 40
17.0
 40
17.0
 40
17.0
 40
18.0
 40
18.0
 40
18.0
 40
19.0
 40
19.0
 40
19.0
 40
20.0
 40
20.0
 40
20.0
 40
21.0
 40
21.0
 40
21.0
 40
22.0
 40
22.0
 40
22.0
 40
23.0
 40
23.0
 40
23.0
 40
24.0
 40
24.0
 40
24.0
 40
25.0
 40
25.0
 40
25.0
 40
26.0
 40
26.0
 40
26.0
 40
27.0
 40
27.0
 40
27.0
 40
28.0
 40
28.0
 40
28.0
 40
29.0
 40
29.0
 40
29.0
 40
30.0
 40
30.0
 40
30.0
 40
31.0
 40
31.0
 40
31.0
 40
32.0
 40
32.0
 40
32.0
 40
33.0
 40
33.0
 40
33.0
 40
34.0
 40
34.0
 40
34.0
 40
35.0
 40
35.0
 40
35.0
 40
36.0
 40
36.0
 40
36.0
 40
37.0
 40
37.0
 40
37.0
 40
38.0
 40
38.0
 40
38.0
 40
39.0
 40
39.0
 40
39.0
 40
40.0
 40
40.0
 40
40.0
 40
41.0
 40
41.0
 40
41.0
 40
42.0
 40
42.0
 40
42.0
 40
43.0
 40
43.0
 40
43.0
 40
44.0
 40
44.0
 40
44.0
 40
45.0
 40
45.0
 40
45.0
 40
46.0
 40
46.0
 40
46.0
 40
47.0
 40
47.0
 40
47.0
 40
48.0
 40
48.0
 40
48.0
 40
48.0
 10
893.358226761653
 20
-735.8632191917986
 10
893.2751617251488
 20
-735.2816118024984
 10
893.0258651931217
 20
-734.9492755895953
 10
892.6104385880863
 20
-734.866185197463
 10
892.2780770195568
 20
-734.7830948053306
 10
891.8626504145213
 20
-734.7830948053306
 10
891.5302888459901
 20
-734.866185197463
 10
891.1979272774588
 20
-734.9492755895953
 10
890.9487321679444
 20
-735.2816118024984
 10
890.7825006724233
 20
-735.7801287996663
 10
890.6994356359191
 20
-736.3617361889674
 10
890.5332041403981
 20
-737.1925893990383
 10
890.2840090308837
 20
-738.272688429879
 10
890.0347124988584
 20
-739.4358778528531
 10
889.536220857317
 20
-740.3498214550564
 10
889.0377292157773
 20
-740.9314288443575
 10
888.5392375742376
 20
-741.5130362336577
 10
887.9575794736811
 20
-741.8453724465608
 10
887.3760227956354
 20
-742.0115278751982
 10
886.7944661175898
 20
-742.1777086594639
 10
885.2158247339539
 20
-742.260773695969
 10
882.6402000672351
 20
-742.260773695969
 10
882.6402000672351
 20
-742.260773695969
 10
878.7352305489057
 20
-742.260773695969
 10
878.7352305489057
 20
-742.260773695969
 10
878.7352305489057
 20
-742.260773695969
 10
878.7352305489057
 20
-734.035331987392
 10
878.7352305489057
 20
-734.035331987392
 10
878.7352305489057
 20
-734.035331987392
 10
880.2308068960392
 20
-734.035331987392
 10
880.2308068960392
 20
-734.035331987392
 10
881.4770867111456
 20
-734.035331987392
 10
882.3079399212165
 20
-734.2015127716568
 10
882.723366526252
 20
-734.6169393766922
 10
883.1387931312875
 20
-734.9492755895953
 10
883.3880896633127
 20
-735.7801287996663
 10
883.5542197363229
 20
-737.109499006905
 10
883.7203498093313
 20
-737.940352216976
 10
883.8035162683482
 20
-738.3557788220114
 10
883.8865813048524
 20
-738.4388692141447
 10
883.9696463413584
 20
-738.521959606277
 10
884.3850729463938
 20
-738.6050499984094
 10
884.9667310469504
 20
-738.6050499984094
 10
885.5483891475051
 20
-738.6050499984094
 10
885.9637143300297
 20
-738.521959606277
 10
886.0468807890466
 20
-738.4388692141447
 10
886.1299458255507
 20
-738.3557788220114
 10
886.2130108620568
 20
-736.6940724018696
 10
886.2961773210718
 20
-733.5368403458515
 10
886.379242357576
 20
-730.3796082898334
 10
886.379242357576
 20
-728.4686306932936
 10
886.2131122845676
 20
-727.8870486596206
 10
886.1300472480616
 20
-727.3054412703195
 10
885.8807507160363
 20
-726.9731050574164
 10
885.4653241110009
 20
-726.8900146652841
 10
885.1329625424696
 20
-726.8069242731508
 10
884.7175359374341
 20
-726.8069242731508
 10
884.3851743689047
 20
-726.8900146652841
 10
883.9697477638692
 20
-726.9731050574164
 10
883.720451231844
 20
-727.3054412703195
 10
883.637386195338
 20
-727.8039582674874
 10
883.4712561223278
 20
-729.0502380825938
 10
883.1388945537983
 20
-729.964181684798
 10
882.6404029122568
 20
-730.4626986819658
 10
882.3911063802316
 20
-730.7950348948689
 10
881.6434196291775
 20
-730.9612156791336
 10
880.4802048505753
 20
-730.9612156791336
 10
880.4802048505753
 20
-730.9612156791336
 10
878.7354333939293
 20
-730.9612156791336
 10
878.7354333939293
 20
-730.9612156791336
 10
878.7354333939293
 20
-730.9612156791336
 10
878.7354333939293
 20
-723.5666271806276
 10
878.7354333939293
 20
-723.5666271806276
 10
878.7354333939293
 20
-723.5666271806276
 10
882.7235693712737
 20
-723.7328079648933
 10
882.7235693712737
 20
-723.7328079648933
 10
886.0469822115574
 20
-723.8158983570256
 10
888.1241152367347
 20
-724.2313249620611
 10
889.0380334833098
 20
-725.062178172132
 10
889.5365251248513
 20
-725.5606951693007
 10
889.9519517298868
 20
-726.3084579872384
 10
890.201248261912
 20
-727.3885570180801
 10
890.5336098304433
 20
-728.5517464410532
 10
890.6997399034517
 20
-729.2995092589917
 10
890.7828049399577
 20
-729.7980262561596
 10
890.8658699764619
 20
-730.2965432533283
 10
891.1151665084872
 20
-730.6288794662305
 10
891.5305931135226
 20
-730.6288794662305
 10
891.8629546820539
 20
-730.7119698583638
 10
892.2783812870894
 20
-730.7119698583638
 10
892.6107428556206
 20
-730.6288794662305
 10
893.0261694606561
 20
-730.5457890740981
 10
893.2754659926813
 20
-730.1303624690627
 10
893.2754659926813
 20
-729.4656900432574
 10
893.3585310291855
 20
-728.7179272253188
 10
893.4415960656916
 20
-727.2223762338144
 10
893.3585310291855
 20
-724.8959973878673
 10
893.2754659926813
 20
-722.5696185419192
 10
893.1924009561753
 20
-721.3233387268128
 10
893.1092344971603
 20
-721.2402483346805
 10
893.0261694606561
 20
-721.1571579425481
 10
889.2873300153369
 20
-721.0740675504148
 10
881.8927161612028
 20
-720.9910025139106
 10
874.4981023070686
 20
-720.9910025139106
 10
870.510067752235
 20
-720.9910025139106
 10
870.0114746881845
 20
-721.074092906043
 10
869.346751551122
 20
-721.1571832981754
 10
869.0975564416076
 20
-721.8218557239816
 10
869.346751551122
 20
-722.9019801104496
 10
869.429816587628
 20
-723.2343163233527
 10
869.7621781561575
 20
-723.4835874997507
 10
870.3437348342031
 20
-723.5666525362558
 10
872.005441254345
 20
-723.8158983570256
 10
873.0024245374261
 20
-724.148259925556
 10
873.2517210694514
 20
-724.6467515670965
 10
873.4178511424616
 20
-724.9790877799996
 10
873.5010176014766
 20
-727.7209185866104
 10
873.5010176014766
 20
-732.7891028835411
 10
873.5010176014766
 20
-737.8572871804718
 10
873.4179525649724
 20
-740.5991179870825
 10
873.2517210694514
 20
-741.1807253763827
 10
873.0024245374261
 20
-741.9284881943213
 10
872.1715713273552
 20
-742.3439147993568
 10
870.7591614392386
 20
-742.4270051914891
 10
870.0113732656719
 20
-742.5100955836224
 10
869.5959466606364
 20
-742.5931859757547
 10
869.5128816241322
 20
-742.6762510122599
 10
869.429816587628
 20
-742.7593414043922
 10
869.346751551122
 20
-743.0916776172953
 10
869.346751551122
 20
-743.7563500431006
 10
869.346751551122
 20
-744.4210224689068
 10
869.429816587628
 20
-744.7533840374372
 10
869.5128816241322
 20
-744.8364490739423
 10
869.5959466606364
 20
-744.9195394660746
 10
873.5840826379826
 20
-745.002629858207
 10
881.3109566381354
 20
-745.002629858207
 10
889.037932060799
 20
-745.002629858207
 10
893.0259666156326
 20
-744.9195394660746
 10
893.1090316521386
 20
-744.8364490739423
 10
893.1920966886428
 20
-744.753358681809
 10
893.2751617251488
 20
-743.3409234380651
 10
893.3583281841638
 20
-740.76527341572
 10
893.441393220668
 20
-738.1065330012416
 10
893.441393220668
 20
-736.4448265810997
 10
893.358226761653
 20
-735.8632191917986
 97
        0
 97
        0
 75
     2
 76
     1
 98
        0
  0
SPLINE
  5
4F
330
45
100
AcDbEntity
  8
Layer 1
370
     0
100
AcDbSpline
210
0.0
220
0.0
230
1.0
 70
    11
 71
     3
 72
   173
 73
   169
 74
     0
 42
0.0000000001
 43
0.0000000001
 12
1.0
 22
0.0
 32
0.0
 13
1.0
 23
0.0
 33
0.0
 40
0.0
 40
0.0
 40
0.0
 40
0.0
 40
1.0
 40
1.0
 40
1.0
 40
2.0
 40
2.0
 40
2.0
 40
3.0
 40
3.0
 40
3.0
 40
4.0
 40
4.0
 40
4.0
 40
5.0
 40
5.0
 40
5.0
 40
6.0
 40
6.0
 40
6.0
 40
7.0
 40
7.0
 40
7.0
 40
8.0
 40
8.0
 40
8.0
 40
9.0
 40
9.0
 40
9.0
 40
10.0
 40
10.0
 40
10.0
 40
11.0
 40
11.0
 40
11.0
 40
12.0
 40
12.0
 40
12.0
 40
13.0
 40
13.0
 40
13.0
 40
14.0
 40
14.0
 40
14.0
 40
15.0
 40
15.0
 40
15.0
 40
16.0
 40
16.0
 40
16.0
 40
17.0
 40
17.0
 40
17.0
 40
18.0
 40
18.0
 40
18.0
 40
19.0
 40
19.0
 40
19.0
 40
20.0
 40
20.0
 40
20.0
 40
21.0
 40
21.0
 40
21.0
 40
22.0
 40
22.0
 40
22.0
 40
23.0
 40
23.0
 40
23.0
 40
24.0
 40
24.0
 40
24.0
 40
25.0
 40
25.0
 40
25.0
 40
26.0
 40
26.0
 40
26.0
 40
27.0
 40
27.0
 40
27.0
 40
28.0
 40
28.0
 40
28.0
 40
29.0
 40
29.0
 40
29.0
 40
30.0
 40
30.0
 40
30.0
 40
31.0
 40
31.0
 40
31.0
 40
32.0
 40
32.0
 40
32.0
 40
33.0
 40
33.0
 40
33.0
 40
34.0
 40
34.0
 40
34.0
 40
35.0
 40
35.0
 40
35.0
 40
36.0
 40
36.0
 40
36.0
 40
37.0
 40
37.0
 40
37.0
 40
38.0
 40
38.0
 40
38.0
 40
39.0
 40
39.0
 40
39.0
 40
40.0
 40
40.0
 40
40.0
 40
41.0
 40
41.0
 40
41.0
 40
42.0
 40
42.0
 40
42.0
 40
43.0
 40
43.0
 40
43.0
 40
44.0
 40
44.0
 40
44.0
 40
45.0
 40
45.0
 40
45.0
 40
46.0
 40
46.0
 40
46.0
 40
47.0
 40
47.0
 40
47.0
 40
48.0
 40
48.0
 40
48.0
 40
49.0
 40
49.0
 40
49.0
 40
50.0
 40
50.0
 40
50.0
 40
51.0
 40
51.0
 40
51.0
 40
52.0
 40
52.0
 40
52.0
 40
53.0
 40
53.0
 40
53.0
 40
54.0
 40
54.0
 40
54.0
 40
55.0
 40
55.0
 40
55.0
 40
56.0
 40
56.0
 40
56.0
 40
56.0
 10
428.0804291219256
 20
-720.907861410522
 30
0.0
 10
425.2555079231824
 20
-720.3262540212218
 30
0.0
 10
422.5137531834544
 20
-720.3262540212218
 30
0.0
 10
419.6888319847112
 20
-720.907861410522
 30
0.0
 10
419.3564704161809
 20
-720.9909518026543
 30
0.0
 10
419.107224595411
 20
-721.0740421947876
 30
0.0
 10
419.107224595411
 20
-721.1571072312927
 30
0.0
 10
419.107224595411
 20
-721.240197623425
 30
0.0
 10
419.107224595411
 20
-721.5725338363281
 30
0.0
 10
419.1902896319152
 20
-722.071050833496
 30
0.0
 10
419.2734053796758
 20
-722.8188136514345
 30
0.0
 10
419.3564704161809
 20
-723.1511498643367
 30
0.0
 10
419.439535452686
 20
-723.23424025647
 30
0.0
 10
419.5226004891902
 20
-723.3173306486024
 30
0.0
 10
419.9380270942256
 20
-723.4004210407347
 30
0.0
 10
420.5196851947821
 20
-723.4834860772398
 30
0.0
 10
421.1844083318438
 20
-723.5665764693722
 30
0.0
 10
421.5998349368792
 20
-723.6496668615055
 30
0.0
 10
421.7659650098885
 20
-723.8989126822753
 30
0.0
 10
421.9320950828987
 20
-724.0650934665409
 30
0.0
 10
422.0983265784189
 20
-724.4805200715764
 30
0.0
 10
422.0983265784189
 20
-724.979011713116
 30
0.0
 10
422.0983265784189
 20
-725.4775287102848
 30
0.0
 10
421.5167699003741
 20
-727.8039075562319
 30
0.0
 10
420.3535551217728
 20
-732.0412639987189
 30
0.0
 10
419.1903403431706
 20
-736.1955300490736
 30
0.0
 10
418.5256679173654
 20
-738.2726630742518
 30
0.0
 10
418.4426028808602
 20
-738.2726630742518
 30
0.0
 10
418.3595378443551
 20
-738.2726630742518
 30
0.0
 10
418.2764220965955
 20
-738.1895726821185
 30
0.0
 10
418.1933570600904
 20
-738.023417253481
 30
0.0
 10
417.8609954915601
 20
-736.8602278305079
 30
0.0
 10
417.1963230657539
 20
-734.616914021065
 30
0.0
 10
416.1162240349131
 20
-731.210410788648
 30
0.0
 10
414.8699442198067
 20
-727.1392351304266
 30
0.0
 10
414.2052717940005
 20
-724.8959213209837
 30
0.0
 10
414.2052717940005
 20
-724.3143392873108
 30
0.0
 10
414.2052717940005
 20
-723.8989126822753
 30
0.0
 10
414.8699442198067
 20
-723.6496668615055
 30
0.0
 10
416.1162240349131
 20
-723.4003956851075
 30
0.0
 10
416.6147156764528
 20
-723.3173052929742
 30
0.0
 10
416.947077244984
 20
-723.0680594722044
 30
0.0
 10
417.0301422814891
 20
-722.7357232593013
 30
0.0
 10
417.1132073179933
 20
-722.3202966542658
 30
0.0
 10
417.1132073179933
 20
-721.9879604413636
 30
0.0
 10
417.0301422814891
 20
-721.5725338363281
 30
0.0
 10
416.947077244984
 20
-721.240197623425
 30
0.0
 10
416.6147156764528
 20
-720.990926447027
 30
0.0
 10
416.0331082871526
 20
-720.907861410522
 30
0.0
 10
415.4515008978515
 20
-720.8247710183896
 30
0.0
 10
413.7067294412045
 20
-720.8247710183896
 30
0.0
 10
410.8818082424614
 20
-720.8247710183896
 30
0.0
 10
407.9738220072131
 20
-720.907861410522
 30
0.0
 10
406.4782963713369
 20
-720.9909518026543
 30
0.0
 10
406.3951806235764
 20
-721.0740168391594
 30
0.0
 10
406.3121155870713
 20
-721.1571072312927
 30
0.0
 10
406.2289998393107
 20
-721.4894434441949
 30
0.0
 10
406.2289998393107
 20
-722.1541158700011
 30
0.0
 10
406.2289998393107
 20
-722.8187882958064
 30
0.0
 10
406.3120648758158
 20
-723.1511498643367
 30
0.0
 10
406.3951806235764
 20
-723.2342149008418
 30
0.0
 10
406.4782456600815
 20
-723.3173052929742
 30
0.0
 10
406.7275421921067
 20
-723.4003956851075
 30
0.0
 10
407.3090988701524
 20
-723.4834607216117
 30
0.0
 10
408.2230171167275
 20
-723.5665511137449
 30
0.0
 10
408.8877402537892
 20
-724.3143139316826
 30
0.0
 10
409.3862318953297
 20
-725.560593746789
 30
0.0
 10
409.3862318953297
 20
-725.560593746789
 30
0.0
 10
409.8016585003652
 20
-726.5576277411255
 30
0.0
 10
409.8016585003652
 20
-726.5576277411255
 30
0.0
 10
409.8016585003652
 20
-726.5576277411255
 30
0.0
 10
407.8907062594526
 20
-732.2905098194897
 30
0.0
 10
407.8907062594526
 20
-732.2905098194897
 30
0.0
 10
406.6444264443462
 20
-736.0293492648088
 30
0.0
 10
405.9797540185409
 20
-738.0233918978538
 30
0.0
 10
405.8135732342753
 20
-738.1895726821185
 30
0.0
 10
405.4812116657449
 20
-738.4388185028893
 30
0.0
 10
405.14890080847
 20
-737.7741460770831
 30
0.0
 10
404.650358455674
 20
-736.0293492648088
 30
0.0
 10
403.8195052456031
 20
-732.7890268166575
 30
0.0
 10
403.0717170720372
 20
-729.8810405814093
 30
0.0
 10
402.3239796097268
 20
-727.3053905590641
 30
0.0
 10
402.3239796097268
 20
-727.3053905590641
 30
0.0
 10
401.5761914361601
 20
-724.5635851080806
 30
0.0
 10
401.5761914361601
 20
-724.5635851080806
 30
0.0
 10
401.5761914361601
 20
-724.5635851080806
 30
0.0
 10
402.0746830777007
 20
-724.0650681109128
 30
0.0
 10
402.0746830777007
 20
-724.0650681109128
 30
0.0
 10
402.3239288984714
 20
-723.7327318980097
 30
0.0
 10
402.8224712512665
 20
-723.5665511137449
 30
0.0
 10
403.3209628928071
 20
-723.4834607216117
 30
0.0
 10
403.9025702821082
 20
-723.4003703294793
 30
0.0
 10
404.2348811393831
 20
-723.3172799373469
 30
0.0
 10
404.2348811393831
 20
-723.2342149008418
 30
0.0
 10
404.3179461758882
 20
-723.1511245087095
 30
0.0
 10
404.4010619236487
 20
-722.8187882958064
 30
0.0
 10
404.4010619236487
 20
-722.1541158700011
 30
0.0
 10
404.4010619236487
 20
-721.4894434441949
 30
0.0
 10
404.3179968871436
 20
-721.1570818756645
 30
0.0
 10
404.2348811393831
 20
-721.0740168391594
 30
0.0
 10
404.151816102878
 20
-720.990926447027
 30
0.0
 10
402.5731747192413
 20
-720.9078360548947
 30
0.0
 10
399.4159426632223
 20
-720.9078360548947
 30
0.0
 10
396.2587106072042
 20
-720.9078360548947
 30
0.0
 10
394.5138884393018
 20
-720.9078360548947
 30
0.0
 10
394.0984618342663
 20
-720.990926447027
 30
0.0
 10
393.5168544449662
 20
-721.0740168391594
 30
0.0
 10
393.2676086241954
 20
-721.7386892649656
 30
0.0
 10
393.5168544449662
 20
-722.8188136514345
 30
0.0
 10
393.5999194814704
 20
-723.1511498643367
 30
0.0
 10
393.9322810500016
 20
-723.4004210407347
 30
0.0
 10
394.5138884393018
 20
-723.5665764693722
 30
0.0
 10
395.5939874701435
 20
-723.8158222901429
 30
0.0
 10
396.2586598959488
 20
-724.4805200715764
 30
0.0
 10
396.5910214644791
 20
-725.5606191024171
 30
0.0
 10
396.5910214644791
 20
-725.5606191024171
 30
0.0
 10
399.2497618789575
 20
-734.4507585924275
 30
0.0
 10
399.2497618789575
 20
-734.4507585924275
 30
0.0
 10
400.579106730569
 20
-738.9373608556853
 30
0.0
 10
401.40995994064
 20
-741.9284374830659
 30
0.0
 10
401.908502293436
 20
-743.340898082437
 30
0.0
 10
402.1577481142058
 20
-744.3379320767735
 30
0.0
 10
402.4901096827361
 20
-744.9195141104465
 30
0.0
 10
402.6562904670018
 20
-745.0856948947121
 30
0.0
 10
402.9055362877716
 20
-745.2518756789777
 30
0.0
 10
403.5702087135778
 20
-745.3349407154819
 30
0.0
 10
404.650358455674
 20
-745.3349407154819
 30
0.0
 10
405.9797033072855
 20
-745.3349407154819
 30
0.0
 10
406.8105565173564
 20
-745.1687599312172
 30
0.0
 10
407.0598530493817
 20
-744.9195141104465
 30
0.0
 10
407.3090988701524
 20
-744.6702682896766
 30
0.0
 10
408.0568870437182
 20
-742.7592906931368
 30
0.0
 10
409.3031668588246
 20
-739.10354163995
 30
0.0
 10
410.4663816374259
 20
-735.5308829788964
 30
0.0
 10
411.1310540632321
 20
-733.6199053823566
 30
0.0
 10
411.2972348474968
 20
-733.4537499537191
 30
0.0
 10
411.5464806682676
 20
-733.0383233486837
 30
0.0
 10
411.961907273303
 20
-733.7860861666213
 30
0.0
 10
412.4604496260981
 20
-735.6139733710288
 30
0.0
 10
412.4604496260981
 20
-735.6139733710288
 30
0.0
 10
414.7868284720462
 20
-743.1747426538004
 30
0.0
 10
414.7868284720462
 20
-743.1747426538004
 30
0.0
 10
415.036074292816
 20
-744.1717766481361
 30
0.0
 10
415.3684358613464
 20
-744.753358681809
 30
0.0
 10
415.6176816821171
 20
-745.002629858207
 30
0.0
 10
415.8669275028869
 20
-745.1688106424726
 30
0.0
 10
416.6147156764528
 20
-745.3349660711101
 30
0.0
 10
417.6948147072944
 20
-745.3349660711101
 30
0.0
 10
419.0241595589059
 20
-745.3349660711101
 30
0.0
 10
419.7718970212163
 20
-745.2518756789777
 30
0.0
 10
420.0211935532416
 20
-745.002629858207
 30
0.0
 10
420.2704900852677
 20
-744.7533840374372
 30
0.0
 10
420.6859166903032
 20
-743.5901692588359
 30
0.0
 10
421.267473368348
 20
-741.5130362336577
 30
0.0
 10
421.5167699003741
 20
-740.5990926314544
 30
0.0
 10
422.7630497154805
 20
-736.1124903681966
 30
0.0
 10
425.0893778501722
 20
-728.1362944803905
 30
0.0
 10
425.6709345282179
 20
-726.3914976681153
 30
0.0
 10
426.0032960967483
 20
-725.2283082451422
 30
0.0
 10
426.2525926287744
 20
-724.8128816401068
 30
0.0
 10
426.5018891607997
 20
-724.314364642938
 30
0.0
 10
426.9173157658352
 20
-723.9820284300358
 30
0.0
 10
427.581937480385
 20
-723.7327826092651
 30
0.0
 10
428.4958557269611
 20
-723.3173560042296
 30
0.0
 10
428.9112823319965
 20
-722.6526835784243
 30
0.0
 10
428.6620872224821
 20
-721.6556495840878
 30
0.0
 10
428.7451522589872
 20
-721.240197623425
 30
0.0
 10
428.4958557269611
 20
-720.9909518026543
 30
0.0
 10
428.0804291219256
 20
-720.907861410522
 30
0.0
  0
HATCH
  5
50
330
45
100
AcDbEntity
  8
Layer 1
 62
    49
420
  4145215
100
AcDbHatch
 10
0.0
 20
0.0
 30
0.0
210
0.0
220
0.0
230
1.0
  2
SOLID
 70
     1
 71
     0
 91
        1
 92
        1
 93
        1
 72
     4
 94
        3
 73
     0
 74
     1
 95
      173
 96
      169
 40
0.0
 40
0.0
 40
0.0
 40
0.0
 40
1.0
 40
1.0
 40
1.0
 40
2.0
 40
2.0
 40
2.0
 40
3.0
 40
3.0
 40
3.0
 40
4.0
 40
4.0
 40
4.0
 40
5.0
 40
5.0
 40
5.0
 40
6.0
 40
6.0
 40
6.0
 40
7.0
 40
7.0
 40
7.0
 40
8.0
 40
8.0
 40
8.0
 40
9.0
 40
9.0
 40
9.0
 40
10.0
 40
10.0
 40
10.0
 40
11.0
 40
11.0
 40
11.0
 40
12.0
 40
12.0
 40
12.0
 40
13.0
 40
13.0
 40
13.0
 40
14.0
 40
14.0
 40
14.0
 40
15.0
 40
15.0
 40
15.0
 40
16.0
 40
16.0
 40
16.0
 40
17.0
 40
17.0
 40
17.0
 40
18.0
 40
18.0
 40
18.0
 40
19.0
 40
19.0
 40
19.0
 40
20.0
 40
20.0
 40
20.0
 40
21.0
 40
21.0
 40
21.0
 40
22.0
 40
22.0
 40
22.0
 40
23.0
 40
23.0
 40
23.0
 40
24.0
 40
24.0
 40
24.0
 40
25.0
 40
25.0
 40
25.0
 40
26.0
 40
26.0
 40
26.0
 40
27.0
 40
27.0
 40
27.0
 40
28.0
 40
28.0
 40
28.0
 40
29.0
 40
29.0
 40
29.0
 40
30.0
 40
30.0
 40
30.0
 40
31.0
 40
31.0
 40
31.0
 40
32.0
 40
32.0
 40
32.0
 40
33.0
 40
33.0
 40
33.0
 40
34.0
 40
34.0
 40
34.0
 40
35.0
 40
35.0
 40
35.0
 40
36.0
 40
36.0
 40
36.0
 40
37.0
 40
37.0
 40
37.0
 40
38.0
 40
38.0
 40
38.0
 40
39.0
 40
39.0
 40
39.0
 40
40.0
 40
40.0
 40
40.0
 40
41.0
 40
41.0
 40
41.0
 40
42.0
 40
42.0
 40
42.0
 40
43.0
 40
43.0
 40
43.0
 40
44.0
 40
44.0
 40
44.0
 40
45.0
 40
45.0
 40
45.0
 40
46.0
 40
46.0
 40
46.0
 40
47.0
 40
47.0
 40
47.0
 40
48.0
 40
48.0
 40
48.0
 40
49.0
 40
49.0
 40
49.0
 40
50.0
 40
50.0
 40
50.0
 40
51.0
 40
51.0
 40
51.0
 40
52.0
 40
52.0
 40
52.0
 40
53.0
 40
53.0
 40
53.0
 40
54.0
 40
54.0
 40
54.0
 40
55.0
 40
55.0
 40
55.0
 40
56.0
 40
56.0
 40
56.0
 40
56.0
 10
428.0804291219256
 20
-720.907861410522
 10
425.2555079231824
 20
-720.3262540212218
 10
422.5137531834544
 20
-720.3262540212218
 10
419.6888319847112
 20
-720.907861410522
 10
419.3564704161809
 20
-720.9909518026543
 10
419.107224595411
 20
-721.0740421947876
 10
419.107224595411
 20
-721.1571072312927
 10
419.107224595411
 20
-721.240197623425
 10
419.107224595411
 20
-721.5725338363281
 10
419.1902896319152
 20
-722.071050833496
 10
419.2734053796758
 20
-722.8188136514345
 10
419.3564704161809
 20
-723.1511498643367
 10
419.439535452686
 20
-723.23424025647
 10
419.5226004891902
 20
-723.3173306486024
 10
419.9380270942256
 20
-723.4004210407347
 10
420.5196851947821
 20
-723.4834860772398
 10
421.1844083318438
 20
-723.5665764693722
 10
421.5998349368792
 20
-723.6496668615055
 10
421.7659650098885
 20
-723.8989126822753
 10
421.9320950828987
 20
-724.0650934665409
 10
422.0983265784189
 20
-724.4805200715764
 10
422.0983265784189
 20
-724.979011713116
 10
422.0983265784189
 20
-725.4775287102848
 10
421.5167699003741
 20
-727.8039075562319
 10
420.3535551217728
 20
-732.0412639987189
 10
419.1903403431706
 20
-736.1955300490736
 10
418.5256679173654
 20
-738.2726630742518
 10
418.4426028808602
 20
-738.2726630742518
 10
418.3595378443551
 20
-738.2726630742518
 10
418.2764220965955
 20
-738.1895726821185
 10
418.1933570600904
 20
-738.023417253481
 10
417.8609954915601
 20
-736.8602278305079
 10
417.1963230657539
 20
-734.616914021065
 10
416.1162240349131
 20
-731.210410788648
 10
414.8699442198067
 20
-727.1392351304266
 10
414.2052717940005
 20
-724.8959213209837
 10
414.2052717940005
 20
-724.3143392873108
 10
414.2052717940005
 20
-723.8989126822753
 10
414.8699442198067
 20
-723.6496668615055
 10
416.1162240349131
 20
-723.4003956851075
 10
416.6147156764528
 20
-723.3173052929742
 10
416.947077244984
 20
-723.0680594722044
 10
417.0301422814891
 20
-722.7357232593013
 10
417.1132073179933
 20
-722.3202966542658
 10
417.1132073179933
 20
-721.9879604413636
 10
417.0301422814891
 20
-721.5725338363281
 10
416.947077244984
 20
-721.240197623425
 10
416.6147156764528
 20
-720.990926447027
 10
416.0331082871526
 20
-720.907861410522
 10
415.4515008978515
 20
-720.8247710183896
 10
413.7067294412045
 20
-720.8247710183896
 10
410.8818082424614
 20
-720.8247710183896
 10
407.9738220072131
 20
-720.907861410522
 10
406.4782963713369
 20
-720.9909518026543
 10
406.3951806235764
 20
-721.0740168391594
 10
406.3121155870713
 20
-721.1571072312927
 10
406.2289998393107
 20
-721.4894434441949
 10
406.2289998393107
 20
-722.1541158700011
 10
406.2289998393107
 20
-722.8187882958064
 10
406.3120648758158
 20
-723.1511498643367
 10
406.3951806235764
 20
-723.2342149008418
 10
406.4782456600815
 20
-723.3173052929742
 10
406.7275421921067
 20
-723.4003956851075
 10
407.3090988701524
 20
-723.4834607216117
 10
408.2230171167275
 20
-723.5665511137449
 10
408.8877402537892
 20
-724.3143139316826
 10
409.3862318953297
 20
-725.560593746789
 10
409.3862318953297
 20
-725.560593746789
 10
409.8016585003652
 20
-726.5576277411255
 10
409.8016585003652
 20
-726.5576277411255
 10
409.8016585003652
 20
-726.5576277411255
 10
407.8907062594526
 20
-732.2905098194897
 10
407.8907062594526
 20
-732.2905098194897
 10
406.6444264443462
 20
-736.0293492648088
 10
405.9797540185409
 20
-738.0233918978538
 10
405.8135732342753
 20
-738.1895726821185
 10
405.4812116657449
 20
-738.4388185028893
 10
405.14890080847
 20
-737.7741460770831
 10
404.650358455674
 20
-736.0293492648088
 10
403.8195052456031
 20
-732.7890268166575
 10
403.0717170720372
 20
-729.8810405814093
 10
402.3239796097268
 20
-727.3053905590641
 10
402.3239796097268
 20
-727.3053905590641
 10
401.5761914361601
 20
-724.5635851080806
 10
401.5761914361601
 20
-724.5635851080806
 10
401.5761914361601
 20
-724.5635851080806
 10
402.0746830777007
 20
-724.0650681109128
 10
402.0746830777007
 20
-724.0650681109128
 10
402.3239288984714
 20
-723.7327318980097
 10
402.8224712512665
 20
-723.5665511137449
 10
403.3209628928071
 20
-723.4834607216117
 10
403.9025702821082
 20
-723.4003703294793
 10
404.2348811393831
 20
-723.3172799373469
 10
404.2348811393831
 20
-723.2342149008418
 10
404.3179461758882
 20
-723.1511245087095
 10
404.4010619236487
 20
-722.8187882958064
 10
404.4010619236487
 20
-722.1541158700011
 10
404.4010619236487
 20
-721.4894434441949
 10
404.3179968871436
 20
-721.1570818756645
 10
404.2348811393831
 20
-721.0740168391594
 10
404.151816102878
 20
-720.990926447027
 10
402.5731747192413
 20
-720.9078360548947
 10
399.4159426632223
 20
-720.9078360548947
 10
396.2587106072042
 20
-720.9078360548947
 10
394.5138884393018
 20
-720.9078360548947
 10
394.0984618342663
 20
-720.990926447027
 10
393.5168544449662
 20
-721.0740168391594
 10
393.2676086241954
 20
-721.7386892649656
 10
393.5168544449662
 20
-722.8188136514345
 10
393.5999194814704
 20
-723.1511498643367
 10
393.9322810500016
 20
-723.4004210407347
 10
394.5138884393018
 20
-723.5665764693722
 10
395.5939874701435
 20
-723.8158222901429
 10
396.2586598959488
 20
-724.4805200715764
 10
396.5910214644791
 20
-725.5606191024171
 10
396.5910214644791
 20
-725.5606191024171
 10
399.2497618789575
 20
-734.4507585924275
 10
399.2497618789575
 20
-734.4507585924275
 10
400.579106730569
 20
-738.9373608556853
 10
401.40995994064
 20
-741.9284374830659
 10
401.908502293436
 20
-743.340898082437
 10
402.1577481142058
 20
-744.3379320767735
 10
402.4901096827361
 20
-744.9195141104465
 10
402.6562904670018
 20
-745.0856948947121
 10
402.9055362877716
 20
-745.2518756789777
 10
403.5702087135778
 20
-745.3349407154819
 10
404.650358455674
 20
-745.3349407154819
 10
405.9797033072855
 20
-745.3349407154819
 10
406.8105565173564
 20
-745.1687599312172
 10
407.0598530493817
 20
-744.9195141104465
 10
407.3090988701524
 20
-744.6702682896766
 10
408.0568870437182
 20
-742.7592906931368
 10
409.3031668588246
 20
-739.10354163995
 10
410.4663816374259
 20
-735.5308829788964
 10
411.1310540632321
 20
-733.6199053823566
 10
411.2972348474968
 20
-733.4537499537191
 10
411.5464806682676
 20
-733.0383233486837
 10
411.961907273303
 20
-733.7860861666213
 10
412.4604496260981
 20
-735.6139733710288
 10
412.4604496260981
 20
-735.6139733710288
 10
414.7868284720462
 20
-743.1747426538004
 10
414.7868284720462
 20
-743.1747426538004
 10
415.036074292816
 20
-744.1717766481361
 10
415.3684358613464
 20
-744.753358681809
 10
415.6176816821171
 20
-745.002629858207
 10
415.8669275028869
 20
-745.1688106424726
 10
416.6147156764528
 20
-745.3349660711101
 10
417.6948147072944
 20
-745.3349660711101
 10
419.0241595589059
 20
-745.3349660711101
 10
419.7718970212163
 20
-745.2518756789777
 10
420.0211935532416
 20
-745.002629858207
 10
420.2704900852677
 20
-744.7533840374372
 10
420.6859166903032
 20
-743.5901692588359
 10
421.267473368348
 20
-741.5130362336577
 10
421.5167699003741
 20
-740.5990926314544
 10
422.7630497154805
 20
-736.1124903681966
 10
425.0893778501722
 20
-728.1362944803905
 10
425.6709345282179
 20
-726.3914976681153
 10
426.0032960967483
 20
-725.2283082451422
 10
426.2525926287744
 20
-724.8128816401068
 10
426.5018891607997
 20
-724.314364642938
 10
426.9173157658352
 20
-723.9820284300358
 10
427.581937480385
 20
-723.7327826092651
 10
428.4958557269611
 20
-723.3173560042296
 10
428.9112823319965
 20
-722.6526835784243
 10
428.6620872224821
 20
-721.6556495840878
 10
428.7451522589872
 20
-721.240197623425
 10
428.4958557269611
 20
-720.9909518026543
 10
428.0804291219256
 20
-720.907861410522
 97
        0
 97
        0
 75
     2
 76
     1
 98
        0
  0
SPLINE
  5
51
330
45
100
AcDbEntity
  8
Layer 1
370
     0
100
AcDbSpline
210
0.0
220
0.0
230
1.0
 70
    11
 71
     3
 72
   131
 73
   127
 74
     0
 42
0.0000000001
 43
0.0000000001
 12
1.0
 22
0.0
 32
0.0
 13
1.0
 23
0.0
 33
0.0
 40
0.0
 40
0.0
 40
0.0
 40
0.0
 40
1.0
 40
1.0
 40
1.0
 40
2.0
 40
2.0
 40
2.0
 40
3.0
 40
3.0
 40
3.0
 40
4.0
 40
4.0
 40
4.0
 40
5.0
 40
5.0
 40
5.0
 40
6.0
 40
6.0
 40
6.0
 40
7.0
 40
7.0
 40
7.0
 40
8.0
 40
8.0
 40
8.0
 40
9.0
 40
9.0
 40
9.0
 40
10.0
 40
10.0
 40
10.0
 40
11.0
 40
11.0
 40
11.0
 40
12.0
 40
12.0
 40
12.0
 40
13.0
 40
13.0
 40
13.0
 40
14.0
 40
14.0
 40
14.0
 40
15.0
 40
15.0
 40
15.0
 40
16.0
 40
16.0
 40
16.0
 40
17.0
 40
17.0
 40
17.0
 40
18.0
 40
18.0
 40
18.0
 40
19.0
 40
19.0
 40
19.0
 40
20.0
 40
20.0
 40
20.0
 40
21.0
 40
21.0
 40
21.0
 40
22.0
 40
22.0
 40
22.0
 40
23.0
 40
23.0
 40
23.0
 40
24.0
 40
24.0
 40
24.0
 40
25.0
 40
25.0
 40
25.0
 40
26.0
 40
26.0
 40
26.0
 40
27.0
 40
27.0
 40
27.0
 40
28.0
 40
28.0
 40
28.0
 40
29.0
 40
29.0
 40
29.0
 40
30.0
 40
30.0
 40
30.0
 40
31.0
 40
31.0
 40
31.0
 40
32.0
 40
32.0
 40
32.0
 40
33.0
 40
33.0
 40
33.0
 40
34.0
 40
34.0
 40
34.0
 40
35.0
 40
35.0
 40
35.0
 40
36.0
 40
36.0
 40
36.0
 40
37.0
 40
37.0
 40
37.0
 40
38.0
 40
38.0
 40
38.0
 40
39.0
 40
39.0
 40
39.0
 40
40.0
 40
40.0
 40
40.0
 40
41.0
 40
41.0
 40
41.0
 40
42.0
 40
42.0
 40
42.0
 40
42.0
 10
860.5395249638514
 20
-730.7950095392407
 30
0.0
 10
860.5395249638514
 20
-730.7950095392407
 30
0.0
 10
827.4715266340227
 20
-726.5576530967537
 30
0.0
 10
827.4715266340227
 20
-726.5576530967537
 30
0.0
 10
823.9819837207287
 20
-633.5851839609404
 30
0.0
 10
749.0389633188242
 20
-558.6422142702904
 30
0.0
 10
656.0664688273828
 20
-555.1526333235552
 30
0.0
 10
656.0664688273828
 20
-555.1526333235552
 30
0.0
 10
651.829137740524
 20
-522.0846730271687
 30
0.0
 10
651.829137740524
 20
-522.0846730271687
 30
0.0
 10
651.6630076675137
 20
-520.8383932120623
 30
0.0
 10
650.5828579254176
 20
-519.924449609859
 30
0.0
 10
649.3365781103112
 20
-520.0075400019914
 30
0.0
 10
649.3365781103112
 20
-520.0075400019914
 30
0.0
 10
649.3365781103112
 20
-520.0075400019914
 30
0.0
 10
649.3365781103112
 20
-520.0075400019914
 30
0.0
 10
649.3365781103112
 20
-520.0075400019914
 30
0.0
 10
649.3365781103112
 20
-520.0075400019914
 30
0.0
 10
649.3365781103112
 20
-520.0075400019914
 30
0.0
 10
649.3365781103112
 20
-520.0075400019914
 30
0.0
 10
649.3365781103112
 20
-520.0075400019914
 30
0.0
 10
649.3365781103112
 20
-520.0075400019914
 30
0.0
 10
649.3365781103112
 20
-520.0075400019914
 30
0.0
 10
649.3365781103112
 20
-520.0075400019914
 30
0.0
 10
649.3365781103112
 20
-520.0075400019914
 30
0.0
 10
649.3365781103112
 20
-520.0075400019914
 30
0.0
 10
649.3365781103112
 20
-520.0075400019914
 30
0.0
 10
649.3365781103112
 20
-520.0075400019914
 30
0.0
 10
649.3365781103112
 20
-520.0075400019914
 30
0.0
 10
649.3365781103112
 20
-520.0075400019914
 30
0.0
 10
649.3365781103112
 20
-520.0075400019914
 30
0.0
 10
648.0902982952048
 20
-519.924449609859
 30
0.0
 10
647.0101485531077
 20
-520.8383932120623
 30
0.0
 10
646.8440184800984
 20
-522.0846730271687
 30
0.0
 10
646.8440184800984
 20
-522.0846730271687
 30
0.0
 10
642.6066873932386
 20
-555.1526333235552
 30
0.0
 10
642.6066873932386
 20
-555.1526333235552
 30
0.0
 10
549.6341929017981
 20
-558.6422142702904
 30
0.0
 10
474.6912739224035
 20
-633.5851839609404
 30
0.0
 10
471.2016295865988
 20
-726.5576530967537
 30
0.0
 10
471.2016295865988
 20
-726.5576530967537
 30
0.0
 10
438.133631256771
 20
-730.7950095392407
 30
0.0
 10
438.133631256771
 20
-730.7950095392407
 30
0.0
 10
436.8873514416646
 20
-730.9611903235063
 30
0.0
 10
435.9734331950885
 20
-732.0412893543471
 30
0.0
 10
436.0564982315937
 20
-733.2875691694535
 30
0.0
 10
436.0564982315937
 20
-733.2875691694535
 30
0.0
 10
436.0564982315937
 20
-733.2875691694535
 30
0.0
 10
436.0564982315937
 20
-733.2875691694535
 30
0.0
 10
436.0564982315937
 20
-733.2875691694535
 30
0.0
 10
436.0564982315937
 20
-733.2875691694535
 30
0.0
 10
436.0564982315937
 20
-733.2875691694535
 30
0.0
 10
436.0564982315937
 20
-733.2875691694535
 30
0.0
 10
436.0564982315937
 20
-733.2875691694535
 30
0.0
 10
436.0564982315937
 20
-733.2875691694535
 30
0.0
 10
436.0564982315937
 20
-733.2875691694535
 30
0.0
 10
436.0564982315937
 20
-733.2875691694535
 30
0.0
 10
436.0564982315937
 20
-733.2875691694535
 30
0.0
 10
436.0564982315937
 20
-733.2875691694535
 30
0.0
 10
436.0564982315937
 20
-733.2875691694535
 30
0.0
 10
436.0564982315937
 20
-733.2875691694535
 30
0.0
 10
435.9734331950885
 20
-734.5338489845599
 30
0.0
 10
436.8873514416646
 20
-735.6139480154015
 30
0.0
 10
438.133631256771
 20
-735.7801287996663
 30
0.0
 10
438.133631256771
 20
-735.7801287996663
 30
0.0
 10
471.2016295865988
 20
-740.0174852421533
 30
0.0
 10
471.2016295865988
 20
-740.0174852421533
 30
0.0
 10
474.6911724998918
 20
-832.9899797335947
 30
0.0
 10
549.6341929017981
 20
-907.9328987129884
 30
0.0
 10
642.6066873932386
 20
-911.4224923375386
 30
0.0
 10
642.6066873932386
 20
-911.4224923375386
 30
0.0
 10
646.8440184800984
 20
-944.490439956111
 30
0.0
 10
646.8440184800984
 20
-944.490439956111
 30
0.0
 10
647.0101485531077
 20
-945.7367197712174
 30
0.0
 10
648.0902982952048
 20
-946.6506380177925
 30
0.0
 10
649.3365781103112
 20
-946.5675729812883
 30
0.0
 10
649.3365781103112
 20
-946.5675729812883
 30
0.0
 10
649.3365781103112
 20
-946.5675729812883
 30
0.0
 10
649.3365781103112
 20
-946.5675729812883
 30
0.0
 10
649.3365781103112
 20
-946.5675729812883
 30
0.0
 10
649.3365781103112
 20
-946.5675729812883
 30
0.0
 10
649.3365781103112
 20
-946.5675729812883
 30
0.0
 10
649.3365781103112
 20
-946.5675729812883
 30
0.0
 10
649.3365781103112
 20
-946.5675729812883
 30
0.0
 10
649.3365781103112
 20
-946.5675729812883
 30
0.0
 10
649.3365781103112
 20
-946.5675729812883
 30
0.0
 10
649.3365781103112
 20
-946.5675729812883
 30
0.0
 10
649.3365781103112
 20
-946.5675729812883
 30
0.0
 10
649.3365781103112
 20
-946.5675729812883
 30
0.0
 10
649.3365781103112
 20
-946.5675729812883
 30
0.0
 10
649.3365781103112
 20
-946.5675729812883
 30
0.0
 10
650.5828579254176
 20
-946.6506380177925
 30
0.0
 10
651.6630076675137
 20
-945.7367197712174
 30
0.0
 10
651.829137740524
 20
-944.490439956111
 30
0.0
 10
651.829137740524
 20
-944.490439956111
 30
0.0
 10
656.0664688273828
 20
-911.4224923375386
 30
0.0
 10
656.0664688273828
 20
-911.4224923375386
 30
0.0
 10
749.0389633188242
 20
-907.9328987129884
 30
0.0
 10
823.9818822982179
 20
-832.9899290223384
 30
0.0
 10
827.4715266340227
 20
-740.0174852421533
 30
0.0
 10
827.4715266340227
 20
-740.0174852421533
 30
0.0
 10
860.5395249638514
 20
-735.7801287996663
 30
0.0
 10
860.5395249638514
 20
-735.7801287996663
 30
0.0
 10
861.7858047789578
 20
-735.6139480154015
 30
0.0
 10
862.6997230255329
 20
-734.5338489845599
 30
0.0
 10
862.6166579890287
 20
-733.2875691694535
 30
0.0
 10
862.6166579890287
 20
-733.2875691694535
 30
0.0
 10
862.6166579890287
 20
-733.2875691694535
 30
0.0
 10
862.6166579890287
 20
-733.2875691694535
 30
0.0
 10
862.6166579890287
 20
-733.2875691694535
 30
0.0
 10
862.6166579890287
 20
-733.2875691694535
 30
0.0
 10
862.6166579890287
 20
-733.2875691694535
 30
0.0
 10
862.6166579890287
 20
-733.2875691694535
 30
0.0
 10
862.6166579890287
 20
-733.2875691694535
 30
0.0
 10
862.6166579890287
 20
-733.2875691694535
 30
0.0
 10
862.6166579890287
 20
-733.2875691694535
 30
0.0
 10
862.6166579890287
 20
-733.2875691694535
 30
0.0
 10
862.6166579890287
 20
-733.2875691694535
 30
0.0
 10
862.6166579890287
 20
-733.2875691694535
 30
0.0
 10
862.6166579890287
 20
-733.2875691694535
 30
0.0
 10
862.6166579890287
 20
-733.2875691694535
 30
0.0
 10
862.6166579890287
 20
-733.2875691694535
 30
0.0
 10
862.6166579890287
 20
-733.2875691694535
 30
0.0
 10
862.6166579890287
 20
-733.2875691694535
 30
0.0
 10
862.6998244480437
 20
-732.0412893543471
 30
0.0
 10
861.7858047789578
 20
-730.9611903235063
 30
0.0
 10
860.5395249638514
 20
-730.7950095392407
 30
0.0
  0
SPLINE
  5
52
330
45
100
AcDbEntity
  8
Layer 1
370
     0
100
AcDbSpline
210
0.0
220
0.0
230
1.0
 70
    11
 71
     3
 72
    71
 73
    67
 74
     0
 42
0.0000000001
 43
0.0000000001
 12
1.0
 22
0.0
 32
0.0
 13
1.0
 23
0.0
 33
0.0
 40
0.0
 40
0.0
 40
0.0
 40
0.0
 40
1.0
 40
1.0
 40
1.0
 40
2.0
 40
2.0
 40
2.0
 40
3.0
 40
3.0
 40
3.0
 40
4.0
 40
4.0
 40
4.0
 40
5.0
 40
5.0
 40
5.0
 40
6.0
 40
6.0
 40
6.0
 40
7.0
 40
7.0
 40
7.0
 40
8.0
 40
8.0
 40
8.0
 40
9.0
 40
9.0
 40
9.0
 40
10.0
 40
10.0
 40
10.0
 40
11.0
 40
11.0
 40
11.0
 40
12.0
 40
12.0
 40
12.0
 40
13.0
 40
13.0
 40
13.0
 40
14.0
 40
14.0
 40
14.0
 40
15.0
 40
15.0
 40
15.0
 40
16.0
 40
16.0
 40
16.0
 40
17.0
 40
17.0
 40
17.0
 40
18.0
 40
18.0
 40
18.0
 40
19.0
 40
19.0
 40
19.0
 40
20.0
 40
20.0
 40
20.0
 40
21.0
 40
21.0
 40
21.0
 40
22.0
 40
22.0
 40
22.0
 40
22.0
 10
480.1749862468805
 20
-696.8962087105974
 30
0.0
 10
480.1749862468805
 20
-696.8962087105974
 30
0.0
 10
499.2846100785118
 20
-692.9081234445075
 30
0.0
 10
499.2846100785118
 20
-692.9081234445075
 30
0.0
 10
499.2846100785118
 20
-692.9081234445075
 30
0.0
 10
484.7446789022706
 20
-679.9468082962758
 30
0.0
 10
484.7446789022706
 20
-679.9468082962758
 30
0.0
 10
487.6526651375189
 20
-671.0566688062654
 30
0.0
 10
491.2253745098278
 20
-662.4988908847863
 30
0.0
 10
495.4627055966876
 20
-654.3565395683418
 30
0.0
 10
495.4627055966876
 20
-654.3565395683418
 30
0.0
 10
514.821625960345
 20
-655.4366385991834
 30
0.0
 10
514.821625960345
 20
-655.4366385991834
 30
0.0
 10
514.821625960345
 20
-655.4366385991834
 30
0.0
 10
504.2698307614482
 20
-639.3180913949327
 30
0.0
 10
504.2698307614482
 20
-639.3180913949327
 30
0.0
 10
509.3380150583789
 20
-631.5080762913913
 30
0.0
 10
515.0709224923703
 20
-624.1134877928853
 30
0.0
 10
521.3023215679032
 20
-617.2173909359199
 30
0.0
 10
521.3023215679032
 20
-617.2173909359199
 30
0.0
 10
539.4980271529585
 20
-623.199544190682
 30
0.0
 10
539.4980271529585
 20
-623.199544190682
 30
0.0
 10
539.4980271529585
 20
-623.199544190682
 30
0.0
 10
533.5159246094527
 20
-605.0869543533863
 30
0.0
 10
533.5159246094527
 20
-605.0869543533863
 30
0.0
 10
540.4120468220453
 20
-598.8555552778544
 30
0.0
 10
547.8897257126837
 20
-593.1226731994902
 30
0.0
 10
555.6996647493415
 20
-588.0544635469323
 30
0.0
 10
555.6996647493415
 20
-588.0544635469323
 30
0.0
 10
571.5689407771952
 20
-598.4401286728189
 30
0.0
 10
571.5689407771952
 20
-598.4401286728189
 30
0.0
 10
571.5689407771952
 20
-598.4401286728189
 30
0.0
 10
570.4887910350981
 20
-579.4135952333199
 30
0.0
 10
570.4887910350981
 20
-579.4135952333199
 30
0.0
 10
578.7973231358073
 20
-575.176238790832
 30
0.0
 10
587.4382168050479
 20
-571.6035801297785
 30
0.0
 10
596.411370620307
 20
-568.6955938945302
 30
0.0
 10
596.411370620307
 20
-568.6955938945302
 30
0.0
 10
609.0402988443811
 20
-582.820098465736
 30
0.0
 10
609.0402988443811
 20
-582.820098465736
 30
0.0
 10
609.0402988443811
 20
-582.820098465736
 30
0.0
 10
612.8622033262054
 20
-564.2920693455908
 30
0.0
 10
612.8622033262054
 20
-564.2920693455908
 30
0.0
 10
622.2508851690109
 20
-562.2980267125467
 30
0.0
 10
631.8887621213316
 20
-561.0517468974404
 30
0.0
 10
641.6927691466626
 20
-560.6363202924049
 30
0.0
 10
641.6927691466626
 20
-560.6363202924049
 30
0.0
 10
634.9628784295901
 20
-612.9800598490601
 30
0.0
 10
634.9628784295901
 20
-612.9800598490601
 30
0.0
 10
608.8740673488601
 20
-616.0542268685731
 30
0.0
 10
585.2778158983438
 20
-627.436900633169
 30
0.0
 10
566.9990452767825
 20
-644.3863010474906
 30
0.0
 10
566.9990452767825
 20
-644.3863010474906
 30
0.0
 10
545.5629918879476
 20
-629.6801890869838
 30
0.0
 10
545.5629918879476
 20
-629.6801890869838
 30
0.0
 10
545.5629918879476
 20
-629.6801890869838
 30
0.0
 10
560.2690531371991
 20
-651.1161917645632
 30
0.0
 10
560.2690531371991
 20
-651.1161917645632
 30
0.0
 10
543.3196273672502
 20
-669.4780527782568
 30
0.0
 10
531.9369789582825
 20
-693.0742788731459
 30
0.0
 10
528.8627612275131
 20
-719.0799742061154
 30
0.0
 10
528.8627612275131
 20
-719.0799742061154
 30
0.0
 10
476.5190089930438
 20
-725.8098902788151
 30
0.0
 10
476.5190089930438
 20
-725.8098902788151
 30
0.0
 10
476.934638443101
 20
-715.9227421500964
 30
0.0
 10
478.1809182582074
 20
-706.2848398421484
 30
0.0
 10
480.1749862468805
 20
-696.8962087105974
 30
0.0
  0
SPLINE
  5
53
330
45
100
AcDbEntity
  8
Layer 1
370
     0
100
AcDbSpline
210
0.0
220
0.0
230
1.0
 70
    11
 71
     3
 72
    14
 73
    10
 74
     0
 42
0.0000000001
 43
0.0000000001
 12
1.0
 22
0.0
 32
0.0
 13
1.0
 23
0.0
 33
0.0
 40
0.0
 40
0.0
 40
0.0
 40
0.0
 40
1.0
 40
1.0
 40
1.0
 40
2.0
 40
2.0
 40
2.0
 40
3.0
 40
3.0
 40
3.0
 40
3.0
 10
570.4056245760821
 20
-646.6295895013054
 30
0.0
 10
587.7704769510674
 20
-630.7602881178245
 30
0.0
 10
609.9542170909572
 20
-620.1253771711681
 30
0.0
 10
634.4643867880495
 20
-617.0512101516542
 30
0.0
 10
634.4643867880495
 20
-617.0512101516542
 30
0.0
 10
625.7404280823048
 20
-684.599565988171
 30
0.0
 10
625.7404280823048
 20
-684.599565988171
 30
0.0
 10
625.7404280823048
 20
-684.599565988171
 30
0.0
 10
570.4056245760821
 20
-646.6295895013054
 30
0.0
 10
570.4056245760821
 20
-646.6295895013054
 30
0.0
  0
SPLINE
  5
54
330
45
100
AcDbEntity
  8
Layer 1
370
     0
100
AcDbSpline
210
0.0
220
0.0
230
1.0
 70
    11
 71
     3
 72
    14
 73
    10
 74
     0
 42
0.0000000001
 43
0.0000000001
 12
1.0
 22
0.0
 32
0.0
 13
1.0
 23
0.0
 33
0.0
 40
0.0
 40
0.0
 40
0.0
 40
0.0
 40
1.0
 40
1.0
 40
1.0
 40
2.0
 40
2.0
 40
2.0
 40
3.0
 40
3.0
 40
3.0
 40
3.0
 10
600.5656366706617
 20
-709.8575238588292
 30
0.0
 10
600.5656366706617
 20
-709.8575238588292
 30
0.0
 10
533.0172301228904
 20
-718.5814825645748
 30
0.0
 10
533.0172301228904
 20
-718.5814825645748
 30
0.0
 10
536.0913464311479
 20
-694.0713128674815
 30
0.0
 10
546.8093731255649
 20
-671.8875220163363
 30
0.0
 10
562.6786491534185
 20
-654.5226949969792
 30
0.0
 10
562.6786491534185
 20
-654.5226949969792
 30
0.0
 10
600.5656366706617
 20
-709.8575238588292
 30
0.0
 10
600.5656366706617
 20
-709.8575238588292
 30
0.0
  0
SPLINE
  5
55
330
45
100
AcDbEntity
  8
Layer 1
370
     0
100
AcDbSpline
210
0.0
220
0.0
230
1.0
 70
    11
 71
     3
 72
    71
 73
    67
 74
     0
 42
0.0000000001
 43
0.0000000001
 12
1.0
 22
0.0
 32
0.0
 13
1.0
 23
0.0
 33
0.0
 40
0.0
 40
0.0
 40
0.0
 40
0.0
 40
1.0
 40
1.0
 40
1.0
 40
2.0
 40
2.0
 40
2.0
 40
3.0
 40
3.0
 40
3.0
 40
4.0
 40
4.0
 40
4.0
 40
5.0
 40
5.0
 40
5.0
 40
6.0
 40
6.0
 40
6.0
 40
7.0
 40
7.0
 40
7.0
 40
8.0
 40
8.0
 40
8.0
 40
9.0
 40
9.0
 40
9.0
 40
10.0
 40
10.0
 40
10.0
 40
11.0
 40
11.0
 40
11.0
 40
12.0
 40
12.0
 40
12.0
 40
13.0
 40
13.0
 40
13.0
 40
14.0
 40
14.0
 40
14.0
 40
15.0
 40
15.0
 40
15.0
 40
16.0
 40
16.0
 40
16.0
 40
17.0
 40
17.0
 40
17.0
 40
18.0
 40
18.0
 40
18.0
 40
19.0
 40
19.0
 40
19.0
 40
20.0
 40
20.0
 40
20.0
 40
21.0
 40
21.0
 40
21.0
 40
22.0
 40
22.0
 40
22.0
 40
22.0
 10
613.6930565362763
 20
-902.5323528475274
 30
0.0
 10
613.6930565362763
 20
-902.5323528475274
 30
0.0
 10
609.6218555224259
 20
-883.0903674473648
 30
0.0
 10
609.6218555224259
 20
-883.0903674473648
 30
0.0
 10
609.6218555224259
 20
-883.0903674473648
 30
0.0
 10
596.3282041612911
 20
-897.9626601921373
 30
0.0
 10
596.3282041612911
 20
-897.9626601921373
 30
0.0
 10
587.5211804190412
 20
-895.137738993395
 30
0.0
 10
579.0464168228118
 20
-891.6481960801011
 30
0.0
 10
570.9871812541278
 20
-887.4939300297465
 30
0.0
 10
570.9871812541278
 20
-887.4939300297465
 30
0.0
 10
572.1503960327291
 20
-867.6365180245484
 30
0.0
 10
572.1503960327291
 20
-867.6365180245484
 30
0.0
 10
572.1503960327291
 20
-867.6365180245484
 30
0.0
 10
555.5333318313105
 20
-878.5206747919747
 30
0.0
 10
555.5333318313105
 20
-878.5206747919747
 30
0.0
 10
547.806356408646
 20
-873.5355555315491
 30
0.0
 10
540.4949090135287
 20
-867.8857638453192
 30
0.0
 10
533.6818518374403
 20
-861.8205455540519
 30
0.0
 10
533.6818518374403
 20
-861.8205455540519
 30
0.0
 10
539.9132509129722
 20
-843.0432832909501
 30
0.0
 10
539.9132509129722
 20
-843.0432832909501
 30
0.0
 10
539.9132509129722
 20
-843.0432832909501
 30
0.0
 10
521.0529236133661
 20
-849.274682366482
 30
0.0
 10
521.0529236133661
 20
-849.274682366482
 30
0.0
 10
514.9045895743393
 20
-842.4616759016499
 30
0.0
 10
509.254848599363
 20
-835.1501777952762
 30
0.0
 10
504.2697293389374
 20
-827.5063181203732
 30
0.0
 10
504.2697293389374
 20
-827.5063181203732
 30
0.0
 10
515.1538861063646
 20
-810.9723189554588
 30
0.0
 10
515.1538861063646
 20
-810.9723189554588
 30
0.0
 10
515.1538861063646
 20
-810.9723189554588
 30
0.0
 10
495.3795391376716
 20
-812.0524179863005
 30
0.0
 10
495.3795391376716
 20
-812.0524179863005
 30
0.0
 10
491.225273087317
 20
-803.910066669856
 30
0.0
 10
487.652563715008
 20
-795.435353784882
 30
0.0
 10
484.8277439387748
 20
-786.6283300426312
 30
0.0
 10
484.8277439387748
 20
-786.6283300426312
 30
0.0
 10
499.6169716470422
 20
-773.4177690736287
 30
0.0
 10
499.6169716470422
 20
-773.4177690736287
 30
0.0
 10
499.6169716470422
 20
-773.4177690736287
 30
0.0
 10
480.2580512833847
 20
-769.3465934154065
 30
0.0
 10
480.2580512833847
 20
-769.3465934154065
 30
0.0
 10
478.2639832947125
 20
-760.1241177124939
 30
0.0
 10
477.1007685161112
 20
-750.5693057966782
 30
0.0
 10
476.6022768745706
 20
-740.8483384522242
 30
0.0
 10
476.6022768745706
 20
-740.8483384522242
 30
0.0
 10
528.94602910904
 20
-747.5782545249249
 30
0.0
 10
528.94602910904
 20
-747.5782545249249
 30
0.0
 10
532.0201454172984
 20
-773.6670402500276
 30
0.0
 10
543.402895248777
 20
-797.263291700543
 30
0.0
 10
560.3523210187259
 20
-815.5420623221053
 30
0.0
 10
560.3523210187259
 20
-815.5420623221053
 30
0.0
 10
545.6462597694754
 20
-836.9780649996828
 30
0.0
 10
545.6462597694754
 20
-836.9780649996828
 30
0.0
 10
545.6462597694754
 20
-836.9780649996828
 30
0.0
 10
567.0823131583093
 20
-822.2719530391769
 30
0.0
 10
567.0823131583093
 20
-822.2719530391769
 30
0.0
 10
585.4441488163748
 20
-839.2213788091267
 30
0.0
 10
609.040400266892
 20
-850.6040272180944
 30
0.0
 10
635.0461463111169
 20
-853.6781942376074
 30
0.0
 10
635.0461463111169
 20
-853.6781942376074
 30
0.0
 10
641.7760370281894
 20
-906.0219464720758
 30
0.0
 10
641.7760370281894
 20
-906.0219464720758
 30
0.0
 10
632.1380586533578
 20
-905.6065198670403
 30
0.0
 10
622.7493768105514
 20
-904.4433557996945
 30
0.0
 10
613.6930565362763
 20
-902.5323528475274
 30
0.0
  0
SPLINE
  5
56
330
45
100
AcDbEntity
  8
Layer 1
370
     0
100
AcDbSpline
210
0.0
220
0.0
230
1.0
 70
    11
 71
     3
 72
    14
 73
    10
 74
     0
 42
0.0000000001
 43
0.0000000001
 12
1.0
 22
0.0
 32
0.0
 13
1.0
 23
0.0
 33
0.0
 40
0.0
 40
0.0
 40
0.0
 40
0.0
 40
1.0
 40
1.0
 40
1.0
 40
2.0
 40
2.0
 40
2.0
 40
3.0
 40
3.0
 40
3.0
 40
3.0
 10
562.5955841169134
 20
-812.135533734061
 30
0.0
 10
546.7263080890607
 20
-794.7706813590758
 30
0.0
 10
536.0913464311479
 20
-772.5869158635578
 30
0.0
 10
533.0172301228904
 20
-748.0767461664655
 30
0.0
 10
533.0172301228904
 20
-748.0767461664655
 30
0.0
 10
600.5656366706617
 20
-756.8007048722102
 30
0.0
 10
600.5656366706617
 20
-756.8007048722102
 30
0.0
 10
600.5656366706617
 20
-756.8007048722102
 30
0.0
 10
562.5955841169134
 20
-812.135533734061
 30
0.0
 10
562.5955841169134
 20
-812.135533734061
 30
0.0
  0
SPLINE
  5
57
330
45
100
AcDbEntity
  8
Layer 1
370
     0
100
AcDbSpline
210
0.0
220
0.0
230
1.0
 70
    11
 71
     3
 72
    14
 73
    10
 74
     0
 42
0.0000000001
 43
0.0000000001
 12
1.0
 22
0.0
 32
0.0
 13
1.0
 23
0.0
 33
0.0
 40
0.0
 40
0.0
 40
0.0
 40
0.0
 40
1.0
 40
1.0
 40
1.0
 40
2.0
 40
2.0
 40
2.0
 40
3.0
 40
3.0
 40
3.0
 40
3.0
 10
625.7404280823048
 20
-782.0586373872411
 30
0.0
 10
625.7404280823048
 20
-782.0586373872411
 30
0.0
 10
634.4643867880495
 20
-849.606993223757
 30
0.0
 10
634.4643867880495
 20
-849.606993223757
 30
0.0
 10
609.9542170909572
 20
-846.532826204244
 30
0.0
 10
587.7704769510674
 20
-835.8148502210825
 30
0.0
 10
570.4056245760821
 20
-819.9455234819743
 30
0.0
 10
570.4056245760821
 20
-819.9455234819743
 30
0.0
 10
625.7404280823048
 20
-782.0586373872411
 30
0.0
 10
625.7404280823048
 20
-782.0586373872411
 30
0.0
  0
SPLINE
  5
58
330
45
100
AcDbEntity
  8
Layer 1
370
     0
100
AcDbSpline
210
0.0
220
0.0
230
1.0
 70
    11
 71
     3
 72
    26
 73
    22
 74
     0
 42
0.0000000001
 43
0.0000000001
 12
1.0
 22
0.0
 32
0.0
 13
1.0
 23
0.0
 33
0.0
 40
0.0
 40
0.0
 40
0.0
 40
0.0
 40
1.0
 40
1.0
 40
1.0
 40
2.0
 40
2.0
 40
2.0
 40
3.0
 40
3.0
 40
3.0
 40
4.0
 40
4.0
 40
4.0
 40
5.0
 40
5.0
 40
5.0
 40
6.0
 40
6.0
 40
6.0
 40
7.0
 40
7.0
 40
7.0
 40
7.0
 10
633.965895146509
 20
-745.4180311076152
 30
0.0
 10
633.965895146509
 20
-745.4180311076152
 30
0.0
 10
624.0787216621629
 20
-755.3051792363331
 30
0.0
 10
624.0787216621629
 20
-755.3051792363331
 30
0.0
 10
624.0787216621629
 20
-755.3051792363331
 30
0.0
 10
476.3529803425454
 20
-736.2786457968341
 30
0.0
 10
476.3529803425454
 20
-736.2786457968341
 30
0.0
 10
476.3529803425454
 20
-736.0293999760643
 30
0.0
 10
476.3529803425454
 20
-735.8632191917986
 30
0.0
 10
476.3529803425454
 20
-735.6139733710288
 30
0.0
 10
476.3529803425454
 20
-735.6139733710288
 30
0.0
 10
528.0320094399531
 20
-735.6139733710288
 30
0.0
 10
528.0320094399531
 20
-735.6139733710288
 30
0.0
 10
528.0320094399531
 20
-735.6139733710288
 30
0.0
 10
532.0201454172984
 20
-735.6139733710288
 30
0.0
 10
532.0201454172984
 20
-735.6139733710288
 30
0.0
 10
532.0201454172984
 20
-735.6139733710288
 30
0.0
 10
643.7699021718399
 20
-735.6139733710288
 30
0.0
 10
643.7699021718399
 20
-735.6139733710288
 30
0.0
 10
643.7699021718399
 20
-735.6139733710288
 30
0.0
 10
633.965895146509
 20
-745.4180311076152
 30
0.0
 10
633.965895146509
 20
-745.4180311076152
 30
0.0
  0
SPLINE
  5
59
330
45
100
AcDbEntity
  8
Layer 1
370
     0
100
AcDbSpline
210
0.0
220
0.0
230
1.0
 70
    11
 71
     3
 72
    35
 73
    31
 74
     0
 42
0.0000000001
 43
0.0000000001
 12
1.0
 22
0.0
 32
0.0
 13
1.0
 23
0.0
 33
0.0
 40
0.0
 40
0.0
 40
0.0
 40
0.0
 40
1.0
 40
1.0
 40
1.0
 40
2.0
 40
2.0
 40
2.0
 40
3.0
 40
3.0
 40
3.0
 40
4.0
 40
4.0
 40
4.0
 40
5.0
 40
5.0
 40
5.0
 40
6.0
 40
6.0
 40
6.0
 40
7.0
 40
7.0
 40
7.0
 40
8.0
 40
8.0
 40
8.0
 40
9.0
 40
9.0
 40
9.0
 40
10.0
 40
10.0
 40
10.0
 40
10.0
 10
647.0102499756185
 20
-612.149181283361
 30
0.0
 10
647.0102499756185
 20
-612.149181283361
 30
0.0
 10
647.0102499756185
 20
-616.1372665494509
 30
0.0
 10
647.0102499756185
 20
-616.1372665494509
 30
0.0
 10
647.0102499756185
 20
-616.1372665494509
 30
0.0
 10
647.0102499756185
 20
-727.8870233039925
 30
0.0
 10
647.0102499756185
 20
-727.8870233039925
 30
0.0
 10
647.0102499756185
 20
-727.8870233039925
 30
0.0
 10
643.1883454937943
 20
-724.0650934665409
 30
0.0
 10
643.1883454937943
 20
-724.0650934665409
 30
0.0
 10
643.1883454937943
 20
-724.0650934665409
 30
0.0
 10
627.3190694659415
 20
-708.19579208306
 30
0.0
 10
627.3190694659415
 20
-708.19579208306
 30
0.0
 10
627.3190694659415
 20
-708.19579208306
 30
0.0
 10
639.2003109389607
 20
-616.2203569415833
 30
0.0
 10
639.2003109389607
 20
-616.2203569415833
 30
0.0
 10
639.2003109389607
 20
-616.2203569415833
 30
0.0
 10
639.6988025805013
 20
-612.4815174962641
 30
0.0
 10
639.6988025805013
 20
-612.4815174962641
 30
0.0
 10
639.6988025805013
 20
-612.4815174962641
 30
0.0
 10
646.4286932975738
 20
-560.4701014746979
 30
0.0
 10
646.4286932975738
 20
-560.4701014746979
 30
0.0
 10
646.677989829599
 20
-560.4701014746979
 30
0.0
 10
646.8441199026092
 20
-560.4701014746979
 30
0.0
 10
647.0934164346345
 20
-560.4701014746979
 30
0.0
 10
647.0934164346345
 20
-560.4701014746979
 30
0.0
 10
647.0934164346345
 20
-612.149181283361
 30
0.0
 10
647.0934164346345
 20
-612.149181283361
 30
0.0
 10
647.0934164346345
 20
-612.149181283361
 30
0.0
 10
647.0102499756185
 20
-612.149181283361
 30
0.0
 10
647.0102499756185
 20
-612.149181283361
 30
0.0
  0
SPLINE
  5
5A
330
45
100
AcDbEntity
  8
Layer 1
370
     0
100
AcDbSpline
210
0.0
220
0.0
230
1.0
 70
    11
 71
     3
 72
    71
 73
    67
 74
     0
 42
0.0000000001
 43
0.0000000001
 12
1.0
 22
0.0
 32
0.0
 13
1.0
 23
0.0
 33
0.0
 40
0.0
 40
0.0
 40
0.0
 40
0.0
 40
1.0
 40
1.0
 40
1.0
 40
2.0
 40
2.0
 40
2.0
 40
3.0
 40
3.0
 40
3.0
 40
4.0
 40
4.0
 40
4.0
 40
5.0
 40
5.0
 40
5.0
 40
6.0
 40
6.0
 40
6.0
 40
7.0
 40
7.0
 40
7.0
 40
8.0
 40
8.0
 40
8.0
 40
9.0
 40
9.0
 40
9.0
 40
10.0
 40
10.0
 40
10.0
 40
11.0
 40
11.0
 40
11.0
 40
12.0
 40
12.0
 40
12.0
 40
13.0
 40
13.0
 40
13.0
 40
14.0
 40
14.0
 40
14.0
 40
15.0
 40
15.0
 40
15.0
 40
16.0
 40
16.0
 40
16.0
 40
17.0
 40
17.0
 40
17.0
 40
18.0
 40
18.0
 40
18.0
 40
19.0
 40
19.0
 40
19.0
 40
20.0
 40
20.0
 40
20.0
 40
21.0
 40
21.0
 40
21.0
 40
22.0
 40
22.0
 40
22.0
 40
22.0
 10
685.6449242439176
 20
-564.2920313121494
 30
0.0
 10
685.6449242439176
 20
-564.2920313121494
 30
0.0
 10
689.4668287257418
 20
-582.6538923258431
 30
0.0
 10
689.4668287257418
 20
-582.6538923258431
 30
0.0
 10
689.4668287257418
 20
-582.6538923258431
 30
0.0
 10
702.0126919133108
 20
-568.6124781467697
 30
0.0
 10
702.0126919133108
 20
-568.6124781467697
 30
0.0
 10
711.0690121875859
 20
-571.520464382018
 30
0.0
 10
719.7929708933307
 20
-575.0931230430715
 30
0.0
 10
728.1015029940409
 20
-579.4135698776918
 30
0.0
 10
728.1015029940409
 20
-579.4135698776918
 30
0.0
 10
727.0213532519438
 20
-598.1077671042876
 30
0.0
 10
727.0213532519438
 20
-598.1077671042876
 30
0.0
 10
727.0213532519438
 20
-598.1077671042876
 30
0.0
 10
742.6414341702821
 20
-587.8882827626667
 30
0.0
 10
742.6414341702821
 20
-587.8882827626667
 30
0.0
 10
750.617604702461
 20
-593.0395828073579
 30
0.0
 10
758.0952835930984
 20
-598.7724648857211
 30
0.0
 10
765.0744708421971
 20
-605.0869543533863
 30
0.0
 10
765.0744708421971
 20
-605.0869543533863
 30
0.0
 10
759.2584983717006
 20
-622.7841175856465
 30
0.0
 10
759.2584983717006
 20
-622.7841175856465
 30
0.0
 10
759.2584983717006
 20
-622.7841175856465
 30
0.0
 10
777.0387773517214
 20
-616.9681451151491
 30
0.0
 10
777.0387773517214
 20
-616.9681451151491
 30
0.0
 10
783.3532414637575
 20
-623.9473070086196
 30
0.0
 10
789.169213934254
 20
-631.424985899258
 30
0.0
 10
794.3205646902006
 20
-639.3180913949327
 30
0.0
 10
794.3205646902006
 20
-639.3180913949327
 30
0.0
 10
784.1010296373242
 20
-654.9381216020147
 30
0.0
 10
784.1010296373242
 20
-654.9381216020147
 30
0.0
 10
784.1010296373242
 20
-654.9381216020147
 30
0.0
 10
802.8782919004243
 20
-653.8580225711739
 30
0.0
 10
802.8782919004243
 20
-653.8580225711739
 30
0.0
 10
807.1986880237891
 20
-662.1665546718832
 30
0.0
 10
810.8544624326041
 20
-670.8074229854956
 30
0.0
 10
813.7624486678524
 20
-679.7806528676383
 30
0.0
 10
813.7624486678524
 20
-679.7806528676383
 30
0.0
 10
799.7210091331508
 20
-692.3265414108346
 30
0.0
 10
799.7210091331508
 20
-692.3265414108346
 30
0.0
 10
799.7210091331508
 20
-692.3265414108346
 30
0.0
 10
818.2490762867383
 20
-696.148471248287
 30
0.0
 10
818.2490762867383
 20
-696.148471248287
 30
0.0
 10
820.3262093119156
 20
-705.786373556235
 30
0.0
 10
821.6555541635262
 20
-715.6735216849538
 30
0.0
 10
822.0709807685616
 20
-725.7268505979382
 30
0.0
 10
822.0709807685616
 20
-725.7268505979382
 30
0.0
 10
769.7272285340932
 20
-718.9969345252375
 30
0.0
 10
769.7272285340932
 20
-718.9969345252375
 30
0.0
 10
766.6531122258348
 20
-692.9081488001357
 30
0.0
 10
755.2703623943562
 20
-669.3119227052466
 30
0.0
 10
738.3209366244064
 20
-651.033126728058
 30
0.0
 10
738.3209366244064
 20
-651.033126728058
 30
0.0
 10
753.0269978736578
 20
-629.5971240504787
 30
0.0
 10
753.0269978736578
 20
-629.5971240504787
 30
0.0
 10
753.0269978736578
 20
-629.5971240504787
 30
0.0
 10
731.590944484823
 20
-644.3032360109855
 30
0.0
 10
731.590944484823
 20
-644.3032360109855
 30
0.0
 10
713.2291088267575
 20
-627.3538355966639
 30
0.0
 10
689.6328573762403
 20
-615.9711364764407
 30
0.0
 10
663.6271113320154
 20
-612.896994812555
 30
0.0
 10
663.6271113320154
 20
-612.896994812555
 30
0.0
 10
656.8972206149429
 20
-560.5532425780857
 30
0.0
 10
656.8972206149429
 20
-560.5532425780857
 30
0.0
 10
666.6184668713013
 20
-560.9686184718657
 30
0.0
 10
676.256343823623
 20
-562.2979886791054
 30
0.0
 10
685.6449242439176
 20
-564.2920313121494
 30
0.0
  0
SPLINE
  5
5B
330
45
100
AcDbEntity
  8
Layer 1
370
     0
100
AcDbSpline
210
0.0
220
0.0
230
1.0
 70
    11
 71
     3
 72
    14
 73
    10
 74
     0
 42
0.0000000001
 43
0.0000000001
 12
1.0
 22
0.0
 32
0.0
 13
1.0
 23
0.0
 33
0.0
 40
0.0
 40
0.0
 40
0.0
 40
0.0
 40
1.0
 40
1.0
 40
1.0
 40
2.0
 40
2.0
 40
2.0
 40
3.0
 40
3.0
 40
3.0
 40
3.0
 10
735.9115434532096
 20
-654.4396046048469
 30
0.0
 10
751.7808194810623
 20
-671.804431624204
 30
0.0
 10
762.4157811389741
 20
-693.9882224753492
 30
0.0
 10
765.4898974472326
 20
-718.4983921724415
 30
0.0
 10
765.4898974472326
 20
-718.4983921724415
 30
0.0
 10
697.9414908994604
 20
-709.7744334666968
 30
0.0
 10
697.9414908994604
 20
-709.7744334666968
 30
0.0
 10
697.9414908994604
 20
-709.7744334666968
 30
0.0
 10
735.9115434532096
 20
-654.4396046048469
 30
0.0
 10
735.9115434532096
 20
-654.4396046048469
 30
0.0
  0
SPLINE
  5
5C
330
45
100
AcDbEntity
  8
Layer 1
370
     0
100
AcDbSpline
210
0.0
220
0.0
230
1.0
 70
    11
 71
     3
 72
    14
 73
    10
 74
     0
 42
0.0000000001
 43
0.0000000001
 12
1.0
 22
0.0
 32
0.0
 13
1.0
 23
0.0
 33
0.0
 40
0.0
 40
0.0
 40
0.0
 40
0.0
 40
1.0
 40
1.0
 40
1.0
 40
2.0
 40
2.0
 40
2.0
 40
3.0
 40
3.0
 40
3.0
 40
3.0
 10
672.7666994878182
 20
-684.599565988171
 30
0.0
 10
672.7666994878182
 20
-684.599565988171
 30
0.0
 10
664.0427407820735
 20
-617.0512101516542
 30
0.0
 10
664.0427407820735
 20
-617.0512101516542
 30
0.0
 10
688.5529104791658
 20
-620.1253771711681
 30
0.0
 10
710.7366506190556
 20
-630.8433785099578
 30
0.0
 10
728.1015029940409
 20
-646.7126798934378
 30
0.0
 10
728.1015029940409
 20
-646.7126798934378
 30
0.0
 10
672.7666994878182
 20
-684.599565988171
 30
0.0
 10
672.7666994878182
 20
-684.599565988171
 30
0.0
  0
SPLINE
  5
5D
330
45
100
AcDbEntity
  8
Layer 1
370
     0
100
AcDbSpline
210
0.0
220
0.0
230
1.0
 70
    11
 71
     3
 72
    23
 73
    19
 74
     0
 42
0.0000000001
 43
0.0000000001
 12
1.0
 22
0.0
 32
0.0
 13
1.0
 23
0.0
 33
0.0
 40
0.0
 40
0.0
 40
0.0
 40
0.0
 40
1.0
 40
1.0
 40
1.0
 40
2.0
 40
2.0
 40
2.0
 40
3.0
 40
3.0
 40
3.0
 40
4.0
 40
4.0
 40
4.0
 40
5.0
 40
5.0
 40
5.0
 40
6.0
 40
6.0
 40
6.0
 40
6.0
 10
652.1616007315652
 20
-906.1881272563423
 30
0.0
 10
651.912304199539
 20
-906.1881272563423
 30
0.0
 10
651.7461741265297
 20
-906.1881272563423
 30
0.0
 10
651.4968775945035
 20
-906.1881272563423
 30
0.0
 10
651.4968775945035
 20
-906.1881272563423
 30
0.0
 10
651.4968775945035
 20
-854.5090474476783
 30
0.0
 10
651.4968775945035
 20
-854.5090474476783
 30
0.0
 10
651.4968775945035
 20
-854.5090474476783
 30
0.0
 10
651.4968775945035
 20
-850.5209621815884
 30
0.0
 10
651.4968775945035
 20
-850.5209621815884
 30
0.0
 10
651.4968775945035
 20
-850.5209621815884
 30
0.0
 10
651.4968775945035
 20
-738.7712054270469
 30
0.0
 10
651.4968775945035
 20
-738.7712054270469
 30
0.0
 10
651.4968775945035
 20
-738.7712054270469
 30
0.0
 10
671.1880581041805
 20
-758.4624366479802
 30
0.0
 10
671.1880581041805
 20
-758.4624366479802
 30
0.0
 10
671.1880581041805
 20
-758.4624366479802
 30
0.0
 10
652.1616007315652
 20
-906.1881272563423
 30
0.0
 10
652.1616007315652
 20
-906.1881272563423
 30
0.0
  0
SPLINE
  5
5E
330
45
100
AcDbEntity
  8
Layer 1
370
     0
100
AcDbSpline
210
0.0
220
0.0
230
1.0
 70
    11
 71
     3
 72
    14
 73
    10
 74
     0
 42
0.0000000001
 43
0.0000000001
 12
1.0
 22
0.0
 32
0.0
 13
1.0
 23
0.0
 33
0.0
 40
0.0
 40
0.0
 40
0.0
 40
0.0
 40
1.0
 40
1.0
 40
1.0
 40
2.0
 40
2.0
 40
2.0
 40
3.0
 40
3.0
 40
3.0
 40
3.0
 10
728.1016044165517
 20
-819.9455741932288
 30
0.0
 10
710.7367520415664
 20
-835.8148502210825
 30
0.0
 10
688.5530119016767
 20
-846.4498118789943
 30
0.0
 10
664.0428422045843
 20
-849.5239281872527
 30
0.0
 10
664.0428422045843
 20
-849.5239281872527
 30
0.0
 10
672.766800910329
 20
-781.9755723507369
 30
0.0
 10
672.766800910329
 20
-781.9755723507369
 30
0.0
 10
672.766800910329
 20
-781.9755723507369
 30
0.0
 10
728.1016044165517
 20
-819.9455741932288
 30
0.0
 10
728.1016044165517
 20
-819.9455741932288
 30
0.0
  0
SPLINE
  5
5F
330
45
100
AcDbEntity
  8
Layer 1
370
     0
100
AcDbSpline
210
0.0
220
0.0
230
1.0
 70
    11
 71
     3
 72
    14
 73
    10
 74
     0
 42
0.0000000001
 43
0.0000000001
 12
1.0
 22
0.0
 32
0.0
 13
1.0
 23
0.0
 33
0.0
 40
0.0
 40
0.0
 40
0.0
 40
0.0
 40
1.0
 40
1.0
 40
1.0
 40
2.0
 40
2.0
 40
2.0
 40
3.0
 40
3.0
 40
3.0
 40
3.0
 10
697.9415923219722
 20
-756.8007302278384
 30
0.0
 10
697.9415923219722
 20
-756.8007302278384
 30
0.0
 10
765.4899988697434
 20
-748.0767715220927
 30
0.0
 10
765.4899988697434
 20
-748.0767715220927
 30
0.0
 10
762.415882561485
 20
-772.586941219186
 30
0.0
 10
751.6978558670689
 20
-794.7707320703303
 30
0.0
 10
735.8285798392153
 20
-812.135533734061
 30
0.0
 10
735.8285798392153
 20
-812.135533734061
 30
0.0
 10
697.9415923219722
 20
-756.8007302278384
 30
0.0
 10
697.9415923219722
 20
-756.8007302278384
 30
0.0
  0
SPLINE
  5
60
330
45
100
AcDbEntity
  8
Layer 1
370
     0
100
AcDbSpline
210
0.0
220
0.0
230
1.0
 70
    11
 71
     3
 72
    71
 73
    67
 74
     0
 42
0.0000000001
 43
0.0000000001
 12
1.0
 22
0.0
 32
0.0
 13
1.0
 23
0.0
 33
0.0
 40
0.0
 40
0.0
 40
0.0
 40
0.0
 40
1.0
 40
1.0
 40
1.0
 40
2.0
 40
2.0
 40
2.0
 40
3.0
 40
3.0
 40
3.0
 40
4.0
 40
4.0
 40
4.0
 40
5.0
 40
5.0
 40
5.0
 40
6.0
 40
6.0
 40
6.0
 40
7.0
 40
7.0
 40
7.0
 40
8.0
 40
8.0
 40
8.0
 40
9.0
 40
9.0
 40
9.0
 40
10.0
 40
10.0
 40
10.0
 40
11.0
 40
11.0
 40
11.0
 40
12.0
 40
12.0
 40
12.0
 40
13.0
 40
13.0
 40
13.0
 40
14.0
 40
14.0
 40
14.0
 40
15.0
 40
15.0
 40
15.0
 40
16.0
 40
16.0
 40
16.0
 40
17.0
 40
17.0
 40
17.0
 40
18.0
 40
18.0
 40
18.0
 40
19.0
 40
19.0
 40
19.0
 40
20.0
 40
20.0
 40
20.0
 40
21.0
 40
21.0
 40
21.0
 40
22.0
 40
22.0
 40
22.0
 40
22.0
 10
818.4983728187635
 20
-768.931166810371
 30
0.0
 10
818.4983728187635
 20
-768.931166810371
 30
0.0
 10
799.8041755921677
 20
-772.8361870399567
 30
0.0
 10
799.8041755921677
 20
-772.8361870399567
 30
0.0
 10
799.8041755921677
 20
-772.8361870399567
 30
0.0
 10
814.0948102363836
 20
-785.6313467595501
 30
0.0
 10
814.0948102363836
 20
-785.6313467595501
 30
0.0
 10
811.2698890376396
 20
-794.6045512860655
 30
0.0
 10
807.6972810878415
 20
-803.1623292075456
 30
0.0
 10
803.5430150374868
 20
-811.4708613082548
 30
0.0
 10
803.5430150374868
 20
-811.4708613082548
 30
0.0
 10
784.3503261693495
 20
-810.3907622774132
 30
0.0
 10
784.3503261693495
 20
-810.3907622774132
 30
0.0
 10
784.3503261693495
 20
-810.3907622774132
 30
0.0
 10
794.9021213682463
 20
-826.509334837292
 30
0.0
 10
794.9021213682463
 20
-826.509334837292
 30
0.0
 10
789.8339370713165
 20
-834.3193752964617
 30
0.0
 10
784.1840946738284
 20
-841.7139384393395
 30
0.0
 10
778.0357606348025
 20
-848.6931256884382
 30
0.0
 10
778.0357606348025
 20
-848.6931256884382
 30
0.0
 10
759.6739249767361
 20
-842.6279073971709
 30
0.0
 10
759.6739249767361
 20
-842.6279073971709
 30
0.0
 10
759.6739249767361
 20
-842.6279073971709
 30
0.0
 10
765.7391939792578
 20
-861.072858802996
 30
0.0
 10
765.7391939792578
 20
-861.072858802996
 30
0.0
 10
758.926238225682
 20
-867.304257878528
 30
0.0
 10
751.6146894080521
 20
-873.0371653125203
 30
0.0
 10
743.8046489488834
 20
-878.1053496094501
 30
0.0
 10
743.8046489488834
 20
-878.1053496094501
 30
0.0
 10
727.5199463159952
 20
-867.4704386627945
 30
0.0
 10
727.5199463159952
 20
-867.4704386627945
 30
0.0
 10
727.5199463159952
 20
-867.4704386627945
 30
0.0
 10
728.6000960580914
 20
-887.0785541359655
 30
0.0
 10
728.6000960580914
 20
-887.0785541359655
 30
0.0
 10
720.4576940303923
 20
-891.3158852228262
 30
0.0
 10
711.9830318566728
 20
-894.8885945951351
 30
0.0
 10
703.176008114423
 20
-897.7965808303834
 30
0.0
 10
703.176008114423
 20
-897.7965808303834
 30
0.0
 10
690.0484868262974
 20
-882.9242373743564
 30
0.0
 10
690.0484868262974
 20
-882.9242373743564
 30
0.0
 10
690.0484868262974
 20
-882.9242373743564
 30
0.0
 10
686.060350848953
 20
-902.2831070267566
 30
0.0
 10
686.060350848953
 20
-902.2831070267566
 30
0.0
 10
676.5886039696416
 20
-904.3602400519339
 30
0.0
 10
666.7845969443115
 20
-905.6065198670403
 30
0.0
 10
656.8143584234604
 20
-906.0219464720758
 30
0.0
 10
656.8143584234604
 20
-906.0219464720758
 30
0.0
 10
663.5442491405329
 20
-853.6781942376074
 30
0.0
 10
663.5442491405329
 20
-853.6781942376074
 30
0.0
 10
689.633060221262
 20
-850.6040272180944
 30
0.0
 10
713.2293116717792
 20
-839.2213280978704
 30
0.0
 10
731.5080822933396
 20
-822.2719530391769
 30
0.0
 10
731.5080822933396
 20
-822.2719530391769
 30
0.0
 10
752.9441356821753
 20
-836.9780649996828
 30
0.0
 10
752.9441356821753
 20
-836.9780649996828
 30
0.0
 10
752.9441356821753
 20
-836.9780649996828
 30
0.0
 10
738.2380744329239
 20
-815.5420623221053
 30
0.0
 10
738.2380744329239
 20
-815.5420623221053
 30
0.0
 10
755.1875002028737
 20
-797.1802266640389
 30
0.0
 10
766.5701486118396
 20
-773.5839752135216
 30
0.0
 10
769.6443663426089
 20
-747.5782798805521
 30
0.0
 10
769.6443663426089
 20
-747.5782798805521
 30
0.0
 10
821.9881185770791
 20
-740.8483638078524
 30
0.0
 10
821.9881185770791
 20
-740.8483638078524
 30
0.0
 10
821.5725905495328
 20
-750.4031503680408
 30
0.0
 10
820.4093757709306
 20
-759.7917814995908
 30
0.0
 10
818.4983728187635
 20
-768.931166810371
 30
0.0
  0
SPLINE
  5
61
330
45
100
AcDbEntity
  8
Layer 1
370
     0
100
AcDbSpline
210
0.0
220
0.0
230
1.0
 70
    11
 71
     3
 72
    26
 73
    22
 74
     0
 42
0.0000000001
 43
0.0000000001
 12
1.0
 22
0.0
 32
0.0
 13
1.0
 23
0.0
 33
0.0
 40
0.0
 40
0.0
 40
0.0
 40
0.0
 40
1.0
 40
1.0
 40
1.0
 40
2.0
 40
2.0
 40
2.0
 40
3.0
 40
3.0
 40
3.0
 40
4.0
 40
4.0
 40
4.0
 40
5.0
 40
5.0
 40
5.0
 40
6.0
 40
6.0
 40
6.0
 40
7.0
 40
7.0
 40
7.0
 40
7.0
 10
770.475118130169
 20
-731.0442807156387
 30
0.0
 10
770.475118130169
 20
-731.0442807156387
 30
0.0
 10
766.4869821528246
 20
-731.0442807156387
 30
0.0
 10
766.4869821528246
 20
-731.0442807156387
 30
0.0
 10
766.4869821528246
 20
-731.0442807156387
 30
0.0
 10
654.737225398283
 20
-731.0442807156387
 30
0.0
 10
654.737225398283
 20
-731.0442807156387
 30
0.0
 10
654.737225398283
 20
-731.0442807156387
 30
0.0
 10
665.4552520927
 20
-720.326279376849
 30
0.0
 10
665.4552520927
 20
-720.326279376849
 30
0.0
 10
665.4552520927
 20
-720.326279376849
 30
0.0
 10
674.4285073304709
 20
-711.3530748503345
 30
0.0
 10
674.4285073304709
 20
-711.3530748503345
 30
0.0
 10
674.4285073304709
 20
-711.3530748503345
 30
0.0
 10
822.1542486500894
 20
-730.3796082898334
 30
0.0
 10
822.1542486500894
 20
-730.3796082898334
 30
0.0
 10
822.1542486500894
 20
-730.6288541106032
 30
0.0
 10
822.1542486500894
 20
-730.7950348948689
 30
0.0
 10
822.1542486500894
 20
-731.0442807156387
 30
0.0
 10
822.1542486500894
 20
-731.0442807156387
 30
0.0
 10
770.475118130169
 20
-731.0442807156387
 30
0.0
 10
770.475118130169
 20
-731.0442807156387
 30
0.0
  0
HATCH
  5
62
330
45
100
AcDbEntity
  8
Layer 1
 62
    49
420
  4145215
100
AcDbHatch
 10
0.0
 20
0.0
 30
0.0
210
0.0
220
0.0
230
1.0
  2
SOLID
 70
     1
 71
     0
 91
       17
 92
        1
 93
        1
 72
     4
 94
        3
 73
     0
 74
     1
 95
      131
 96
      127
 40
0.0
 40
0.0
 40
0.0
 40
0.0
 40
1.0
 40
1.0
 40
1.0
 40
2.0
 40
2.0
 40
2.0
 40
3.0
 40
3.0
 40
3.0
 40
4.0
 40
4.0
 40
4.0
 40
5.0
 40
5.0
 40
5.0
 40
6.0
 40
6.0
 40
6.0
 40
7.0
 40
7.0
 40
7.0
 40
8.0
 40
8.0
 40
8.0
 40
9.0
 40
9.0
 40
9.0
 40
10.0
 40
10.0
 40
10.0
 40
11.0
 40
11.0
 40
11.0
 40
12.0
 40
12.0
 40
12.0
 40
13.0
 40
13.0
 40
13.0
 40
14.0
 40
14.0
 40
14.0
 40
15.0
 40
15.0
 40
15.0
 40
16.0
 40
16.0
 40
16.0
 40
17.0
 40
17.0
 40
17.0
 40
18.0
 40
18.0
 40
18.0
 40
19.0
 40
19.0
 40
19.0
 40
20.0
 40
20.0
 40
20.0
 40
21.0
 40
21.0
 40
21.0
 40
22.0
 40
22.0
 40
22.0
 40
23.0
 40
23.0
 40
23.0
 40
24.0
 40
24.0
 40
24.0
 40
25.0
 40
25.0
 40
25.0
 40
26.0
 40
26.0
 40
26.0
 40
27.0
 40
27.0
 40
27.0
 40
28.0
 40
28.0
 40
28.0
 40
29.0
 40
29.0
 40
29.0
 40
30.0
 40
30.0
 40
30.0
 40
31.0
 40
31.0
 40
31.0
 40
32.0
 40
32.0
 40
32.0
 40
33.0
 40
33.0
 40
33.0
 40
34.0
 40
34.0
 40
34.0
 40
35.0
 40
35.0
 40
35.0
 40
36.0
 40
36.0
 40
36.0
 40
37.0
 40
37.0
 40
37.0
 40
38.0
 40
38.0
 40
38.0
 40
39.0
 40
39.0
 40
39.0
 40
40.0
 40
40.0
 40
40.0
 40
41.0
 40
41.0
 40
41.0
 40
42.0
 40
42.0
 40
42.0
 40
42.0
 10
860.5395249638514
 20
-730.7950095392407
 10
860.5395249638514
 20
-730.7950095392407
 10
827.4715266340227
 20
-726.5576530967537
 10
827.4715266340227
 20
-726.5576530967537
 10
823.9819837207287
 20
-633.5851839609404
 10
749.0389633188242
 20
-558.6422142702904
 10
656.0664688273828
 20
-555.1526333235552
 10
656.0664688273828
 20
-555.1526333235552
 10
651.829137740524
 20
-522.0846730271687
 10
651.829137740524
 20
-522.0846730271687
 10
651.6630076675137
 20
-520.8383932120623
 10
650.5828579254176
 20
-519.924449609859
 10
649.3365781103112
 20
-520.0075400019914
 10
649.3365781103112
 20
-520.0075400019914
 10
649.3365781103112
 20
-520.0075400019914
 10
649.3365781103112
 20
-520.0075400019914
 10
649.3365781103112
 20
-520.0075400019914
 10
649.3365781103112
 20
-520.0075400019914
 10
649.3365781103112
 20
-520.0075400019914
 10
649.3365781103112
 20
-520.0075400019914
 10
649.3365781103112
 20
-520.0075400019914
 10
649.3365781103112
 20
-520.0075400019914
 10
649.3365781103112
 20
-520.0075400019914
 10
649.3365781103112
 20
-520.0075400019914
 10
649.3365781103112
 20
-520.0075400019914
 10
649.3365781103112
 20
-520.0075400019914
 10
649.3365781103112
 20
-520.0075400019914
 10
649.3365781103112
 20
-520.0075400019914
 10
649.3365781103112
 20
-520.0075400019914
 10
649.3365781103112
 20
-520.0075400019914
 10
649.3365781103112
 20
-520.0075400019914
 10
648.0902982952048
 20
-519.924449609859
 10
647.0101485531077
 20
-520.8383932120623
 10
646.8440184800984
 20
-522.0846730271687
 10
646.8440184800984
 20
-522.0846730271687
 10
642.6066873932386
 20
-555.1526333235552
 10
642.6066873932386
 20
-555.1526333235552
 10
549.6341929017981
 20
-558.6422142702904
 10
474.6912739224035
 20
-633.5851839609404
 10
471.2016295865988
 20
-726.5576530967537
 10
471.2016295865988
 20
-726.5576530967537
 10
438.133631256771
 20
-730.7950095392407
 10
438.133631256771
 20
-730.7950095392407
 10
436.8873514416646
 20
-730.9611903235063
 10
435.9734331950885
 20
-732.0412893543471
 10
436.0564982315937
 20
-733.2875691694535
 10
436.0564982315937
 20
-733.2875691694535
 10
436.0564982315937
 20
-733.2875691694535
 10
436.0564982315937
 20
-733.2875691694535
 10
436.0564982315937
 20
-733.2875691694535
 10
436.0564982315937
 20
-733.2875691694535
 10
436.0564982315937
 20
-733.2875691694535
 10
436.0564982315937
 20
-733.2875691694535
 10
436.0564982315937
 20
-733.2875691694535
 10
436.0564982315937
 20
-733.2875691694535
 10
436.0564982315937
 20
-733.2875691694535
 10
436.0564982315937
 20
-733.2875691694535
 10
436.0564982315937
 20
-733.2875691694535
 10
436.0564982315937
 20
-733.2875691694535
 10
436.0564982315937
 20
-733.2875691694535
 10
436.0564982315937
 20
-733.2875691694535
 10
435.9734331950885
 20
-734.5338489845599
 10
436.8873514416646
 20
-735.6139480154015
 10
438.133631256771
 20
-735.7801287996663
 10
438.133631256771
 20
-735.7801287996663
 10
471.2016295865988
 20
-740.0174852421533
 10
471.2016295865988
 20
-740.0174852421533
 10
474.6911724998918
 20
-832.9899797335947
 10
549.6341929017981
 20
-907.9328987129884
 10
642.6066873932386
 20
-911.4224923375386
 10
642.6066873932386
 20
-911.4224923375386
 10
646.8440184800984
 20
-944.490439956111
 10
646.8440184800984
 20
-944.490439956111
 10
647.0101485531077
 20
-945.7367197712174
 10
648.0902982952048
 20
-946.6506380177925
 10
649.3365781103112
 20
-946.5675729812883
 10
649.3365781103112
 20
-946.5675729812883
 10
649.3365781103112
 20
-946.5675729812883
 10
649.3365781103112
 20
-946.5675729812883
 10
649.3365781103112
 20
-946.5675729812883
 10
649.3365781103112
 20
-946.5675729812883
 10
649.3365781103112
 20
-946.5675729812883
 10
649.3365781103112
 20
-946.5675729812883
 10
649.3365781103112
 20
-946.5675729812883
 10
649.3365781103112
 20
-946.5675729812883
 10
649.3365781103112
 20
-946.5675729812883
 10
649.3365781103112
 20
-946.5675729812883
 10
649.3365781103112
 20
-946.5675729812883
 10
649.3365781103112
 20
-946.5675729812883
 10
649.3365781103112
 20
-946.5675729812883
 10
649.3365781103112
 20
-946.5675729812883
 10
650.5828579254176
 20
-946.6506380177925
 10
651.6630076675137
 20
-945.7367197712174
 10
651.829137740524
 20
-944.490439956111
 10
651.829137740524
 20
-944.490439956111
 10
656.0664688273828
 20
-911.4224923375386
 10
656.0664688273828
 20
-911.4224923375386
 10
749.0389633188242
 20
-907.9328987129884
 10
823.9818822982179
 20
-832.9899290223384
 10
827.4715266340227
 20
-740.0174852421533
 10
827.4715266340227
 20
-740.0174852421533
 10
860.5395249638514
 20
-735.7801287996663
 10
860.5395249638514
 20
-735.7801287996663
 10
861.7858047789578
 20
-735.6139480154015
 10
862.6997230255329
 20
-734.5338489845599
 10
862.6166579890287
 20
-733.2875691694535
 10
862.6166579890287
 20
-733.2875691694535
 10
862.6166579890287
 20
-733.2875691694535
 10
862.6166579890287
 20
-733.2875691694535
 10
862.6166579890287
 20
-733.2875691694535
 10
862.6166579890287
 20
-733.2875691694535
 10
862.6166579890287
 20
-733.2875691694535
 10
862.6166579890287
 20
-733.2875691694535
 10
862.6166579890287
 20
-733.2875691694535
 10
862.6166579890287
 20
-733.2875691694535
 10
862.6166579890287
 20
-733.2875691694535
 10
862.6166579890287
 20
-733.2875691694535
 10
862.6166579890287
 20
-733.2875691694535
 10
862.6166579890287
 20
-733.2875691694535
 10
862.6166579890287
 20
-733.2875691694535
 10
862.6166579890287
 20
-733.2875691694535
 10
862.6166579890287
 20
-733.2875691694535
 10
862.6166579890287
 20
-733.2875691694535
 10
862.6166579890287
 20
-733.2875691694535
 10
862.6998244480437
 20
-732.0412893543471
 10
861.7858047789578
 20
-730.9611903235063
 10
860.5395249638514
 20
-730.7950095392407
 97
        0
 97
        0
 92
        1
 93
        1
 72
     4
 94
        3
 73
     0
 74
     1
 95
       71
 96
       67
 40
0.0
 40
0.0
 40
0.0
 40
0.0
 40
1.0
 40
1.0
 40
1.0
 40
2.0
 40
2.0
 40
2.0
 40
3.0
 40
3.0
 40
3.0
 40
4.0
 40
4.0
 40
4.0
 40
5.0
 40
5.0
 40
5.0
 40
6.0
 40
6.0
 40
6.0
 40
7.0
 40
7.0
 40
7.0
 40
8.0
 40
8.0
 40
8.0
 40
9.0
 40
9.0
 40
9.0
 40
10.0
 40
10.0
 40
10.0
 40
11.0
 40
11.0
 40
11.0
 40
12.0
 40
12.0
 40
12.0
 40
13.0
 40
13.0
 40
13.0
 40
14.0
 40
14.0
 40
14.0
 40
15.0
 40
15.0
 40
15.0
 40
16.0
 40
16.0
 40
16.0
 40
17.0
 40
17.0
 40
17.0
 40
18.0
 40
18.0
 40
18.0
 40
19.0
 40
19.0
 40
19.0
 40
20.0
 40
20.0
 40
20.0
 40
21.0
 40
21.0
 40
21.0
 40
22.0
 40
22.0
 40
22.0
 40
22.0
 10
480.1749862468805
 20
-696.8962087105974
 10
480.1749862468805
 20
-696.8962087105974
 10
499.2846100785118
 20
-692.9081234445075
 10
499.2846100785118
 20
-692.9081234445075
 10
499.2846100785118
 20
-692.9081234445075
 10
484.7446789022706
 20
-679.9468082962758
 10
484.7446789022706
 20
-679.9468082962758
 10
487.6526651375189
 20
-671.0566688062654
 10
491.2253745098278
 20
-662.4988908847863
 10
495.4627055966876
 20
-654.3565395683418
 10
495.4627055966876
 20
-654.3565395683418
 10
514.821625960345
 20
-655.4366385991834
 10
514.821625960345
 20
-655.4366385991834
 10
514.821625960345
 20
-655.4366385991834
 10
504.2698307614482
 20
-639.3180913949327
 10
504.2698307614482
 20
-639.3180913949327
 10
509.3380150583789
 20
-631.5080762913913
 10
515.0709224923703
 20
-624.1134877928853
 10
521.3023215679032
 20
-617.2173909359199
 10
521.3023215679032
 20
-617.2173909359199
 10
539.4980271529585
 20
-623.199544190682
 10
539.4980271529585
 20
-623.199544190682
 10
539.4980271529585
 20
-623.199544190682
 10
533.5159246094527
 20
-605.0869543533863
 10
533.5159246094527
 20
-605.0869543533863
 10
540.4120468220453
 20
-598.8555552778544
 10
547.8897257126837
 20
-593.1226731994902
 10
555.6996647493415
 20
-588.0544635469323
 10
555.6996647493415
 20
-588.0544635469323
 10
571.5689407771952
 20
-598.4401286728189
 10
571.5689407771952
 20
-598.4401286728189
 10
571.5689407771952
 20
-598.4401286728189
 10
570.4887910350981
 20
-579.4135952333199
 10
570.4887910350981
 20
-579.4135952333199
 10
578.7973231358073
 20
-575.176238790832
 10
587.4382168050479
 20
-571.6035801297785
 10
596.411370620307
 20
-568.6955938945302
 10
596.411370620307
 20
-568.6955938945302
 10
609.0402988443811
 20
-582.820098465736
 10
609.0402988443811
 20
-582.820098465736
 10
609.0402988443811
 20
-582.820098465736
 10
612.8622033262054
 20
-564.2920693455908
 10
612.8622033262054
 20
-564.2920693455908
 10
622.2508851690109
 20
-562.2980267125467
 10
631.8887621213316
 20
-561.0517468974404
 10
641.6927691466626
 20
-560.6363202924049
 10
641.6927691466626
 20
-560.6363202924049
 10
634.9628784295901
 20
-612.9800598490601
 10
634.9628784295901
 20
-612.9800598490601
 10
608.8740673488601
 20
-616.0542268685731
 10
585.2778158983438
 20
-627.436900633169
 10
566.9990452767825
 20
-644.3863010474906
 10
566.9990452767825
 20
-644.3863010474906
 10
545.5629918879476
 20
-629.6801890869838
 10
545.5629918879476
 20
-629.6801890869838
 10
545.5629918879476
 20
-629.6801890869838
 10
560.2690531371991
 20
-651.1161917645632
 10
560.2690531371991
 20
-651.1161917645632
 10
543.3196273672502
 20
-669.4780527782568
 10
531.9369789582825
 20
-693.0742788731459
 10
528.8627612275131
 20
-719.0799742061154
 10
528.8627612275131
 20
-719.0799742061154
 10
476.5190089930438
 20
-725.8098902788151
 10
476.5190089930438
 20
-725.8098902788151
 10
476.934638443101
 20
-715.9227421500964
 10
478.1809182582074
 20
-706.2848398421484
 10
480.1749862468805
 20
-696.8962087105974
 97
        0
 97
        0
 92
        1
 93
        1
 72
     4
 94
        3
 73
     0
 74
     1
 95
       14
 96
       10
 40
0.0
 40
0.0
 40
0.0
 40
0.0
 40
1.0
 40
1.0
 40
1.0
 40
2.0
 40
2.0
 40
2.0
 40
3.0
 40
3.0
 40
3.0
 40
3.0
 10
570.4056245760821
 20
-646.6295895013054
 10
587.7704769510674
 20
-630.7602881178245
 10
609.9542170909572
 20
-620.1253771711681
 10
634.4643867880495
 20
-617.0512101516542
 10
634.4643867880495
 20
-617.0512101516542
 10
625.7404280823048
 20
-684.599565988171
 10
625.7404280823048
 20
-684.599565988171
 10
625.7404280823048
 20
-684.599565988171
 10
570.4056245760821
 20
-646.6295895013054
 10
570.4056245760821
 20
-646.6295895013054
 97
        0
 97
        0
 92
        1
 93
        1
 72
     4
 94
        3
 73
     0
 74
     1
 95
       14
 96
       10
 40
0.0
 40
0.0
 40
0.0
 40
0.0
 40
1.0
 40
1.0
 40
1.0
 40
2.0
 40
2.0
 40
2.0
 40
3.0
 40
3.0
 40
3.0
 40
3.0
 10
600.5656366706617
 20
-709.8575238588292
 10
600.5656366706617
 20
-709.8575238588292
 10
533.0172301228904
 20
-718.5814825645748
 10
533.0172301228904
 20
-718.5814825645748
 10
536.0913464311479
 20
-694.0713128674815
 10
546.8093731255649
 20
-671.8875220163363
 10
562.6786491534185
 20
-654.5226949969792
 10
562.6786491534185
 20
-654.5226949969792
 10
600.5656366706617
 20
-709.8575238588292
 10
600.5656366706617
 20
-709.8575238588292
 97
        0
 97
        0
 92
        1
 93
        1
 72
     4
 94
        3
 73
     0
 74
     1
 95
       71
 96
       67
 40
0.0
 40
0.0
 40
0.0
 40
0.0
 40
1.0
 40
1.0
 40
1.0
 40
2.0
 40
2.0
 40
2.0
 40
3.0
 40
3.0
 40
3.0
 40
4.0
 40
4.0
 40
4.0
 40
5.0
 40
5.0
 40
5.0
 40
6.0
 40
6.0
 40
6.0
 40
7.0
 40
7.0
 40
7.0
 40
8.0
 40
8.0
 40
8.0
 40
9.0
 40
9.0
 40
9.0
 40
10.0
 40
10.0
 40
10.0
 40
11.0
 40
11.0
 40
11.0
 40
12.0
 40
12.0
 40
12.0
 40
13.0
 40
13.0
 40
13.0
 40
14.0
 40
14.0
 40
14.0
 40
15.0
 40
15.0
 40
15.0
 40
16.0
 40
16.0
 40
16.0
 40
17.0
 40
17.0
 40
17.0
 40
18.0
 40
18.0
 40
18.0
 40
19.0
 40
19.0
 40
19.0
 40
20.0
 40
20.0
 40
20.0
 40
21.0
 40
21.0
 40
21.0
 40
22.0
 40
22.0
 40
22.0
 40
22.0
 10
613.6930565362763
 20
-902.5323528475274
 10
613.6930565362763
 20
-902.5323528475274
 10
609.6218555224259
 20
-883.0903674473648
 10
609.6218555224259
 20
-883.0903674473648
 10
609.6218555224259
 20
-883.0903674473648
 10
596.3282041612911
 20
-897.9626601921373
 10
596.3282041612911
 20
-897.9626601921373
 10
587.5211804190412
 20
-895.137738993395
 10
579.0464168228118
 20
-891.6481960801011
 10
570.9871812541278
 20
-887.4939300297465
 10
570.9871812541278
 20
-887.4939300297465
 10
572.1503960327291
 20
-867.6365180245484
 10
572.1503960327291
 20
-867.6365180245484
 10
572.1503960327291
 20
-867.6365180245484
 10
555.5333318313105
 20
-878.5206747919747
 10
555.5333318313105
 20
-878.5206747919747
 10
547.806356408646
 20
-873.5355555315491
 10
540.4949090135287
 20
-867.8857638453192
 10
533.6818518374403
 20
-861.8205455540519
 10
533.6818518374403
 20
-861.8205455540519
 10
539.9132509129722
 20
-843.0432832909501
 10
539.9132509129722
 20
-843.0432832909501
 10
539.9132509129722
 20
-843.0432832909501
 10
521.0529236133661
 20
-849.274682366482
 10
521.0529236133661
 20
-849.274682366482
 10
514.9045895743393
 20
-842.4616759016499
 10
509.254848599363
 20
-835.1501777952762
 10
504.2697293389374
 20
-827.5063181203732
 10
504.2697293389374
 20
-827.5063181203732
 10
515.1538861063646
 20
-810.9723189554588
 10
515.1538861063646
 20
-810.9723189554588
 10
515.1538861063646
 20
-810.9723189554588
 10
495.3795391376716
 20
-812.0524179863005
 10
495.3795391376716
 20
-812.0524179863005
 10
491.225273087317
 20
-803.910066669856
 10
487.652563715008
 20
-795.435353784882
 10
484.8277439387748
 20
-786.6283300426312
 10
484.8277439387748
 20
-786.6283300426312
 10
499.6169716470422
 20
-773.4177690736287
 10
499.6169716470422
 20
-773.4177690736287
 10
499.6169716470422
 20
-773.4177690736287
 10
480.2580512833847
 20
-769.3465934154065
 10
480.2580512833847
 20
-769.3465934154065
 10
478.2639832947125
 20
-760.1241177124939
 10
477.1007685161112
 20
-750.5693057966782
 10
476.6022768745706
 20
-740.8483384522242
 10
476.6022768745706
 20
-740.8483384522242
 10
528.94602910904
 20
-747.5782545249249
 10
528.94602910904
 20
-747.5782545249249
 10
532.0201454172984
 20
-773.6670402500276
 10
543.402895248777
 20
-797.263291700543
 10
560.3523210187259
 20
-815.5420623221053
 10
560.3523210187259
 20
-815.5420623221053
 10
545.6462597694754
 20
-836.9780649996828
 10
545.6462597694754
 20
-836.9780649996828
 10
545.6462597694754
 20
-836.9780649996828
 10
567.0823131583093
 20
-822.2719530391769
 10
567.0823131583093
 20
-822.2719530391769
 10
585.4441488163748
 20
-839.2213788091267
 10
609.040400266892
 20
-850.6040272180944
 10
635.0461463111169
 20
-853.6781942376074
 10
635.0461463111169
 20
-853.6781942376074
 10
641.7760370281894
 20
-906.0219464720758
 10
641.7760370281894
 20
-906.0219464720758
 10
632.1380586533578
 20
-905.6065198670403
 10
622.7493768105514
 20
-904.4433557996945
 10
613.6930565362763
 20
-902.5323528475274
 97
        0
 97
        0
 92
        1
 93
        1
 72
     4
 94
        3
 73
     0
 74
     1
 95
       14
 96
       10
 40
0.0
 40
0.0
 40
0.0
 40
0.0
 40
1.0
 40
1.0
 40
1.0
 40
2.0
 40
2.0
 40
2.0
 40
3.0
 40
3.0
 40
3.0
 40
3.0
 10
562.5955841169134
 20
-812.135533734061
 10
546.7263080890607
 20
-794.7706813590758
 10
536.0913464311479
 20
-772.5869158635578
 10
533.0172301228904
 20
-748.0767461664655
 10
533.0172301228904
 20
-748.0767461664655
 10
600.5656366706617
 20
-756.8007048722102
 10
600.5656366706617
 20
-756.8007048722102
 10
600.5656366706617
 20
-756.8007048722102
 10
562.5955841169134
 20
-812.135533734061
 10
562.5955841169134
 20
-812.135533734061
 97
        0
 97
        0
 92
        1
 93
        1
 72
     4
 94
        3
 73
     0
 74
     1
 95
       14
 96
       10
 40
0.0
 40
0.0
 40
0.0
 40
0.0
 40
1.0
 40
1.0
 40
1.0
 40
2.0
 40
2.0
 40
2.0
 40
3.0
 40
3.0
 40
3.0
 40
3.0
 10
625.7404280823048
 20
-782.0586373872411
 10
625.7404280823048
 20
-782.0586373872411
 10
634.4643867880495
 20
-849.606993223757
 10
634.4643867880495
 20
-849.606993223757
 10
609.9542170909572
 20
-846.532826204244
 10
587.7704769510674
 20
-835.8148502210825
 10
570.4056245760821
 20
-819.9455234819743
 10
570.4056245760821
 20
-819.9455234819743
 10
625.7404280823048
 20
-782.0586373872411
 10
625.7404280823048
 20
-782.0586373872411
 97
        0
 97
        0
 92
        1
 93
        1
 72
     4
 94
        3
 73
     0
 74
     1
 95
       26
 96
       22
 40
0.0
 40
0.0
 40
0.0
 40
0.0
 40
1.0
 40
1.0
 40
1.0
 40
2.0
 40
2.0
 40
2.0
 40
3.0
 40
3.0
 40
3.0
 40
4.0
 40
4.0
 40
4.0
 40
5.0
 40
5.0
 40
5.0
 40
6.0
 40
6.0
 40
6.0
 40
7.0
 40
7.0
 40
7.0
 40
7.0
 10
633.965895146509
 20
-745.4180311076152
 10
633.965895146509
 20
-745.4180311076152
 10
624.0787216621629
 20
-755.3051792363331
 10
624.0787216621629
 20
-755.3051792363331
 10
624.0787216621629
 20
-755.3051792363331
 10
476.3529803425454
 20
-736.2786457968341
 10
476.3529803425454
 20
-736.2786457968341
 10
476.3529803425454
 20
-736.0293999760643
 10
476.3529803425454
 20
-735.8632191917986
 10
476.3529803425454
 20
-735.6139733710288
 10
476.3529803425454
 20
-735.6139733710288
 10
528.0320094399531
 20
-735.6139733710288
 10
528.0320094399531
 20
-735.6139733710288
 10
528.0320094399531
 20
-735.6139733710288
 10
532.0201454172984
 20
-735.6139733710288
 10
532.0201454172984
 20
-735.6139733710288
 10
532.0201454172984
 20
-735.6139733710288
 10
643.7699021718399
 20
-735.6139733710288
 10
643.7699021718399
 20
-735.6139733710288
 10
643.7699021718399
 20
-735.6139733710288
 10
633.965895146509
 20
-745.4180311076152
 10
633.965895146509
 20
-745.4180311076152
 97
        0
 97
        0
 92
        1
 93
        1
 72
     4
 94
        3
 73
     0
 74
     1
 95
       35
 96
       31
 40
0.0
 40
0.0
 40
0.0
 40
0.0
 40
1.0
 40
1.0
 40
1.0
 40
2.0
 40
2.0
 40
2.0
 40
3.0
 40
3.0
 40
3.0
 40
4.0
 40
4.0
 40
4.0
 40
5.0
 40
5.0
 40
5.0
 40
6.0
 40
6.0
 40
6.0
 40
7.0
 40
7.0
 40
7.0
 40
8.0
 40
8.0
 40
8.0
 40
9.0
 40
9.0
 40
9.0
 40
10.0
 40
10.0
 40
10.0
 40
10.0
 10
647.0102499756185
 20
-612.149181283361
 10
647.0102499756185
 20
-612.149181283361
 10
647.0102499756185
 20
-616.1372665494509
 10
647.0102499756185
 20
-616.1372665494509
 10
647.0102499756185
 20
-616.1372665494509
 10
647.0102499756185
 20
-727.8870233039925
 10
647.0102499756185
 20
-727.8870233039925
 10
647.0102499756185
 20
-727.8870233039925
 10
643.1883454937943
 20
-724.0650934665409
 10
643.1883454937943
 20
-724.0650934665409
 10
643.1883454937943
 20
-724.0650934665409
 10
627.3190694659415
 20
-708.19579208306
 10
627.3190694659415
 20
-708.19579208306
 10
627.3190694659415
 20
-708.19579208306
 10
639.2003109389607
 20
-616.2203569415833
 10
639.2003109389607
 20
-616.2203569415833
 10
639.2003109389607
 20
-616.2203569415833
 10
639.6988025805013
 20
-612.4815174962641
 10
639.6988025805013
 20
-612.4815174962641
 10
639.6988025805013
 20
-612.4815174962641
 10
646.4286932975738
 20
-560.4701014746979
 10
646.4286932975738
 20
-560.4701014746979
 10
646.677989829599
 20
-560.4701014746979
 10
646.8441199026092
 20
-560.4701014746979
 10
647.0934164346345
 20
-560.4701014746979
 10
647.0934164346345
 20
-560.4701014746979
 10
647.0934164346345
 20
-612.149181283361
 10
647.0934164346345
 20
-612.149181283361
 10
647.0934164346345
 20
-612.149181283361
 10
647.0102499756185
 20
-612.149181283361
 10
647.0102499756185
 20
-612.149181283361
 97
        0
 97
        0
 92
        1
 93
        1
 72
     4
 94
        3
 73
     0
 74
     1
 95
       71
 96
       67
 40
0.0
 40
0.0
 40
0.0
 40
0.0
 40
1.0
 40
1.0
 40
1.0
 40
2.0
 40
2.0
 40
2.0
 40
3.0
 40
3.0
 40
3.0
 40
4.0
 40
4.0
 40
4.0
 40
5.0
 40
5.0
 40
5.0
 40
6.0
 40
6.0
 40
6.0
 40
7.0
 40
7.0
 40
7.0
 40
8.0
 40
8.0
 40
8.0
 40
9.0
 40
9.0
 40
9.0
 40
10.0
 40
10.0
 40
10.0
 40
11.0
 40
11.0
 40
11.0
 40
12.0
 40
12.0
 40
12.0
 40
13.0
 40
13.0
 40
13.0
 40
14.0
 40
14.0
 40
14.0
 40
15.0
 40
15.0
 40
15.0
 40
16.0
 40
16.0
 40
16.0
 40
17.0
 40
17.0
 40
17.0
 40
18.0
 40
18.0
 40
18.0
 40
19.0
 40
19.0
 40
19.0
 40
20.0
 40
20.0
 40
20.0
 40
21.0
 40
21.0
 40
21.0
 40
22.0
 40
22.0
 40
22.0
 40
22.0
 10
685.6449242439176
 20
-564.2920313121494
 10
685.6449242439176
 20
-564.2920313121494
 10
689.4668287257418
 20
-582.6538923258431
 10
689.4668287257418
 20
-582.6538923258431
 10
689.4668287257418
 20
-582.6538923258431
 10
702.0126919133108
 20
-568.6124781467697
 10
702.0126919133108
 20
-568.6124781467697
 10
711.0690121875859
 20
-571.520464382018
 10
719.7929708933307
 20
-575.0931230430715
 10
728.1015029940409
 20
-579.4135698776918
 10
728.1015029940409
 20
-579.4135698776918
 10
727.0213532519438
 20
-598.1077671042876
 10
727.0213532519438
 20
-598.1077671042876
 10
727.0213532519438
 20
-598.1077671042876
 10
742.6414341702821
 20
-587.8882827626667
 10
742.6414341702821
 20
-587.8882827626667
 10
750.617604702461
 20
-593.0395828073579
 10
758.0952835930984
 20
-598.7724648857211
 10
765.0744708421971
 20
-605.0869543533863
 10
765.0744708421971
 20
-605.0869543533863
 10
759.2584983717006
 20
-622.7841175856465
 10
759.2584983717006
 20
-622.7841175856465
 10
759.2584983717006
 20
-622.7841175856465
 10
777.0387773517214
 20
-616.9681451151491
 10
777.0387773517214
 20
-616.9681451151491
 10
783.3532414637575
 20
-623.9473070086196
 10
789.169213934254
 20
-631.424985899258
 10
794.3205646902006
 20
-639.3180913949327
 10
794.3205646902006
 20
-639.3180913949327
 10
784.1010296373242
 20
-654.9381216020147
 10
784.1010296373242
 20
-654.9381216020147
 10
784.1010296373242
 20
-654.9381216020147
 10
802.8782919004243
 20
-653.8580225711739
 10
802.8782919004243
 20
-653.8580225711739
 10
807.1986880237891
 20
-662.1665546718832
 10
810.8544624326041
 20
-670.8074229854956
 10
813.7624486678524
 20
-679.7806528676383
 10
813.7624486678524
 20
-679.7806528676383
 10
799.7210091331508
 20
-692.3265414108346
 10
799.7210091331508
 20
-692.3265414108346
 10
799.7210091331508
 20
-692.3265414108346
 10
818.2490762867383
 20
-696.148471248287
 10
818.2490762867383
 20
-696.148471248287
 10
820.3262093119156
 20
-705.786373556235
 10
821.6555541635262
 20
-715.6735216849538
 10
822.0709807685616
 20
-725.7268505979382
 10
822.0709807685616
 20
-725.7268505979382
 10
769.7272285340932
 20
-718.9969345252375
 10
769.7272285340932
 20
-718.9969345252375
 10
766.6531122258348
 20
-692.9081488001357
 10
755.2703623943562
 20
-669.3119227052466
 10
738.3209366244064
 20
-651.033126728058
 10
738.3209366244064
 20
-651.033126728058
 10
753.0269978736578
 20
-629.5971240504787
 10
753.0269978736578
 20
-629.5971240504787
 10
753.0269978736578
 20
-629.5971240504787
 10
731.590944484823
 20
-644.3032360109855
 10
731.590944484823
 20
-644.3032360109855
 10
713.2291088267575
 20
-627.3538355966639
 10
689.6328573762403
 20
-615.9711364764407
 10
663.6271113320154
 20
-612.896994812555
 10
663.6271113320154
 20
-612.896994812555
 10
656.8972206149429
 20
-560.5532425780857
 10
656.8972206149429
 20
-560.5532425780857
 10
666.6184668713013
 20
-560.9686184718657
 10
676.256343823623
 20
-562.2979886791054
 10
685.6449242439176
 20
-564.2920313121494
 97
        0
 97
        0
 92
        1
 93
        1
 72
     4
 94
        3
 73
     0
 74
     1
 95
       14
 96
       10
 40
0.0
 40
0.0
 40
0.0
 40
0.0
 40
1.0
 40
1.0
 40
1.0
 40
2.0
 40
2.0
 40
2.0
 40
3.0
 40
3.0
 40
3.0
 40
3.0
 10
735.9115434532096
 20
-654.4396046048469
 10
751.7808194810623
 20
-671.804431624204
 10
762.4157811389741
 20
-693.9882224753492
 10
765.4898974472326
 20
-718.4983921724415
 10
765.4898974472326
 20
-718.4983921724415
 10
697.9414908994604
 20
-709.7744334666968
 10
697.9414908994604
 20
-709.7744334666968
 10
697.9414908994604
 20
-709.7744334666968
 10
735.9115434532096
 20
-654.4396046048469
 10
735.9115434532096
 20
-654.4396046048469
 97
        0
 97
        0
 92
        1
 93
        1
 72
     4
 94
        3
 73
     0
 74
     1
 95
       14
 96
       10
 40
0.0
 40
0.0
 40
0.0
 40
0.0
 40
1.0
 40
1.0
 40
1.0
 40
2.0
 40
2.0
 40
2.0
 40
3.0
 40
3.0
 40
3.0
 40
3.0
 10
672.7666994878182
 20
-684.599565988171
 10
672.7666994878182
 20
-684.599565988171
 10
664.0427407820735
 20
-617.0512101516542
 10
664.0427407820735
 20
-617.0512101516542
 10
688.5529104791658
 20
-620.1253771711681
 10
710.7366506190556
 20
-630.8433785099578
 10
728.1015029940409
 20
-646.7126798934378
 10
728.1015029940409
 20
-646.7126798934378
 10
672.7666994878182
 20
-684.599565988171
 10
672.7666994878182
 20
-684.599565988171
 97
        0
 97
        0
 92
        1
 93
        1
 72
     4
 94
        3
 73
     0
 74
     1
 95
       23
 96
       19
 40
0.0
 40
0.0
 40
0.0
 40
0.0
 40
1.0
 40
1.0
 40
1.0
 40
2.0
 40
2.0
 40
2.0
 40
3.0
 40
3.0
 40
3.0
 40
4.0
 40
4.0
 40
4.0
 40
5.0
 40
5.0
 40
5.0
 40
6.0
 40
6.0
 40
6.0
 40
6.0
 10
652.1616007315652
 20
-906.1881272563423
 10
651.912304199539
 20
-906.1881272563423
 10
651.7461741265297
 20
-906.1881272563423
 10
651.4968775945035
 20
-906.1881272563423
 10
651.4968775945035
 20
-906.1881272563423
 10
651.4968775945035
 20
-854.5090474476783
 10
651.4968775945035
 20
-854.5090474476783
 10
651.4968775945035
 20
-854.5090474476783
 10
651.4968775945035
 20
-850.5209621815884
 10
651.4968775945035
 20
-850.5209621815884
 10
651.4968775945035
 20
-850.5209621815884
 10
651.4968775945035
 20
-738.7712054270469
 10
651.4968775945035
 20
-738.7712054270469
 10
651.4968775945035
 20
-738.7712054270469
 10
671.1880581041805
 20
-758.4624366479802
 10
671.1880581041805
 20
-758.4624366479802
 10
671.1880581041805
 20
-758.4624366479802
 10
652.1616007315652
 20
-906.1881272563423
 10
652.1616007315652
 20
-906.1881272563423
 97
        0
 97
        0
 92
        1
 93
        1
 72
     4
 94
        3
 73
     0
 74
     1
 95
       14
 96
       10
 40
0.0
 40
0.0
 40
0.0
 40
0.0
 40
1.0
 40
1.0
 40
1.0
 40
2.0
 40
2.0
 40
2.0
 40
3.0
 40
3.0
 40
3.0
 40
3.0
 10
728.1016044165517
 20
-819.9455741932288
 10
710.7367520415664
 20
-835.8148502210825
 10
688.5530119016767
 20
-846.4498118789943
 10
664.0428422045843
 20
-849.5239281872527
 10
664.0428422045843
 20
-849.5239281872527
 10
672.766800910329
 20
-781.9755723507369
 10
672.766800910329
 20
-781.9755723507369
 10
672.766800910329
 20
-781.9755723507369
 10
728.1016044165517
 20
-819.9455741932288
 10
728.1016044165517
 20
-819.9455741932288
 97
        0
 97
        0
 92
        1
 93
        1
 72
     4
 94
        3
 73
     0
 74
     1
 95
       14
 96
       10
 40
0.0
 40
0.0
 40
0.0
 40
0.0
 40
1.0
 40
1.0
 40
1.0
 40
2.0
 40
2.0
 40
2.0
 40
3.0
 40
3.0
 40
3.0
 40
3.0
 10
697.9415923219722
 20
-756.8007302278384
 10
697.9415923219722
 20
-756.8007302278384
 10
765.4899988697434
 20
-748.0767715220927
 10
765.4899988697434
 20
-748.0767715220927
 10
762.415882561485
 20
-772.586941219186
 10
751.6978558670689
 20
-794.7707320703303
 10
735.8285798392153
 20
-812.135533734061
 10
735.8285798392153
 20
-812.135533734061
 10
697.9415923219722
 20
-756.8007302278384
 10
697.9415923219722
 20
-756.8007302278384
 97
        0
 97
        0
 92
        1
 93
        1
 72
     4
 94
        3
 73
     0
 74
     1
 95
       71
 96
       67
 40
0.0
 40
0.0
 40
0.0
 40
0.0
 40
1.0
 40
1.0
 40
1.0
 40
2.0
 40
2.0
 40
2.0
 40
3.0
 40
3.0
 40
3.0
 40
4.0
 40
4.0
 40
4.0
 40
5.0
 40
5.0
 40
5.0
 40
6.0
 40
6.0
 40
6.0
 40
7.0
 40
7.0
 40
7.0
 40
8.0
 40
8.0
 40
8.0
 40
9.0
 40
9.0
 40
9.0
 40
10.0
 40
10.0
 40
10.0
 40
11.0
 40
11.0
 40
11.0
 40
12.0
 40
12.0
 40
12.0
 40
13.0
 40
13.0
 40
13.0
 40
14.0
 40
14.0
 40
14.0
 40
15.0
 40
15.0
 40
15.0
 40
16.0
 40
16.0
 40
16.0
 40
17.0
 40
17.0
 40
17.0
 40
18.0
 40
18.0
 40
18.0
 40
19.0
 40
19.0
 40
19.0
 40
20.0
 40
20.0
 40
20.0
 40
21.0
 40
21.0
 40
21.0
 40
22.0
 40
22.0
 40
22.0
 40
22.0
 10
818.4983728187635
 20
-768.931166810371
 10
818.4983728187635
 20
-768.931166810371
 10
799.8041755921677
 20
-772.8361870399567
 10
799.8041755921677
 20
-772.8361870399567
 10
799.8041755921677
 20
-772.8361870399567
 10
814.0948102363836
 20
-785.6313467595501
 10
814.0948102363836
 20
-785.6313467595501
 10
811.2698890376396
 20
-794.6045512860655
 10
807.6972810878415
 20
-803.1623292075456
 10
803.5430150374868
 20
-811.4708613082548
 10
803.5430150374868
 20
-811.4708613082548
 10
784.3503261693495
 20
-810.3907622774132
 10
784.3503261693495
 20
-810.3907622774132
 10
784.3503261693495
 20
-810.3907622774132
 10
794.9021213682463
 20
-826.509334837292
 10
794.9021213682463
 20
-826.509334837292
 10
789.8339370713165
 20
-834.3193752964617
 10
784.1840946738284
 20
-841.7139384393395
 10
778.0357606348025
 20
-848.6931256884382
 10
778.0357606348025
 20
-848.6931256884382
 10
759.6739249767361
 20
-842.6279073971709
 10
759.6739249767361
 20
-842.6279073971709
 10
759.6739249767361
 20
-842.6279073971709
 10
765.7391939792578
 20
-861.072858802996
 10
765.7391939792578
 20
-861.072858802996
 10
758.926238225682
 20
-867.304257878528
 10
751.6146894080521
 20
-873.0371653125203
 10
743.8046489488834
 20
-878.1053496094501
 10
743.8046489488834
 20
-878.1053496094501
 10
727.5199463159952
 20
-867.4704386627945
 10
727.5199463159952
 20
-867.4704386627945
 10
727.5199463159952
 20
-867.4704386627945
 10
728.6000960580914
 20
-887.0785541359655
 10
728.6000960580914
 20
-887.0785541359655
 10
720.4576940303923
 20
-891.3158852228262
 10
711.9830318566728
 20
-894.8885945951351
 10
703.176008114423
 20
-897.7965808303834
 10
703.176008114423
 20
-897.7965808303834
 10
690.0484868262974
 20
-882.9242373743564
 10
690.0484868262974
 20
-882.9242373743564
 10
690.0484868262974
 20
-882.9242373743564
 10
686.060350848953
 20
-902.2831070267566
 10
686.060350848953
 20
-902.2831070267566
 10
676.5886039696416
 20
-904.3602400519339
 10
666.7845969443115
 20
-905.6065198670403
 10
656.8143584234604
 20
-906.0219464720758
 10
656.8143584234604
 20
-906.0219464720758
 10
663.5442491405329
 20
-853.6781942376074
 10
663.5442491405329
 20
-853.6781942376074
 10
689.633060221262
 20
-850.6040272180944
 10
713.2293116717792
 20
-839.2213280978704
 10
731.5080822933396
 20
-822.2719530391769
 10
731.5080822933396
 20
-822.2719530391769
 10
752.9441356821753
 20
-836.9780649996828
 10
752.9441356821753
 20
-836.9780649996828
 10
752.9441356821753
 20
-836.9780649996828
 10
738.2380744329239
 20
-815.5420623221053
 10
738.2380744329239
 20
-815.5420623221053
 10
755.1875002028737
 20
-797.1802266640389
 10
766.5701486118396
 20
-773.5839752135216
 10
769.6443663426089
 20
-747.5782798805521
 10
769.6443663426089
 20
-747.5782798805521
 10
821.9881185770791
 20
-740.8483638078524
 10
821.9881185770791
 20
-740.8483638078524
 10
821.5725905495328
 20
-750.4031503680408
 10
820.4093757709306
 20
-759.7917814995908
 10
818.4983728187635
 20
-768.931166810371
 97
        0
 97
        0
 92
        1
 93
        1
 72
     4
 94
        3
 73
     0
 74
     1
 95
       26
 96
       22
 40
0.0
 40
0.0
 40
0.0
 40
0.0
 40
1.0
 40
1.0
 40
1.0
 40
2.0
 40
2.0
 40
2.0
 40
3.0
 40
3.0
 40
3.0
 40
4.0
 40
4.0
 40
4.0
 40
5.0
 40
5.0
 40
5.0
 40
6.0
 40
6.0
 40
6.0
 40
7.0
 40
7.0
 40
7.0
 40
7.0
 10
770.475118130169
 20
-731.0442807156387
 10
770.475118130169
 20
-731.0442807156387
 10
766.4869821528246
 20
-731.0442807156387
 10
766.4869821528246
 20
-731.0442807156387
 10
766.4869821528246
 20
-731.0442807156387
 10
654.737225398283
 20
-731.0442807156387
 10
654.737225398283
 20
-731.0442807156387
 10
654.737225398283
 20
-731.0442807156387
 10
665.4552520927
 20
-720.326279376849
 10
665.4552520927
 20
-720.326279376849
 10
665.4552520927
 20
-720.326279376849
 10
674.4285073304709
 20
-711.3530748503345
 10
674.4285073304709
 20
-711.3530748503345
 10
674.4285073304709
 20
-711.3530748503345
 10
822.1542486500894
 20
-730.3796082898334
 10
822.1542486500894
 20
-730.3796082898334
 10
822.1542486500894
 20
-730.6288541106032
 10
822.1542486500894
 20
-730.7950348948689
 10
822.1542486500894
 20
-731.0442807156387
 10
822.1542486500894
 20
-731.0442807156387
 10
770.475118130169
 20
-731.0442807156387
 10
770.475118130169
 20
-731.0442807156387
 97
        0
 97
        0
 75
     2
 76
     1
 98
        0
  0
ENDBLK
  5
48
330
45
100
AcDbEntity
  8
0
100
AcDbBlockEnd
  0
ENDSEC
  0
SECTION
  2
ENTITIES
  0
INSERT
  5
42
330
1F
100
AcDbEntity
  8
Layer 1
100
AcDbBlockReference
  2
block 2
 10
0.0
 20
0.0
 30
0.0
  0
ENDSEC
  0
SECTION
  2
OBJECTS
  0
DICTIONARY
  5
C
330
0
100
AcDbDictionary
281
     1
  3
ACAD_GROUP
350
D
  3
ACAD_LAYOUT
350
1A
  3
ACAD_MATERIAL
350
3B
  3
ACAD_MLEADERSTYLE
350
64
  3
ACAD_MLINESTYLE
350
17
  3
ACAD_PLOTSETTINGS
350
19
  3
ACAD_PLOTSTYLENAME
350
E
  3
ACAD_TABLESTYLE
350
63
  3
ACAD_VISUALSTYLE
350
2A
  0
SUN
  5
3F
330
29
100
AcDbSun
 90
        1
290
     0
 63
     7
421
 16777215
 40
1.0
291
     1
 91
  2455826
 92
 54000000
292
     0
 70
     2
 71
   256
280
     1
  0
DICTIONARY
  5
D
102
{ACAD_REACTORS
330
C
102
}
330
C
100
AcDbDictionary
281
     1
  0
DICTIONARY
  5
1A
102
{ACAD_REACTORS
330
C
102
}
330
C
100
AcDbDictionary
281
     1
  3
Layout1
350
1E
  3
Layout2
350
26
  3
Model
350
22
  0
DICTIONARY
  5
3B
102
{ACAD_REACTORS
330
C
102
}
330
C
100
AcDbDictionary
281
     1
  3
ByBlock
350
3D
  3
ByLayer
350
3C
  3
Global
350
3E
  0
DICTIONARY
  5
64
102
{ACAD_REACTORS
330
C
102
}
330
C
100
AcDbDictionary
281
     1
  0
DICTIONARY
  5
17
102
{ACAD_REACTORS
330
C
102
}
330
C
100
AcDbDictionary
281
     1
  3
Standard
350
18
  0
DICTIONARY
  5
19
102
{ACAD_REACTORS
330
C
102
}
330
C
100
AcDbDictionary
281
     1
  0
ACDBDICTIONARYWDFLT
  5
E
102
{ACAD_REACTORS
330
C
102
}
330
C
100
AcDbDictionary
281
     1
  3
Normal
350
F
100
AcDbDictionaryWithDefault
340
F
  0
DICTIONARY
  5
63
102
{ACAD_REACTORS
330
C
102
}
330
C
100
AcDbDictionary
281
     1
  0
DICTIONARY
  5
2A
102
{ACAD_REACTORS
330
C
102
}
330
C
100
AcDbDictionary
281
     1
  3
2dWireframe
350
2F
  3
3D Hidden
350
31
  3
3dWireframe
350
30
  3
Basic
350
32
  3
Brighten
350
36
  3
ColorChange
350
3A
  3
Conceptual
350
34
  3
Dim
350
35
  3
Facepattern
350
39
  3
Flat
350
2B
  3
FlatWithEdges
350
2C
  3
Gouraud
350
2D
  3
GouraudWithEdges
350
2E
  3
Linepattern
350
38
  3
Realistic
350
33
  3
Thicken
350
37
  0
LAYOUT
  5
1E
102
{ACAD_REACTORS
330
1A
102
}
330
1A
100
AcDbPlotSettings
  1

  2
none_device
  4

  6

 40
0.0
 41
0.0
 42
0.0
 43
0.0
 44
0.0
 45
0.0
 46
0.0
 47
0.0
 48
0.0
 49
0.0
140
0.0
141
0.0
142
1.0
143
1.0
 70
   688
 72
     0
 73
     0
 74
     5
  7

 75
    16
 76
     0
 77
     2
 78
   300
147
1.0
148
0.0
149
0.0
100
AcDbLayout
  1
Layout1
 70
     1
 71
     1
 10
0.0
 20
0.0
 11
12.0
 21
9.0
 12
0.0
 22
0.0
 32
0.0
 14
1.000000000000000E+20
 24
1.000000000000000E+20
 34
1.000000000000000E+20
 15
-1.000000000000000E+20
 25
-1.000000000000000E+20
 35
-1.000000000000000E+20
146
0.0
 13
0.0
 23
0.0
 33
0.0
 16
1.0
 26
0.0
 36
0.0
 17
0.0
 27
1.0
 37
0.0
 76
     0
330
1B
  0
LAYOUT
  5
26
102
{ACAD_REACTORS
330
1A
102
}
330
1A
100
AcDbPlotSettings
  1

  2
none_device
  4

  6

 40
0.0
 41
0.0
 42
0.0
 43
0.0
 44
0.0
 45
0.0
 46
0.0
 47
0.0
 48
0.0
 49
0.0
140
0.0
141
0.0
142
1.0
143
1.0
 70
   688
 72
     0
 73
     0
 74
     5
  7

 75
    16
 76
     0
 77
     2
 78
   300
147
1.0
148
0.0
149
0.0
100
AcDbLayout
  1
Layout2
 70
     1
 71
     2
 10
0.0
 20
0.0
 11
0.0
 21
0.0
 12
0.0
 22
0.0
 32
0.0
 14
0.0
 24
0.0
 34
0.0
 15
0.0
 25
0.0
 35
0.0
146
0.0
 13
0.0
 23
0.0
 33
0.0
 16
1.0
 26
0.0
 36
0.0
 17
0.0
 27
1.0
 37
0.0
 76
     0
330
23
  0
LAYOUT
  5
22
102
{ACAD_REACTORS
330
1A
102
}
330
1A
100
AcDbPlotSettings
  1

  2
none_device
  4

  6

 40
0.0
 41
0.0
 42
0.0
 43
0.0
 44
0.0
 45
0.0
 46
0.0
 47
0.0
 48
0.0
 49
0.0
140
0.0
141
0.0
142
1.0
143
1.0
 70
  1712
 72
     0
 73
     0
 74
     0
  7

 75
     0
 76
     0
 77
     2
 78
   300
147
1.0
148
0.0
149
0.0
100
AcDbLayout
  1
Model
 70
     1
 71
     0
 10
0.0
 20
0.0
 11
12.0
 21
9.0
 12
0.0
 22
0.0
 32
0.0
 14
1.000000000000000E+20
 24
1.000000000000000E+20
 34
1.000000000000000E+20
 15
-1.000000000000000E+20
 25
-1.000000000000000E+20
 35
-1.000000000000000E+20
146
0.0
 13
0.0
 23
0.0
 33
0.0
 16
1.0
 26
0.0
 36
0.0
 17
0.0
 27
1.0
 37
0.0
 76
     0
330
1F
331
29
  0
MATERIAL
  5
3D
102
{ACAD_REACTORS
330
3B
102
}
330
3B
100
AcDbMaterial
  1
ByBlock
 72
     1
 94
      127
  0
MATERIAL
  5
3C
102
{ACAD_REACTORS
330
3B
102
}
330
3B
100
AcDbMaterial
  1
ByLayer
 72
     1
 94
      127
  0
MATERIAL
  5
3E
102
{ACAD_REACTORS
330
3B
102
}
330
3B
100
AcDbMaterial
  1
Global
 72
     1
 94
      127
  0
MLINESTYLE
  5
18
102
{ACAD_REACTORS
330
17
102
}
330
17
100
AcDbMlineStyle
  2
Standard
 70
     0
  3

 62
   256
 51
90.0
 52
90.0
 71
     2
 49
0.5
 62
   256
  6
BYLAYER
 49
-0.5
 62
   256
  6
BYLAYER
  0
ACDBPLACEHOLDER
  5
F
102
{ACAD_REACTORS
330
E
102
}
330
E
  0
VISUALSTYLE
  5
2F
102
{ACAD_REACTORS
330
2A
102
}
330
2A
100
AcDbVisualStyle
  2
2dWireframe
 70
     4
177
     2
291
     0
 71
     0
176
     1
 72
     2
176
     1
 73
     0
176
     1
 90
        0
176
     1
 40
-0.6
176
     1
 41
-30.0
176
     1
 62
     5
 63
     7
421
 16777215
176
     1
 74
     1
176
     1
 91
        4
176
     1
 64
     7
176
     1
 65
   257
176
     1
 75
     1
176
     1
175
     1
176
     1
 42
1.0
176
     1
 92
        0
176
     1
 66
   257
176
     1
 43
1.0
176
     1
 76
     1
176
     1
 77
     6
176
     1
 78
     2
176
     1
 67
     7
176
     1
 79
     5
176
     1
170
     0
176
     1
171
     0
176
     1
290
     0
176
     1
 93
        1
176
     1
 44
0.0
176
     1
173
     0
176
     1
  0
VISUALSTYLE
  5
31
102
{ACAD_REACTORS
330
2A
102
}
330
2A
100
AcDbVisualStyle
  2
3D Hidden
 70
     6
177
     2
291
     0
 71
     1
176
     1
 72
     2
176
     1
 73
     2
176
     1
 90
        0
176
     1
 40
-0.6
176
     1
 41
-30.0
176
     1
 62
     5
 63
     7
421
 16777215
176
     1
 74
     2
176
     1
 91
        2
176
     1
 64
     7
176
     1
 65
   257
176
     1
 75
     2
176
     1
175
     1
176
     1
 42
40.0
176
     1
 92
        0
176
     1
 66
   257
176
     1
 43
1.0
176
     1
 76
     1
176
     1
 77
     6
176
     1
 78
     2
176
     1
 67
     7
176
     1
 79
     3
176
     1
170
     0
176
     1
171
     0
176
     1
290
     0
176
     1
 93
        1
176
     1
 44
0.0
176
     1
173
     0
176
     1
  0
VISUALSTYLE
  5
30
102
{ACAD_REACTORS
330
2A
102
}
330
2A
100
AcDbVisualStyle
  2
3dWireframe
 70
     5
177
     2
291
     0
 71
     0
176
     1
 72
     2
176
     1
 73
     0
176
     1
 90
        0
176
     1
 40
-0.6
176
     1
 41
-30.0
176
     1
 62
     5
 63
     7
421
 16777215
176
     1
 74
     1
176
     1
 91
        4
176
     1
 64
     7
176
     1
 65
   257
176
     1
 75
     1
176
     1
175
     1
176
     1
 42
1.0
176
     1
 92
        0
176
     1
 66
   257
176
     1
 43
1.0
176
     1
 76
     1
176
     1
 77
     6
176
     1
 78
     2
176
     1
 67
     7
176
     1
 79
     5
176
     1
170
     0
176
     1
171
     0
176
     1
290
     0
176
     1
 93
        1
176
     1
 44
0.0
176
     1
173
     0
176
     1
  0
VISUALSTYLE
  5
32
102
{ACAD_REACTORS
330
2A
102
}
330
2A
100
AcDbVisualStyle
  2
Basic
 70
     7
177
     2
291
     1
 71
     1
176
     1
 72
     0
176
     1
 73
     1
176
     1
 90
        0
176
     1
 40
-0.6
176
     1
 41
-30.0
176
     1
 62
     5
 63
     7
421
 16777215
176
     1
 74
     0
176
     1
 91
        4
176
     1
 64
     7
176
     1
 65
   257
176
     1
 75
     1
176
     1
175
     1
176
     1
 42
1.0
176
     1
 92
        8
176
     1
 66
     7
176
     1
 43
1.0
176
     1
 76
     1
176
     1
 77
     6
176
     1
 78
     2
176
     1
 67
     7
176
     1
 79
     5
176
     1
170
     0
176
     1
171
     0
176
     1
290
     0
176
     1
 93
        1
176
     1
 44
0.0
176
     1
173
     0
176
     1
  0
VISUALSTYLE
  5
36
102
{ACAD_REACTORS
330
2A
102
}
330
2A
100
AcDbVisualStyle
  2
Brighten
 70
    12
177
     2
291
     1
 71
     2
176
     1
 72
     2
176
     1
 73
     0
176
     1
 90
        0
176
     1
 40
-0.6
176
     1
 41
-30.0
176
     1
 62
     5
 63
     7
421
 16777215
176
     1
 74
     1
176
     1
 91
        4
176
     1
 64
     7
176
     1
 65
   257
176
     1
 75
     1
176
     1
175
     1
176
     1
 42
1.0
176
     1
 92
        8
176
     1
 66
     7
176
     1
 43
1.0
176
     1
 76
     1
176
     1
 77
     6
176
     1
 78
     2
176
     1
 67
     7
176
     1
 79
     5
176
     1
170
     0
176
     1
171
     0
176
     1
290
     0
176
     1
 93
        1
176
     1
 44
50.0
176
     1
173
     0
176
     1
  0
VISUALSTYLE
  5
3A
102
{ACAD_REACTORS
330
2A
102
}
330
2A
100
AcDbVisualStyle
  2
ColorChange
 70
    16
177
     2
291
     1
 71
     2
176
     1
 72
     2
176
     1
 73
     3
176
     1
 90
        0
176
     1
 40
-0.6
176
     1
 41
-30.0
176
     1
 62
     5
 63
     8
421
  8421504
176
     1
 74
     1
176
     1
 91
        4
176
     1
 64
     7
176
     1
 65
   257
176
     1
 75
     1
176
     1
175
     1
176
     1
 42
1.0
176
     1
 92
        8
176
     1
 66
     8
424
  8421504
176
     1
 43
1.0
176
     1
 76
     1
176
     1
 77
     6
176
     1
 78
     2
176
     1
 67
     7
176
     1
 79
     5
176
     1
170
     0
176
     1
171
     0
176
     1
290
     0
176
     1
 93
        1
176
     1
 44
0.0
176
     1
173
     0
176
     1
  0
VISUALSTYLE
  5
34
102
{ACAD_REACTORS
330
2A
102
}
330
2A
100
AcDbVisualStyle
  2
Conceptual
 70
     9
177
     2
291
     0
 71
     3
176
     1
 72
     2
176
     1
 73
     0
176
     1
 90
        0
176
     1
 40
-0.6
176
     1
 41
-30.0
176
     1
 62
     5
 63
     7
421
 16777215
176
     1
 74
     2
176
     1
 91
        2
176
     1
 64
     7
176
     1
 65
   257
176
     1
 75
     1
176
     1
175
     1
176
     1
 42
40.0
176
     1
 92
        8
176
     1
 66
     7
176
     1
 43
1.0
176
     1
 76
     1
176
     1
 77
     6
176
     1
 78
     2
176
     1
 67
     7
176
     1
 79
     3
176
     1
170
     0
176
     1
171
     0
176
     1
290
     0
176
     1
 93
        1
176
     1
 44
0.0
176
     1
173
     0
176
     1
  0
VISUALSTYLE
  5
35
102
{ACAD_REACTORS
330
2A
102
}
330
2A
100
AcDbVisualStyle
  2
Dim
 70
    11
177
     2
291
     1
 71
     2
176
     1
 72
     2
176
     1
 73
     0
176
     1
 90
        0
176
     1
 40
-0.6
176
     1
 41
-30.0
176
     1
 62
     5
 63
     7
421
 16777215
176
     1
 74
     1
176
     1
 91
        4
176
     1
 64
     7
176
     1
 65
   257
176
     1
 75
     1
176
     1
175
     1
176
     1
 42
1.0
176
     1
 92
        8
176
     1
 66
     7
176
     1
 43
1.0
176
     1
 76
     1
176
     1
 77
     6
176
     1
 78
     2
176
     1
 67
     7
176
     1
 79
     5
176
     1
170
     0
176
     1
171
     0
176
     1
290
     0
176
     1
 93
        1
176
     1
 44
-50.0
176
     1
173
     0
176
     1
  0
VISUALSTYLE
  5
39
102
{ACAD_REACTORS
330
2A
102
}
330
2A
100
AcDbVisualStyle
  2
Facepattern
 70
    15
177
     2
291
     1
 71
     2
176
     1
 72
     2
176
     1
 73
     0
176
     1
 90
        0
176
     1
 40
-0.6
176
     1
 41
-30.0
176
     1
 62
     5
 63
     7
421
 16777215
176
     1
 74
     1
176
     1
 91
        4
176
     1
 64
     7
176
     1
 65
   257
176
     1
 75
     1
176
     1
175
     1
176
     1
 42
1.0
176
     1
 92
        8
176
     1
 66
     7
176
     1
 43
1.0
176
     1
 76
     1
176
     1
 77
     6
176
     1
 78
     2
176
     1
 67
     7
176
     1
 79
     5
176
     1
170
     0
176
     1
171
     0
176
     1
290
     0
176
     1
 93
        1
176
     1
 44
0.0
176
     1
173
     0
176
     1
  0
VISUALSTYLE
  5
2B
102
{ACAD_REACTORS
330
2A
102
}
330
2A
100
AcDbVisualStyle
  2
Flat
 70
     0
177
     2
291
     1
 71
     2
176
     1
 72
     1
176
     1
 73
     1
176
     1
 90
        2
176
     1
 40
-0.6
176
     1
 41
30.0
176
     1
 62
     5
 63
     7
421
 16777215
176
     1
 74
     0
176
     1
 91
        4
176
     1
 64
     7
176
     1
 65
   257
176
     1
 75
     1
176
     1
175
     1
176
     1
 42
1.0
176
     1
 92
        8
176
     1
 66
     7
176
     1
 43
1.0
176
     1
 76
     1
176
     1
 77
     6
176
     1
 78
     2
176
     1
 67
     7
176
     1
 79
     5
176
     1
170
     0
176
     1
171
     0
176
     1
290
     0
176
     1
 93
       13
176
     1
 44
0.0
176
     1
173
     0
176
     1
  0
VISUALSTYLE
  5
2C
102
{ACAD_REACTORS
330
2A
102
}
330
2A
100
AcDbVisualStyle
  2
FlatWithEdges
 70
     1
177
     2
291
     1
 71
     2
176
     1
 72
     1
176
     1
 73
     1
176
     1
 90
        2
176
     1
 40
-0.6
176
     1
 41
30.0
176
     1
 62
     5
 63
     7
421
 16777215
176
     1
 74
     1
176
     1
 91
        4
176
     1
 64
     7
176
     1
 65
   257
176
     1
 75
     1
176
     1
175
     1
176
     1
 42
1.0
176
     1
 92
        0
176
     1
 66
   257
176
     1
 43
1.0
176
     1
 76
     1
176
     1
 77
     6
176
     1
 78
     2
176
     1
 67
     7
176
     1
 79
     5
176
     1
170
     0
176
     1
171
     0
176
     1
290
     0
176
     1
 93
       13
176
     1
 44
0.0
176
     1
173
     0
176
     1
  0
VISUALSTYLE
  5
2D
102
{ACAD_REACTORS
330
2A
102
}
330
2A
100
AcDbVisualStyle
  2
Gouraud
 70
     2
177
     2
291
     1
 71
     2
176
     1
 72
     2
176
     1
 73
     1
176
     1
 90
        2
176
     1
 40
-0.6
176
     1
 41
30.0
176
     1
 62
     5
 63
     7
421
 16777215
176
     1
 74
     0
176
     1
 91
        4
176
     1
 64
     7
176
     1
 65
   257
176
     1
 75
     1
176
     1
175
     1
176
     1
 42
1.0
176
     1
 92
        0
176
     1
 66
     7
176
     1
 43
1.0
176
     1
 76
     1
176
     1
 77
     6
176
     1
 78
     2
176
     1
 67
     7
176
     1
 79
     5
176
     1
170
     0
176
     1
171
     0
176
     1
290
     0
176
     1
 93
       13
176
     1
 44
0.0
176
     1
173
     0
176
     1
  0
VISUALSTYLE
  5
2E
102
{ACAD_REACTORS
330
2A
102
}
330
2A
100
AcDbVisualStyle
  2
GouraudWithEdges
 70
     3
177
     2
291
     1
 71
     2
176
     1
 72
     2
176
     1
 73
     1
176
     1
 90
        2
176
     1
 40
-0.6
176
     1
 41
30.0
176
     1
 62
     5
 63
     7
421
 16777215
176
     1
 74
     1
176
     1
 91
        4
176
     1
 64
     7
176
     1
 65
   257
176
     1
 75
     1
176
     1
175
     1
176
     1
 42
1.0
176
     1
 92
        0
176
     1
 66
   257
176
     1
 43
1.0
176
     1
 76
     1
176
     1
 77
     6
176
     1
 78
     2
176
     1
 67
     7
176
     1
 79
     5
176
     1
170
     0
176
     1
171
     0
176
     1
290
     0
176
     1
 93
       13
176
     1
 44
0.0
176
     1
173
     0
176
     1
  0
VISUALSTYLE
  5
38
102
{ACAD_REACTORS
330
2A
102
}
330
2A
100
AcDbVisualStyle
  2
Linepattern
 70
    14
177
     2
291
     1
 71
     2
176
     1
 72
     2
176
     1
 73
     0
176
     1
 90
        0
176
     1
 40
-0.6
176
     1
 41
-30.0
176
     1
 62
     5
 63
     7
421
 16777215
176
     1
 74
     1
176
     1
 91
        4
176
     1
 64
     7
176
     1
 65
   257
176
     1
 75
     7
176
     1
175
     7
176
     1
 42
1.0
176
     1
 92
        8
176
     1
 66
     7
176
     1
 43
1.0
176
     1
 76
     1
176
     1
 77
     6
176
     1
 78
     2
176
     1
 67
     7
176
     1
 79
     5
176
     1
170
     0
176
     1
171
     0
176
     1
290
     0
176
     1
 93
        1
176
     1
 44
0.0
176
     1
173
     0
176
     1
  0
VISUALSTYLE
  5
33
102
{ACAD_REACTORS
330
2A
102
}
330
2A
100
AcDbVisualStyle
  2
Realistic
 70
     8
177
     2
291
     0
 71
     2
176
     1
 72
     2
176
     1
 73
     0
176
     1
 90
        0
176
     1
 40
-0.6
176
     1
 41
-30.0
176
     1
 62
     5
 63
     7
421
 16777215
176
     1
 74
     1
176
     1
 91
        0
176
     1
 64
     7
176
     1
 65
   257
176
     1
 75
     1
176
     1
175
     1
176
     1
 42
1.0
176
     1
 92
        8
176
     1
 66
     8
424
  7895160
176
     1
 43
1.0
176
     1
 76
     1
176
     1
 77
     6
176
     1
 78
     2
176
     1
 67
     7
176
     1
 79
     5
176
     1
170
     0
176
     1
171
     0
176
     1
290
     0
176
     1
 93
       13
176
     1
 44
0.0
176
     1
173
     0
176
     1
  0
VISUALSTYLE
  5
37
102
{ACAD_REACTORS
330
2A
102
}
330
2A
100
AcDbVisualStyle
  2
Thicken
 70
    13
177
     2
291
     1
 71
     2
176
     1
 72
     2
176
     1
 73
     0
176
     1
 90
        0
176
     1
 40
-0.6
176
     1
 41
-30.0
176
     1
 62
     5
 63
     7
421
 16777215
176
     1
 74
     1
176
     1
 91
        4
176
     1
 64
     7
176
     1
 65
   257
176
     1
 75
     1
176
     1
175
     1
176
     1
 42
1.0
176
     1
 92
       12
176
     1
 66
     7
176
     1
 43
1.0
176
     1
 76
     1
176
     1
 77
     6
176
     1
 78
     2
176
     1
 67
     7
176
     1
 79
     5
176
     1
170
     0
176
     1
171
     0
176
     1
290
     0
176
     1
 93
        1
176
     1
 44
0.0
176
     1
173
     0
176
     1
  0
ENDSEC
  0
EOF
